<svg id="Layer_5" enable-background="new 0 0 64 64" height="512" viewBox="0 0 64 64" width="512" xmlns="http://www.w3.org/2000/svg"><g><path d="m57.118 25.259c.585 2.187.882 4.455.882 6.741 0 5.171-1.514 10.166-4.378 14.443l1.662 1.113c3.085-4.608 4.716-9.988 4.716-15.556 0-2.461-.32-4.902-.951-7.259z"/><path d="m32 6c1.289 0 2.585.096 3.854.283l.293-1.979c-1.365-.201-2.76-.304-4.147-.304-5.568 0-10.948 1.631-15.557 4.716l1.112 1.662c4.279-2.864 9.274-4.378 14.445-4.378z"/><path d="m6.882 38.741c-.585-2.187-.882-4.455-.882-6.741 0-5.171 1.514-10.166 4.378-14.443l-1.662-1.113c-3.085 4.608-4.716 9.988-4.716 15.556 0 2.461.32 4.902.951 7.259z"/><path d="m32 58c-1.621 0-3.241-.149-4.816-.444l-.368 1.965c1.695.318 3.439.479 5.184.479 5.569 0 10.948-1.631 15.556-4.716l-1.112-1.662c-4.278 2.864-9.273 4.378-14.444 4.378z"/><circle cx="51" cy="51" r="3"/><circle cx="13" cy="13" r="3"/><circle cx="14" cy="42" r="3"/><path d="m35.766 51.633c5.381-1.03 10-4.218 12.92-8.633h-9.714c-.713 3.567-1.788 6.647-3.206 8.633z"/><circle cx="50" cy="6" r="3"/><path d="m43.071 17h13.857c-.487-3.388-3.408-6-6.929-6s-6.441 2.612-6.928 6z"/><path d="m43.129 23h-3.807c.389 2.508.613 5.226.656 8h11.972c-.096-1.952-.471-3.854-1.122-5.684l-1.887 1.258c-.418.279-.904.426-1.406.426-1.398 0-2.535-1.138-2.535-2.535v-1.465z"/><path d="m49.836 41c1.23-2.427 1.97-5.133 2.113-8h-11.957c-.044 2.713-.269 5.445-.666 8z"/><path d="m27.08 21h12.223c-.394-.561-.684-1.205-.803-1.923l-1.051-6.308c-1.773-.501-3.601-.769-5.449-.769-1.809 0-3.75 3.498-4.92 9z"/><path d="m7.071 53h13.857c-.487-3.388-3.408-6-6.929-6s-6.441 2.612-6.928 6z"/><path d="m26.165 51.093c1.918.59 3.875.907 5.835.907 1.809 0 3.75-3.498 4.92-9h-10.782c.539.764.862 1.69.862 2.694 0 .259-.021.517-.064.772z"/><path d="m37.3 23h-10.593c-.394 2.4-.642 5.097-.69 8h11.962c-.045-2.786-.276-5.51-.679-8z"/><path d="m37.293 41c.394-2.4.642-5.097.69-8h-11.962c.045 2.786.276 5.51.679 8z"/><path d="m58.306 7h-3.407c-.213 1.047-.765 1.965-1.522 2.663 3.293 1.339 5.623 4.569 5.623 8.337v1h-18v-1c0-3.768 2.33-6.998 5.623-8.337-.757-.698-1.308-1.616-1.522-2.663h-3.407c-1.486 0-2.694 1.209-2.694 2.694 0 .147.012.296.037.442l1.435 8.612c.217 1.305 1.335 2.252 2.657 2.252h2.871 1v3.465c0 .4.497.667.832.445l5.865-3.91h3.173c1.323 0 2.44-.947 2.658-2.251l1.435-8.611c.025-.148.037-.296.037-.444 0-1.485-1.208-2.694-2.694-2.694z"/><path d="m12.051 31h11.958c.044-2.713.269-5.445.666-8h-10.51c-1.231 2.427-1.972 5.133-2.114 8z"/><path d="m15.314 21h9.714c.712-3.567 1.787-6.647 3.206-8.633-5.381 1.031-10 4.219-12.92 8.633z"/><path d="m18.899 41h3.407 2.372c-.389-2.508-.613-5.226-.656-8h-11.982c.072 1.412.294 2.813.666 4.191.416-.112.844-.191 1.294-.191 2.414 0 4.434 1.721 4.899 4z"/><path d="m22.306 43h-3.407c-.213 1.047-.765 1.965-1.522 2.663 3.293 1.339 5.623 4.569 5.623 8.337v1h-18v-1c0-3.768 2.33-6.998 5.623-8.337-.757-.698-1.308-1.616-1.522-2.663h-3.407c-1.486 0-2.694 1.209-2.694 2.694 0 .147.012.296.037.442l1.435 8.612c.217 1.305 1.335 2.252 2.657 2.252h3.173l5.865 3.91c.334.221.833-.045.833-.445v-3.465h3.871c1.323 0 2.44-.947 2.658-2.251l1.435-8.611c.024-.148.036-.296.036-.444 0-1.485-1.208-2.694-2.694-2.694z"/></g></svg>