<svg id="Capa_1" enable-background="new 0 0 512 512" height="512" viewBox="0 0 512 512" width="512" xmlns="http://www.w3.org/2000/svg"><g><path d="m60.205 333.045-59.639 59.639c-1.003.956-.628 2.685.77 3.1l71.828 21.819c10.19 3.1 18.13 11.04 21.229 21.229l21.819 71.828c.414 1.398 2.144 1.773 3.1.77l79.798-79.798c-59.041-14.666-107.784-51.474-138.905-98.587z"/><path d="m511.434 392.684-59.639-59.639c-30.899 46.776-79.491 83.828-138.907 98.588l79.798 79.798c.956 1.003 2.686.628 3.1-.77l21.819-71.828c3.1-10.19 11.04-18.13 21.23-21.229l71.828-21.819c1.402-.417 1.772-2.148.771-3.101z"/><path d="m460.265 204.268c0-112.627-91.628-204.265-204.265-204.265s-204.265 91.638-204.265 204.265c0 101.835 74.979 186.711 172.876 201.865 124.007 19.29 235.654-77.232 235.654-201.865zm-363.491 49.779c-33.687-107.701 47.407-216.575 159.226-216.575 124.913 0 207.476 134.249 146.586 246.364-70.294 128.951-261.57 110.936-305.812-29.789z"/><path d="m256 67.471c-75.428 0-136.807 61.369-136.807 136.797 0 110.972 125.817 175.688 215.915 111.547 19.304-13.702 35.024-32.434 45.139-54.319 42.031-90.486-24.972-194.025-124.247-194.025zm69.048 117.608c-1.708 1.268-84.821 62.955-85.298 63.309-6.003 4.474-14.543 3.874-19.88-1.78-38.177-40.686-35.123-37.437-36.039-38.399-6.415-6.831-5.076-17.88 2.95-22.959.01-.01.02-.02.03-.02 5.96-3.74 13.91-2.87 18.9 2.45 8.073 8.604 2.639 2.813 26.889 28.649 2.614-1.949 33.372-24.767 75.688-56.169 6.65-4.94 16.05-3.55 20.979 3.1 4.518 6.064 4.502 15.357-4.219 21.819z"/></g></svg>