<?xml version="1.0" encoding="UTF-8"?>
<svg width="209px" height="45px" viewBox="0 0 209 45" version="1.1" xmlns="http://www.w3.org/2000/svg" xmlns:xlink="http://www.w3.org/1999/xlink">
    <!-- Generator: sketchtool 63.1 (101010) - https://sketch.com -->
    <title>2ACFC380-23B1-4920-BE20-7FEACC0AB136</title>
    <desc>Created with sketchtool.</desc>
    <g id="Page-1" stroke="none" stroke-width="1" fill="none" fill-rule="evenodd">
        <g id="Home-Page-Design-Increased-sizes" transform="translate(-33.000000, -49.000000)">
            <g id="Primary-Navigation">
                <g id="Image" transform="translate(23.000000, 38.000000)">
                    <g id="Group-90" transform="translate(10.550459, 12.611465)">
                        <g id="Group-89" transform="translate(0.000000, 0.189845)">
                            <path d="M26.7055743,24.0289605 C25.4648404,24.0642726 24.4258312,24.6326293 23.7733908,25.6348204 L23.7733908,34.7386166 L26.7055743,34.7386166 L26.7055743,24.0289605 Z" id="Fill-21" fill="#CC1521"/>
                            <path d="M31.8628917,27.0980866 C31.9852771,26.9526344 32.1253872,26.8239975 32.2773138,26.7163796 C32.6453138,26.4641503 33.0934972,26.3346726 33.6092037,26.329628 L33.6108917,26.329628 C34.1274422,26.3346726 34.5756257,26.4641503 34.9419376,26.7146981 C35.0955523,26.8239975 35.2356624,26.9526344 35.3580477,27.0980866 C35.7935706,27.6109529 36.0062679,28.3491439 36.0062679,29.3538573 C36.0062679,29.7700357 35.9581578,30.1996662 35.8636257,30.6292968 C35.7572771,31.0791057 35.5893138,31.4431567 35.363956,31.7122013 C34.9351853,32.2217045 34.3452037,32.4806599 33.6100477,32.4815006 C32.8757358,32.4806599 32.2849101,32.2217045 31.8569835,31.713042 C31.6316257,31.4431567 31.4628183,31.0799465 31.3573138,30.6309783 C31.294855,30.3417554 31.2188917,29.8869019 31.2188917,29.3538573 C31.2188917,28.3323287 31.4239927,27.6151567 31.8628917,27.0980866 M28.8513688,32.401628 C29.2666349,33.1961503 29.8726532,33.8233605 30.6516991,34.2647618 C31.4687266,34.7263414 32.3456807,34.9323287 33.4952587,34.9323287 L33.7256807,34.9323287 C34.8752587,34.9323287 35.7513688,34.7263414 36.5692404,34.2647618 C37.3491303,33.8233605 37.9543046,33.1961503 38.3687266,32.401628 C38.6008367,31.9560229 38.7713321,31.4137299 38.8894972,30.7444815 C39.0135706,30.0441248 38.9975339,29.3168637 38.9966899,29.3092968 C38.9966899,27.5865707 38.515589,26.2320994 37.5685798,25.2820357 C36.8173872,24.5295516 35.9817908,24.1158955 34.859222,23.9410166 C34.3080661,23.8552586 33.799956,23.8485325 33.6573138,23.8485325 L33.6117358,23.8493732 L33.5627817,23.8485325 C33.4192954,23.8485325 32.9094972,23.8552586 32.3634055,23.9410166 C31.2391486,24.1167363 30.4027083,24.5295516 29.6523596,25.2820357 C28.7045064,26.2320994 28.2242495,27.5865707 28.2242495,29.3076153 C28.2233987,29.3160229 28.2099009,30.0281503 28.3305982,30.7444815 C28.4403229,31.3893478 28.6158826,31.9476153 28.8513688,32.401628" id="Fill-23" fill="#CC1521"/>
                            <path d="M106.254767,30.3925376 L107.423758,26.3156713 L108.729483,30.3925376 L106.254767,30.3925376 Z M108.143721,24.0279516 C106.891171,24.0279516 105.816712,24.6047159 105.120382,25.6523083 L101.796565,34.7384484 L104.951574,34.7384484 L105.597262,32.5221936 L109.364198,32.5221936 L110.079941,34.7384484 L113.140418,34.7384484 L109.208895,24.0279516 L108.143721,24.0279516 Z" id="Fill-25" fill="#252B5F"/>
                            <path d="M94.2318018,26.1567669 L95.8287193,26.1567669 C96.5967927,26.1567669 96.9926459,26.398907 97.1597651,26.5435185 C97.4129761,26.7587541 97.5370495,27.0488178 97.5370495,27.4280025 C97.5370495,27.7273146 97.4425174,28.0535312 97.3015633,28.2393401 C97.0289394,28.5916204 96.5706275,28.7421172 95.7704807,28.7421172 L94.2318018,28.7421172 L94.2318018,26.1567669 Z M97.0812697,32.6331745 C97.3969394,33.512614 97.5564624,34.4904229 97.5936,34.7392892 L100.728352,34.7392892 C100.666738,34.4652 100.451508,33.5630599 100.124022,32.7769452 C99.5053431,31.2913146 98.6174165,30.8019898 98.3608294,30.6876459 C98.351545,30.6826013 98.3009028,30.6540153 98.1489761,30.6405631 L98.1498202,30.5026777 C98.2629211,30.4934293 98.3566092,30.4631618 98.3574532,30.462321 C98.7524624,30.3664739 99.6851229,29.7333783 100.005857,28.9102701 C100.291985,28.172079 100.322371,27.633149 100.277637,26.9512892 C100.22193,26.1113656 99.9324257,25.5976586 99.685967,25.2436968 C99.3838018,24.8039771 98.9373064,24.4928943 98.3220037,24.2919516 C97.800389,24.1187541 96.9681688,24.0279516 95.915655,24.0279516 L94.3170495,24.0279516 C93.0450862,24.0279516 92.0238018,24.5685631 91.2810495,25.6363338 L91.2810495,34.7392892 L94.2318018,34.7392892 L94.2318018,30.8398242 L94.6521321,30.8398242 C95.7038018,30.8398242 96.7022972,31.5780153 97.0812697,32.6331745 L97.0812697,32.6331745 Z" id="Fill-27" fill="#252B5F"/>
                            <path d="M5.02969908,34.9322446 L5.56735046,34.9322446 C6.95325872,34.9322446 8.11380917,34.8246268 9.37817615,33.4709962 C10.0466532,32.7538242 10.3724514,31.7617223 10.3724514,30.4383592 L10.3724514,24.0292127 C9.50562569,24.0544357 8.31975413,24.3613146 7.43942385,25.6359134 L7.43942385,30.4299516 C7.43942385,31.013442 7.23938716,31.527149 6.85957064,31.9172637 C6.52448807,32.2602955 5.95560734,32.4587159 5.29810275,32.4595567 C4.64059817,32.4587159 4.07171743,32.2602955 3.73663486,31.9172637 C3.35766239,31.5279898 3.15593761,31.013442 3.15593761,30.4299516 L3.15593761,24.0292127 C1.91013945,24.0611618 0.949625688,24.5874803 0.223754128,25.6359134 L0.223754128,30.4383592 C0.223754128,31.7297732 0.557992661,32.7504611 1.21802936,33.4709962 C2.52122202,34.8935694 3.79656147,34.9137478 5.02969908,34.9322446" id="Fill-29" fill="#CC1521"/>
                            <path d="M22.1074312,34.7397096 L22.1074312,24.0275312 C20.9873945,24.0376204 20.009156,24.5790726 19.1971927,25.6392764 L19.1971927,30.3753019 L19.0705872,30.1861299 L14.9238349,24.0300535 C13.7109541,24.0544357 12.6947339,24.6093401 11.982367,25.6375949 L11.982367,34.7397096 L14.8850092,34.7397096 L14.8850092,28.4423847 L19.1389541,34.7397096 L22.1074312,34.7397096 Z" id="Fill-31" fill="#CC1521"/>
                            <path d="M50.6514018,34.7397096 L50.6514018,24.0275312 C49.5313651,24.0376204 48.5531266,24.5790726 47.7411633,25.6392764 L47.7411633,30.3753019 L47.6137138,30.1861299 L43.4678055,24.0300535 C42.2549248,24.0544357 41.2387046,24.6093401 40.5263376,25.6375949 L40.5263376,34.7397096 L43.4289798,34.7397096 L43.4289798,28.4423847 L47.6829248,34.7397096 L50.6514018,34.7397096 Z" id="Fill-33" fill="#CC1521"/>
                            <path d="M67.0396404,34.7397096 L67.0396404,24.0275312 C65.9196037,24.0376204 64.9405211,24.5790726 64.1294018,25.6392764 L64.1294018,30.3753019 L64.0019523,30.1861299 L59.856044,24.0300535 C58.6431633,24.0544357 57.6269431,24.6093401 56.9145761,25.6375949 L56.9145761,34.7397096 L59.8172183,34.7397096 L59.8172183,28.4423847 L64.0711633,34.7397096 L67.0396404,34.7397096 Z" id="Fill-35" fill="#252B5F"/>
                            <path d="M146.646143,26.1559261 L146.646143,24.0279516 L141.131207,24.0279516 C139.849116,24.0279516 138.891134,24.5391363 138.119684,25.6363338 L138.119684,34.7384484 L146.646143,34.7384484 L146.646143,32.6264484 L141.024015,32.6264484 L141.024015,30.4278497 L146.240161,30.4278497 L146.240161,28.3032382 L141.024015,28.3032382 L141.024015,26.1559261 L146.646143,26.1559261 Z" id="Fill-37" fill="#252B5F"/>
                            <path d="M124.324917,34.7397096 L124.324917,24.0275312 C123.205725,24.0367796 122.227486,24.5782318 121.414679,25.6392764 L121.414679,30.3753019 L121.287229,30.1861299 L117.141321,24.0300535 C115.92844,24.0544357 114.91222,24.6093401 114.199853,25.6375949 L114.199853,34.7397096 L117.102495,34.7397096 L117.102495,28.4423847 L121.35644,34.7397096 L124.324917,34.7397096 Z" id="Fill-39" fill="#252B5F"/>
                            <path d="M55.2490385,24.0289605 C54.0083046,24.0642726 52.9692954,24.6326293 52.316011,25.6348204 L52.316011,34.7386166 L55.2490385,34.7386166 L55.2490385,24.0289605 Z" id="Fill-41" fill="#252B5F"/>
                            <path d="M73.3802128,34.9322446 C74.3652037,34.9322446 75.1214606,34.7918369 75.8304514,34.4765503 C76.4989284,34.1806013 77.0230752,33.7417223 77.3910752,33.1733656 C77.7329101,32.6445248 77.8789284,32.1047541 77.8789284,31.3682446 C77.8789284,30.8419261 77.7607633,30.4198624 77.4847633,29.957442 C77.1910385,29.4622318 76.8036257,29.1091108 76.2296807,28.8148433 C75.6126899,28.4953529 74.6758092,28.209493 73.1919927,27.8857987 C72.6636257,27.7739771 72.2205064,27.592372 72.0086532,27.3981554 C71.8339376,27.2468178 71.7250569,27.0080408 71.7250569,26.7759898 C71.7250569,26.4724739 71.8347817,26.2824611 72.0424147,26.1092637 C72.2593321,25.9234548 72.5910385,25.8292892 73.0274055,25.8292892 C73.5473321,25.8292892 74.0672587,25.9814675 74.350855,26.2160408 C74.6201028,26.4396841 74.787222,26.5910217 74.8817541,27.0458752 L77.6890202,27.0458752 C77.5970202,26.040321 77.1606532,25.2121682 76.4575706,24.7085503 C75.9038826,24.3125503 74.9180477,23.8408815 73.3574239,23.8408815 C72.1023413,23.8408815 71.3621211,23.9518624 70.7172771,24.2360408 C70.1306716,24.4958369 69.6664514,24.8859516 69.3381211,25.394614 C69.0300477,25.8713274 68.8739009,26.3858752 68.8739009,26.9256459 C68.8739009,27.6730854 69.1600294,28.2624611 69.7761761,28.7820535 C70.4142679,29.3193019 71.4828183,29.7691108 72.8678826,30.0835567 C73.7946349,30.2895439 74.3744881,30.5073019 74.6412037,30.7486013 C74.9433688,31.0235312 75.0505615,31.4397096 75.0505615,31.7121172 C75.0505615,32.094665 74.9349284,32.2972892 74.6774972,32.5251363 C74.4031853,32.7639134 73.9609101,32.8950726 73.4325431,32.8950726 C72.7345248,32.8950726 72.1546716,32.6428433 71.7993321,32.183786 C71.5959193,31.9189452 71.4718459,31.6490599 71.4001028,31.1588943 L68.6097174,31.1588943 C68.6823046,32.1938752 69.0739376,33.0968561 69.7474789,33.7761936 C70.5045798,34.5438115 71.726745,34.9322446 73.3802128,34.9322446" id="Fill-43" fill="#252B5F"/>
                            <path d="M84.2730972,34.9322446 L84.8107486,34.9322446 C86.1966569,34.9322446 87.3572073,34.8246268 88.6215743,33.4709962 C89.2900514,32.7538242 89.6158495,31.7617223 89.6158495,30.4383592 L89.6158495,24.0292127 C88.7490239,24.0544357 87.5631523,24.3613146 86.682822,25.6359134 L86.682822,30.4299516 C86.682822,31.013442 86.4827853,31.527149 86.1029688,31.9172637 C85.7678862,32.2602955 85.1990055,32.4587159 84.5415009,32.4595567 C83.8839963,32.4587159 83.3151156,32.2602955 82.980033,31.9172637 C82.6010606,31.5279898 82.3993358,31.013442 82.3993358,30.4299516 L82.3993358,24.0292127 C81.1535376,24.0611618 80.1930239,24.5874803 79.4671523,25.6359134 L79.4671523,30.4383592 C79.4671523,31.7297732 79.8013908,32.7504611 80.4614275,33.4709962 C81.7637761,34.8935694 83.0399596,34.9137478 84.2730972,34.9322446" id="Fill-45" fill="#252B5F"/>
                            <path d="M126.47164,32.4017121 C126.886906,33.1962344 127.492081,33.8234446 128.271971,34.2648459 C129.088998,34.7264255 129.965952,34.9324127 131.11553,34.9324127 L131.345108,34.9324127 C132.494686,34.9324127 133.37164,34.7264255 134.189512,34.2648459 C134.968558,33.8234446 135.574576,33.1962344 135.988998,32.4017121 C136.221108,31.956107 136.39076,31.413814 136.509769,30.7445656 C136.519897,30.6873936 136.529182,30.6293809 136.536778,30.5730497 L133.496558,30.5730497 C133.413842,30.9984764 133.219714,31.4306293 132.984228,31.7122854 C132.555457,32.2217885 131.965475,32.4807439 131.230319,32.4815847 C130.496007,32.4807439 129.905182,32.2217885 129.477255,31.7131261 C129.251053,31.4432408 129.08309,31.0800306 128.977585,30.6310624 C128.915127,30.3426803 128.839163,29.8886675 128.839163,29.3539414 C128.839163,28.331572 129.044264,27.6152408 129.483163,27.0981707 C129.606393,26.9518777 129.745659,26.8232408 129.897585,26.7164637 C130.265585,26.4642344 130.712925,26.3347567 131.229475,26.3297121 C131.747714,26.3347567 132.195053,26.4642344 132.562209,26.7147822 C132.714136,26.8232408 132.854246,26.9518777 132.977475,27.0981707 C133.223934,27.3882344 133.395273,27.7396739 133.501622,28.170986 L136.53931,28.170986 C136.368815,26.9821452 135.914723,26.0102217 135.188007,25.2821197 C134.437659,24.5296357 133.602062,24.1159796 132.479494,23.9411006 C131.929182,23.8553427 131.420228,23.8486166 131.277585,23.8486166 L131.232007,23.8494573 L131.183053,23.8486166 C131.039567,23.8486166 130.528925,23.8553427 129.982833,23.9411006 C128.85942,24.1168204 128.022136,24.5296357 127.272631,25.2821197 C126.324778,26.2321834 125.844521,27.585814 125.844521,29.3076994 C125.84367,29.316107 125.830172,30.0282344 125.95087,30.7445656 C126.060594,31.3894318 126.23531,31.9476994 126.47164,32.4017121" id="Fill-47" fill="#252B5F"/>
                            <path d="M23.703589,20.0435694 L26.6366165,20.0435694 L26.6366165,17.6616841 C25.3916624,17.6961554 24.3526532,18.2619898 23.703589,19.256614 L23.703589,20.0435694 Z" id="Fill-49" fill="#252B5F"/>
                            <path d="M52.9778202,7.28101911 L52.9778202,8.06797452 L55.9100037,8.06797452 L55.9100037,5.68608917 C54.6658936,5.72056051 53.6268844,6.28471338 52.9778202,7.28101911" id="Fill-51" fill="#252B5F"/>
                            <path d="M121.439156,8.97112357 L121.439156,9.75807898 L124.372183,9.75807898 L124.372183,7.37619363 C123.127229,7.41066497 122.089064,7.97481783 121.439156,8.97112357" id="Fill-53" fill="#CC1521"/>
                            <path d="M32.2733468,10.8883185 C32.3442459,10.8034013 32.4252734,10.729414 32.5113651,10.6680382 C32.7249064,10.522586 32.9865578,10.447758 33.291255,10.4443949 L33.2920991,10.4443949 C33.5959523,10.447758 33.8576037,10.522586 34.0694569,10.6663567 C34.1589248,10.7302548 34.2391083,10.8050828 34.3108514,10.8883185 C34.5716587,11.196879 34.6982642,11.6517325 34.6982642,12.2797834 C34.6982642,12.5471465 34.6670349,12.8220764 34.6071083,13.0986879 C34.5429615,13.3702548 34.4442092,13.5863312 34.3142275,13.7418726 C34.0627046,14.0403439 33.7284661,14.1849554 33.2920991,14.1857962 C32.854044,14.1849554 32.5198055,14.0403439 32.2691266,13.7435541 C32.1383009,13.5863312 32.0403927,13.3702548 31.9754018,13.1003694 C31.9357321,12.9154013 31.887622,12.6236561 31.887622,12.2797834 C31.887622,11.6408025 32.0100073,11.1985605 32.2733468,10.8883185 L32.2733468,10.8883185 Z M23.215145,15.5352229 L23.2598789,15.5722166 C24.3824477,16.5079873 25.4889798,16.5256433 26.5583743,16.5416178 L33.3739706,16.5416178 C34.2467046,16.5416178 34.9160257,16.3835541 35.543989,16.0287516 C36.1483193,15.6874013 36.6167596,15.2014395 36.9374936,14.5868408 C37.1164294,14.2438089 37.246411,13.8309936 37.3367229,13.323172 C37.4228147,12.8346879 37.4185945,12.3377962 37.4169064,12.2427898 C37.4169064,10.936242 37.0463743,9.90294268 36.3171266,9.17147771 C35.7364294,8.58966879 35.0924294,8.27101911 34.2289798,8.13733758 C33.8280624,8.07428025 33.4651266,8.06755414 33.3275486,8.06755414 L33.2566495,8.06755414 C33.1486128,8.06755414 32.7645761,8.07259873 32.3543743,8.13649682 C31.4892367,8.27101911 30.8452367,8.59135032 30.2653835,9.17147771 C29.5361358,9.90294268 29.1656037,10.9354013 29.1647596,12.241949 C29.1639156,12.2982803 29.1580073,12.7993758 29.2457872,13.3206497 C29.2846128,13.5527006 29.3369431,13.7738217 29.4002459,13.9789682 L29.427255,14.0680892 L26.826778,14.0680892 C26.1692734,14.0672484 25.6003927,13.8696688 25.2653101,13.5266369 C24.895622,13.1474522 24.6947413,12.6480382 24.6854569,12.0822038 L24.6854569,12.0822038 L24.6837688,12.0384841 L24.6837688,9.14036943 C23.815255,9.16559236 22.6285394,9.47163057 21.7515853,10.7411847 L21.7515853,12.0393248 C21.7515853,12.6228153 21.5507046,13.1373631 21.1708881,13.5266369 C20.8358055,13.8696688 20.2669248,14.0672484 19.6094202,14.0680892 L12.5060073,14.0680892 C11.8476587,14.0672484 11.278778,13.8696688 10.9436954,13.5266369 C10.611145,13.1852866 10.4136404,12.7405223 10.3722826,12.2402675 L10.3722826,9.14036943 C9.50208073,9.16727389 8.31789725,9.47583439 7.44009908,10.7470701 L7.44009908,15.5411083 C7.44009908,16.1245987 7.23921835,16.6383057 6.85940183,17.0275796 C6.5251633,17.3714522 5.95543853,17.5690318 5.29793394,17.5698726 C4.64042936,17.5690318 4.07070459,17.3714522 3.73646606,17.0275796 C3.35749358,16.6391465 3.15576881,16.1245987 3.15576881,15.5411083 L3.15576881,10.7840637 C1.90997064,10.8168535 0.950300917,11.3423312 0.223585321,12.3916051 L0.223585321,15.5495159 C0.223585321,16.8417707 0.557823853,17.8616178 1.21786055,18.5821529 C2.52020917,20.0030446 3.79554862,20.0240637 5.02953028,20.0434013 L5.56718165,20.0434013 C6.95308991,20.0434013 8.11364037,19.9357834 9.37885138,18.5821529 C9.8945578,18.0280892 10.2026312,17.3168025 10.3199523,16.4070955 L10.3300807,16.3280637 L10.4068881,16.3499236 C10.9918055,16.5105096 11.5817872,16.5315287 12.2376037,16.5416178 L19.8786679,16.5416178 C21.0805761,16.5416178 22.0866679,16.4709936 23.170411,15.5722166 L23.215145,15.5352229 Z" id="Fill-55" fill="#252B5F"/>
                            <path d="M48.7176294,8.97112357 L48.7176294,9.75807898 L51.6498128,9.75807898 L51.6498128,7.37619363 C50.4048587,7.41066497 49.3666936,7.97481783 48.7176294,8.97112357" id="Fill-57" fill="#252B5F"/>
                            <path d="M143.713453,7.23376815 L143.713453,16.3476535 L146.646481,16.3476535 L146.646481,5.63883822 C145.401527,5.67330955 144.362517,6.23746242 143.713453,7.23376815" id="Fill-59" fill="#CC1521"/>
                            <path d="M22.3287376,17.6616841 C21.0837835,17.6969962 20.0447743,18.2619898 19.3957101,19.256614 L19.3957101,20.0435694 L22.3287376,20.0435694 L22.3287376,17.6616841 Z" id="Fill-61" fill="#252B5F"/>
                            <path d="M3.80525505,8.97112357 L3.80525505,9.75807898 L6.73828257,9.75807898 L6.73828257,7.37619363 C5.49332844,7.41066497 4.4551633,7.97481783 3.80525505,8.97112357" id="Fill-63" fill="#252B5F"/>
                            <path d="M135.025783,5.63967898 C133.784206,5.67499108 132.827912,6.20046879 132.105417,7.24553885 L132.105417,11.0760611 L135.040132,11.0760611 L135.040132,5.63883822 C135.035068,5.63967898 135.030004,5.63967898 135.025783,5.63967898" id="Fill-65" fill="#CC1521"/>
                            <path d="M38.4553248,4.08703949 L41.9276917,4.08788025 C42.394444,4.06181656 42.7649761,3.69272102 42.7886092,3.22861911 L42.7877651,2.74013503 L41.6989578,2.74013503 C41.5444991,2.73424968 41.4246459,2.7149121 41.3655633,2.7031414 C41.3562789,2.70230064 41.3444624,2.69977834 41.3334899,2.69725605 C41.2718752,2.68380382 41.2364257,2.66698854 41.2246092,2.66110318 C41.1959119,2.64681019 41.1646826,2.62326879 41.1317651,2.59131975 C41.0802789,2.54255541 41.0439853,2.48790573 41.0161321,2.42232611 C40.9874349,2.3542242 40.9730862,2.28275924 40.9730862,2.2104535 C40.9730862,2.13730701 40.9874349,2.06584204 41.0161321,1.99774013 C41.0439853,1.93216051 41.0802789,1.87751083 41.1258569,1.83463185 C41.1629945,1.79847898 41.1933798,1.77493758 41.2246092,1.75896306 C41.2347376,1.75139618 41.2879119,1.73289936 41.3672514,1.71608408 C41.5225541,1.68329427 41.7023339,1.67909045 41.8416,1.67909045 L42.4180771,1.67909045 L42.4180771,0.265765605 L41.6331229,0.268287898 C41.4263339,0.27249172 41.2347376,0.291829299 41.0633982,0.324619108 C40.875178,0.361612739 40.6996183,0.419625478 40.5426275,0.497816561 C40.3763523,0.580211465 40.2185174,0.696236943 40.0733431,0.840848408 C39.6766459,1.23600764 39.4479119,1.58660637 39.4479119,2.2104535 C39.4479119,2.36431338 39.4622606,2.51565096 39.4918018,2.66026242 L39.5086826,2.74349809 L39.3213064,2.74349809 C38.8342972,2.76872102 38.4553248,3.16640255 38.4553248,3.64984204 L38.4553248,4.08703949 Z" id="Fill-67" fill="#252B5F"/>
                            <path d="M54.4878862,15.5720484 L54.5317761,15.5358955 L54.5765101,15.5720484 C55.6999229,16.5078191 56.806455,16.5254752 57.8758495,16.5414497 L58.4126569,16.5414497 C59.6154092,16.5414497 60.6215009,16.4699847 61.7060881,15.5720484 L61.749978,15.5350548 L61.7947119,15.5720484 C62.9181248,16.5078191 64.0246569,16.5254752 65.0940514,16.5414497 L65.6325468,16.5414497 C67.018455,16.5414497 68.1790055,16.4346726 69.4433725,15.0802013 C70.1118495,14.3638701 70.4368037,13.3717682 70.4368037,12.0475643 L70.4368037,5.63841783 C69.570822,5.66448153 68.3849505,5.97220127 67.5046202,7.24511847 L67.5046202,12.0391567 C67.5046202,12.6234879 67.3037394,13.1371949 66.924767,13.5264688 C66.5896844,13.8695006 66.0208037,14.0670803 65.3632991,14.067921 C64.7049505,14.0670803 64.1360697,13.8695006 63.8018312,13.5264688 C63.4220147,13.1371949 63.2211339,12.6234879 63.2211339,12.0391567 L63.2211339,5.63841783 L63.1975009,5.6392586 C62.1466752,5.67288917 61.3093908,6.05291465 60.6375376,6.80203567 C60.5117761,6.93992102 60.393611,7.08873631 60.2864183,7.24511847 L60.2864183,12.0391567 C60.2864183,12.6226471 60.0846936,13.1371949 59.7057211,13.5264688 C59.3706385,13.8695006 58.8017578,14.0670803 58.1442532,14.067921 C57.4867486,14.0670803 56.9170239,13.8695006 56.5819413,13.5264688 C56.2130972,13.1481248 56.0139046,12.6503924 56.0029321,12.0862395 L56.0020881,12.0862395 L56.0004,12.0383159 L56.0004,9.36384459 C55.1318862,9.38906752 53.9443266,9.6959465 53.0682165,10.9646599 L53.0682165,12.0391567 C53.0682165,12.6234879 52.8673358,13.1371949 52.4875193,13.5264688 C52.1532807,13.8695006 51.5844,14.0670803 50.9260514,14.067921 L44.2606936,14.067921 C43.603189,14.0670803 43.0334642,13.8695006 42.6983817,13.5264688 C42.3194092,13.1371949 42.1185284,12.6226471 42.1185284,12.0391567 L42.1185284,5.63841783 C40.8718862,5.67036688 39.9113725,6.19668535 39.186345,7.24511847 L39.186345,12.0475643 C39.186345,13.3398191 39.5205835,14.360507 40.1806202,15.081042 C41.4821248,16.5019338 42.7583083,16.5221121 43.9914459,16.5414497 L51.1952991,16.5414497 C52.3980514,16.5414497 53.4032991,16.4708255 54.4878862,15.5720484" id="Fill-69" fill="#252B5F"/>
                            <path d="M71.9167376,15.3396611 C71.6871596,15.7306166 71.6221688,16.2022854 71.6120404,16.5512025 L76.9522606,16.5512025 C77.1109394,16.5512025 77.2713064,16.5444764 77.4308294,16.5301834 C78.6099486,16.4250879 79.3805541,15.9626675 79.7350495,15.6961452 C80.0481872,15.4607312 80.3756734,15.1160178 80.5478569,14.8957376 C80.8711229,14.4820815 81.4129945,13.6144127 81.4087988,12.4592025 L81.4087988,12.4407057 C81.4129945,11.2863363 80.8711229,10.4178268 80.5478569,10.0033299 C80.3697651,9.77464204 80.0490312,9.43917707 79.7350495,9.20376306 C79.0117101,8.65978854 77.998022,8.34870573 76.9522606,8.34870573 L75.397545,8.34870573 C74.8143156,8.74722803 74.4150862,9.13734268 74.178756,9.54090955 C73.9905358,9.85955924 73.8875633,10.2614446 73.8732147,10.7347949 L76.9438202,10.7347949 C77.5312697,10.7347949 78.0300954,10.9164 78.3854349,11.2602726 C78.5913798,11.4603745 78.8386826,11.8916866 78.8521872,12.4482726 C78.8386826,13.0082217 78.5913798,13.438693 78.3854349,13.6396357 C78.0402239,13.9725783 77.5557468,14.141572 76.9438202,14.141572 L73.1346826,14.1482981 C72.5514532,14.5468204 72.1530679,14.9360943 71.9167376,15.3396611" id="Fill-71" fill="#CC1521"/>
                            <path d="M83.324822,7.24528662 L83.324822,12.0477325 C83.324822,13.3399873 83.6590606,14.3598344 84.3190972,15.0812102 C85.3944,16.2540764 86.429189,16.4777197 87.2993908,16.5424586 L123.803978,16.5416178 C125.189886,16.5416178 126.350437,16.4348408 127.614804,15.0803694 C128.284125,14.3640382 128.609079,13.3719363 128.609079,12.0477325 L128.609079,9.36401274 C127.740565,9.38923567 126.553006,9.69611465 125.676895,10.964828 L125.676895,12.0393248 C125.676895,12.6228153 125.476015,13.1373631 125.096198,13.5266369 C124.762804,13.8679873 124.197299,14.0655669 123.544015,14.0680892 L114.559244,14.0680892 L114.589629,13.9772866 C115.226877,12.0822038 114.32207,10.6318854 113.903428,10.0963185 C113.722804,9.86342675 113.376749,9.50021656 113.045886,9.25135032 C112.282877,8.67794904 111.211794,8.34836943 110.10695,8.34836943 L106.227758,8.34836943 C105.611611,8.76875159 105.189593,9.18072611 104.938914,9.60867516 C104.731281,9.96095541 104.63084,10.330051 104.616492,10.7983567 L110.09851,10.7991975 C110.685116,10.7991975 111.200822,10.9992994 111.591611,11.3776433 C111.976492,11.7501019 112.515831,12.9381019 111.609336,14.0428662 L111.589079,14.0680892 L88.3991706,14.0680892 C87.740822,14.0672484 87.1719413,13.8696688 86.8377028,13.5266369 C86.4578862,13.1373631 86.2570055,12.6228153 86.2570055,12.0393248 L86.2570055,5.63774522 C85.0103633,5.67053503 84.0506936,6.19601274 83.324822,7.24528662" id="Fill-73" fill="#CC1521"/>
                            <path d="M133.613794,15.5744866 C134.736363,16.507735 135.842051,16.5253911 136.910602,16.5413656 L137.448253,16.5413656 C138.834161,16.5413656 139.995556,16.4345885 141.259079,15.0801172 C141.9284,14.363786 142.25251,13.3716841 142.25251,12.0474803 L142.25251,5.63833376 C141.386528,5.66439745 140.200657,5.9721172 139.321171,7.24503439 L139.321171,12.0390726 C139.321171,12.6225631 139.119446,13.1371108 138.740473,13.5263847 C138.406235,13.8694166 137.83651,14.0678369 137.179006,14.0678369 C136.484363,14.0669962 135.918015,13.8921172 135.583776,13.5743083 C135.369391,13.3700025 135.082418,13.0379006 135.042749,12.4947669 L132.102969,12.4947669 C132.064987,13.0328561 131.798272,13.3481427 131.568694,13.5633783 C131.238675,13.8727796 130.683299,14.0543847 130.035923,14.0678369 L130.035923,16.5413656 L130.23596,16.5413656 C131.437024,16.5413656 132.442272,16.4707414 133.525171,15.5744866 L133.569061,15.537493 L133.613794,15.5744866 Z" id="Fill-75" fill="#CC1521"/>
                            <path d="M125.67622,7.28101911 L125.67622,8.06797452 L128.609248,8.06797452 L128.609248,5.68608917 C127.364294,5.72056051 126.325284,6.28471338 125.67622,7.28101911" id="Fill-77" fill="#CC1521"/>
                        </g>
                    </g>
                    <g id="Logos/UnionInsurance-Mark" transform="translate(162.055046, 1.316048)">
                        <polygon id="Fill-79" fill="#252B5F" points="38.2582422 19.8454013 33.1501321 14.7570955 38.2582422 9.66878981 43.3655083 14.7570955"/>
                        <polygon id="Fill-81" fill="#252B5F" points="56.9869945 28.3257707 45.0683523 16.4533376 39.9610862 21.5416433 46.7707743 28.3257707 39.9610862 35.1098981 45.0683523 40.1982038"/>
                        <polygon id="Fill-83" fill="#CC1521" points="31.4474569 26.6294446 26.3393468 21.5411389 31.4474569 16.4536739 36.555567 21.5411389"/>
                        <polygon id="Fill-85" fill="#CC1521" points="38.2582422 23.2376331 31.4477101 30.0217605 24.637178 23.2376331 19.5290679 28.3259389 31.4477101 40.1975312 43.3655083 28.3259389"/>
                        <polygon id="Fill-87" fill="#252B5F" points="43.3657615 41.8937732 38.2584954 36.8054675 31.4471193 43.5895949 16.1244771 28.3255185 29.7446972 14.7572637 24.6374312 9.66895796 5.90825688 28.3255185 31.4471193 53.7662064"/>
                    </g>
                </g>
            </g>
        </g>
    </g>
</svg>