<svg width="26" height="20" viewBox="0 0 26 20" fill="none" xmlns="http://www.w3.org/2000/svg">
<path d="M19.8635 0.000714319H6.13654C5.72454 0.000338504 5.31651 0.0812081 4.9358 0.238695C4.55508 0.396182 4.20916 0.627196 3.91783 0.918515C3.6265 1.20983 3.39548 1.55574 3.23799 1.93644C3.0805 2.31714 2.99963 2.72516 3 3.13714V16.8636C2.99963 17.2756 3.0805 17.6836 3.23799 18.0643C3.39548 18.445 3.6265 18.7909 3.91783 19.0822C4.20916 19.3735 4.55508 19.6045 4.9358 19.762C5.31651 19.9195 5.72454 20.0004 6.13654 20H19.8635C20.6899 19.9987 21.4825 19.6719 22.0696 19.0903C22.6567 18.5087 22.991 17.7192 23 16.8929C20.9478 15.7493 18.0627 14.1993 15.339 12.945C13.9075 14.9079 11.5832 16.5614 8.70378 16.5614C5.55224 16.5614 4.51934 14.5393 4.37148 13.1521C4.19433 11.4107 5.03579 9.51357 8.81449 9.51357C10.3938 9.51357 12.3568 9.97143 14.4904 10.6279C15.2283 9.28429 15.6712 7.93429 15.6712 7.93429H7.71588V7.18857H11.8267V5.79357H6.94086V4.945H11.8267V2.69429H14.1004V4.945H18.9863V5.79357H14.0997V7.18857H18.0627C18.0627 7.18857 17.3841 9.27 16.3505 11.2471C18.5348 11.9929 20.8149 12.8557 22.9857 13.6014V3.13643C22.987 2.72538 22.9073 2.31811 22.751 1.93791C22.5947 1.55772 22.365 1.21208 22.075 0.920759C21.785 0.629439 21.4404 0.398164 21.0609 0.240169C20.6814 0.0821747 20.2745 0.000561365 19.8635 0V0.000714319ZM5.11008 12.9893C5.15436 13.89 5.56795 15.3879 8.23233 15.3879C10.5567 15.3879 12.3653 13.6164 13.4947 12.1336C11.5024 11.3 9.7231 10.7314 8.60877 10.7314C5.59724 10.7314 5.06579 12.2071 5.11079 12.9893H5.11008Z" fill="white"/>
</svg>
