<svg width="159" height="126" viewBox="0 0 159 126" fill="none" xmlns="http://www.w3.org/2000/svg">
  <g clip-path="url(#clip0)">
    <path
      d="M69.264 10.6867C70.9371 10.8078 72.9752 10.1115 74.5265 9.08218C74.3744 9.11245 74.2223 9.11245 74.0702 9.11245C72.8839 9.14273 71.8801 8.11341 71.515 6.81163C71.4542 6.56944 71.4846 6.32725 71.6063 6.11533C71.728 5.87314 71.7888 5.60068 71.728 5.29794C71.6367 4.84383 71.2413 4.45027 70.785 4.35944C69.9941 4.20807 69.3249 4.81356 69.3249 5.54013C69.3249 6.05479 69.6595 6.5089 70.1462 6.69054C70.3591 6.78136 70.5721 6.90245 70.6937 7.11437C70.9371 7.62903 71.0283 8.17396 71.0283 8.53724C70.9979 9.59683 70.2679 10.4748 69.264 10.6867ZM70.8458 5.5704C70.6329 5.5704 70.4504 5.38876 70.4504 5.17684C70.4504 4.96493 70.6329 4.78328 70.8458 4.78328C71.0588 4.78328 71.2413 4.96493 71.2413 5.17684C71.2413 5.38876 71.0588 5.5704 70.8458 5.5704Z"
      fill="white"/>
    <path
      d="M76.0779 22.433C75.9562 22.5238 75.865 22.5843 75.8041 22.6449C76.8079 19.678 75.9562 15.8332 73.3402 14.7737C72.4276 14.4104 71.3934 14.3498 70.4504 14.4709C69.5378 14.592 68.5948 14.925 67.956 15.5911C67.2868 16.2874 66.9218 17.3167 67.1651 18.2552C67.3781 19.1634 68.1385 19.8597 69.0815 19.9808C69.9637 20.1019 70.8762 19.5872 71.2109 18.7395C71.515 17.9222 71.1804 16.9231 70.3591 16.5598C69.9637 16.3782 69.477 16.3782 69.0815 16.5901C68.899 16.6809 68.7469 16.8323 68.6252 16.9837C68.5644 17.0442 68.4123 17.3772 68.534 17.4378C68.6252 17.468 68.8686 17.2561 68.9598 17.1956C69.1728 17.1048 69.3857 17.0442 69.6291 17.0745C70.0245 17.1653 70.2983 17.468 70.3591 17.8616C70.3895 18.2854 70.0854 18.679 69.6899 18.7698C69.264 18.8909 68.7773 18.6487 68.534 18.2854C68.0169 17.4983 68.6252 16.469 69.2945 16.0149C70.0549 15.5305 71.0283 15.3489 71.9409 15.3791C75.6824 15.5002 76.6254 20.0111 75.287 23.0384C74.9828 23.2806 74.6178 23.5834 74.1919 23.8861C74.344 23.5834 74.4657 23.2806 74.5874 22.9476C75.1045 21.3128 75.1349 19.4056 74.1615 17.9222C73.9181 17.5589 73.6444 17.2561 73.3098 16.9837C74.8003 18.2552 75.0132 20.3441 74.4961 22.1302C74.0702 23.5531 73.1273 25.1576 71.515 25.3998C70.7546 25.5209 69.842 25.3393 69.3249 24.643C68.9294 24.0678 68.8686 23.3109 69.2336 22.7054C69.5378 22.1908 70.1158 21.7669 70.7546 21.8578C71.4238 21.9486 71.6367 22.4027 71.5455 22.9476C71.515 23.0384 71.5759 23.1293 71.6671 23.1595C71.7584 23.1898 71.8801 23.1293 71.9105 23.0384C72.8231 20.5257 70.2983 19.7083 68.3819 20.1624C65.4921 20.7982 63.454 23.0687 60.8988 24.3705C60.4425 23.9769 60.0471 23.4925 59.7733 22.9779C59.317 22.1302 59.0128 21.1009 59.0433 20.1019C59.0433 20.3138 59.0433 20.011 59.0433 20.1019C59.0128 19.5569 59.1345 18.9515 59.4387 18.4671C59.8037 17.8313 60.473 17.3772 61.203 17.2259C62.1156 17.0139 63.1194 17.2258 63.7278 17.9524C64.2753 18.6184 64.3057 19.5872 63.6974 20.223C63.3628 20.556 62.9065 20.7376 62.4502 20.6771C62.2068 20.6468 61.9635 20.556 61.7506 20.4349C61.6593 20.3743 61.568 20.3138 61.4768 20.223C61.4159 20.1927 61.2943 20.0413 61.2334 20.0716C61.1118 20.1321 61.2638 20.4652 61.3247 20.5257C61.4464 20.7073 61.5985 20.889 61.7506 21.0101C62.1156 21.2826 62.5719 21.4339 63.0282 21.4037C63.7886 21.4037 64.4578 20.9193 64.8533 20.3138C65.34 19.5267 65.3704 18.5579 64.975 17.7405C64.5795 16.8928 63.7886 16.2571 62.8761 16.0149C61.2943 15.5911 59.4387 16.2268 58.5566 17.6194C57.7657 18.8304 57.8569 20.4046 58.2828 21.7367C58.6478 22.8568 59.2866 23.9467 60.1688 24.7035C60.0167 24.7641 59.8646 24.8246 59.7125 24.8852C58.3132 25.3998 56.8227 25.5512 55.3626 25.2787C53.9633 25.0062 52.2598 24.2797 52.0773 22.6752C52.0165 22.221 52.1382 21.7367 52.4423 21.4037C52.7465 21.0706 53.2028 20.889 53.6591 20.9193C54.5108 20.9798 55.3321 21.8578 54.9367 22.7054C54.6629 23.3109 53.8416 23.5531 53.3853 22.9779C53.2028 22.766 53.1724 22.4632 53.2941 22.1908C53.3549 22.0697 53.4462 21.9486 53.5374 21.8275C53.5678 21.7972 53.7808 21.6761 53.7504 21.6458C53.7199 21.5247 53.3853 21.7064 53.3245 21.7367C53.142 21.8578 53.0203 22.0091 52.929 22.1908C52.7465 22.5843 52.8074 23.0384 53.1116 23.3715C53.7199 24.098 54.8454 23.9467 55.393 23.2201C55.9405 22.4935 55.7884 21.4642 55.1801 20.8284C54.6021 20.1927 53.6287 19.9505 52.8074 20.223C51.9252 20.5257 51.3168 21.3128 51.256 22.221C51.2256 22.4632 51.256 22.7054 51.2864 22.9174L51.256 22.8871L48.062 20.0413L47.697 24.2797C47.2711 29.4868 47.1799 34.9361 47.5449 40.3854C47.6666 42.2624 47.8491 44.1091 48.062 45.9861C48.3358 48.2869 48.6704 50.2244 49.0963 52.4949C49.2788 53.494 49.4917 54.493 49.7351 55.4921C49.8263 55.9462 49.948 56.4003 50.0697 56.8241C50.1305 57.0966 50.2218 57.369 50.2826 57.6718C50.3434 57.8837 50.4043 58.1259 50.4651 58.3378C50.4955 58.4892 50.5868 58.7314 50.6172 58.8827C51.5906 62.3037 52.777 65.6641 54.2371 68.9034C56.0318 72.9298 58.2524 76.7444 60.8988 80.2561C61.8418 81.5276 63.1498 83.011 64.6708 84.4642C65.9484 85.7054 67.4085 86.9164 68.9294 87.9457C70.2983 88.8842 71.7584 89.7016 73.2185 90.2768C74.5569 90.8217 75.9258 91.1547 77.2947 91.2456H77.3251H77.538H77.5684C78.9373 91.1547 80.3061 90.8217 81.6446 90.2768C83.1351 89.7016 84.5648 88.8842 85.9336 87.9457C87.4546 86.8861 88.9147 85.6752 90.1923 84.4642C91.7133 83.011 93.0213 81.5276 93.9643 80.2561C96.6107 76.7444 98.8313 72.8996 100.626 68.9034C102.542 64.6045 104.033 60.0937 105.098 55.4921C105.463 53.9178 105.797 52.3133 106.071 50.7088C106.162 50.285 106.223 49.8006 106.254 49.5887C106.74 46.5613 107.075 43.4733 107.288 40.4157C107.653 34.9664 107.562 29.5473 107.136 24.3099L106.771 20.0716L103.577 22.9174L103.546 22.9476C103.577 22.7054 103.607 22.4935 103.577 22.2513C103.485 21.3431 102.907 20.556 102.025 20.2532C101.204 19.9808 100.231 20.223 99.6526 20.8587C99.0442 21.4945 98.8921 22.5238 99.4397 23.2504C99.9872 23.9769 101.113 24.1283 101.721 23.4017C101.995 23.0687 102.086 22.6146 101.904 22.221C101.812 22.0394 101.691 21.8578 101.508 21.7669C101.478 21.7367 101.113 21.5853 101.082 21.6761C101.082 21.7367 101.265 21.8578 101.295 21.8578C101.386 21.9486 101.478 22.0697 101.539 22.221C101.63 22.4935 101.63 22.7963 101.447 23.0082C100.991 23.5531 100.17 23.3412 99.896 22.7357C99.5005 21.888 100.322 21.0101 101.174 20.9495C101.63 20.9193 102.086 21.1009 102.39 21.4339C102.695 21.7669 102.816 22.2513 102.755 22.7054C102.573 24.3099 100.839 25.0365 99.4701 25.309C98.01 25.5815 96.5194 25.4604 95.1202 24.9154C94.9681 24.8549 94.816 24.7943 94.6639 24.7338C95.5765 23.9769 96.1848 22.8871 96.5499 21.7669C96.9757 20.4349 97.067 18.8606 96.2761 17.6497C95.3939 16.2571 93.5384 15.6213 91.9566 16.0452C91.044 16.2874 90.2531 16.9231 89.8577 17.7708C89.4622 18.5882 89.4927 19.5569 89.9794 20.3441C90.3748 20.9798 91.044 21.4339 91.8045 21.4339C92.2608 21.4339 92.7171 21.3128 93.0821 21.0404C93.2646 20.9193 93.4167 20.7376 93.508 20.556C93.5384 20.4954 93.7209 20.1624 93.5992 20.1019C93.5384 20.0716 93.3863 20.223 93.3559 20.2532C93.2646 20.3138 93.1734 20.4046 93.0821 20.4652C92.8692 20.5863 92.6258 20.6771 92.3825 20.7073C91.8958 20.7679 91.4699 20.6165 91.1353 20.2532C90.5269 19.6175 90.5573 18.6487 91.1049 17.9827C91.7133 17.2259 92.7475 17.0442 93.6296 17.2561C94.3597 17.4378 95.0289 17.8616 95.394 18.4974C95.6677 18.9817 95.7894 19.5872 95.7894 20.1321C95.7894 20.0413 95.7894 20.3441 95.7894 20.1321C95.7894 21.1009 95.4852 22.1302 95.0593 23.0082C94.7856 23.5531 94.3901 24.0375 93.9338 24.4008C91.3786 23.0687 89.3406 20.8285 86.4508 20.1927C84.5039 19.7689 82.0096 20.5863 82.9222 23.0687C82.9526 23.1595 83.0743 23.2201 83.1655 23.1898C83.2568 23.1595 83.3176 23.0687 83.2872 22.9779C83.1959 22.4027 83.4393 21.9486 84.0781 21.888C84.7169 21.8275 85.2948 22.221 85.599 22.7357C85.9336 23.3412 85.9032 24.098 85.5078 24.6732C84.9907 25.3695 84.0781 25.5512 83.3176 25.4301C81.7054 25.1576 80.7624 23.5834 80.3366 22.1605C79.8194 20.3743 80.0324 18.2854 81.5229 17.0139C81.1883 17.2864 80.8841 17.6194 80.6712 17.9524C79.6977 19.4358 79.7282 21.3431 80.2453 22.9779C80.3365 23.3109 80.4886 23.6136 80.6407 23.9164C80.2149 23.5834 79.8498 23.3109 79.5457 23.0687C78.2072 20.0413 79.1502 15.5305 82.8917 15.4094C83.7739 15.3791 84.7777 15.5305 85.5382 16.0452C86.2074 16.4993 86.8158 17.5286 86.2987 18.3157C86.0553 18.679 85.599 18.9212 85.1427 18.8001C84.7473 18.679 84.4127 18.3157 84.4735 17.8919C84.5039 17.4983 84.8081 17.1653 85.2036 17.1048C85.4165 17.0745 85.6599 17.135 85.8728 17.2259C85.9641 17.2561 86.2074 17.4983 86.2987 17.468C86.4508 17.4075 86.2683 17.0745 86.2074 17.0139C86.0857 16.8323 85.9336 16.7112 85.7511 16.6204C85.3557 16.4085 84.869 16.4085 84.4735 16.5901C83.6826 16.9534 83.3176 17.9827 83.6218 18.7698C83.9564 19.6175 84.869 20.1321 85.7511 20.0111C86.6941 19.89 87.4546 19.1937 87.6675 18.2854C88.1846 16.1965 86.2378 14.7131 84.3823 14.5012C83.4393 14.3801 82.3746 14.4407 81.4925 14.8039C78.8764 15.8635 78.0247 19.7083 79.0285 22.6752C78.9677 22.6146 78.8764 22.5541 78.7548 22.4632L77.4468 21.3431L76.0779 22.433ZM83.8043 21.0101C84.4431 20.4046 85.599 20.2835 86.3595 20.4652C89.2189 21.1009 91.0744 23.3715 93.4776 24.7943C93.295 24.8851 93.1125 25.0062 92.93 25.0668C91.987 25.4301 90.9832 25.2787 90.2227 24.6732C88.3976 23.3109 86.7854 19.6478 83.8043 21.0101ZM86.2987 24.976C86.755 24.1586 86.7245 23.1293 86.2074 22.3421C85.7511 21.6761 84.9298 21.1917 84.1085 21.3128C86.3291 19.9505 88.2455 23.6136 89.9185 25.0062C90.8919 25.8236 92.0783 26.0356 93.295 25.6117C93.5992 25.4906 93.9034 25.3393 94.1772 25.1576C95.3635 25.7631 96.6107 26.1869 97.9796 26.2172C98.3446 26.2172 98.74 26.2172 99.1355 26.1869C94.9985 28.3969 91.1961 28.4575 88.0326 27.6703C86.6941 27.3373 85.4469 26.853 84.3519 26.308C85.1732 26.1567 85.8728 25.7025 86.2987 24.976ZM76.6559 5.90341C76.8688 5.84286 77.0209 5.75204 77.0817 5.50985C76.6254 4.78328 75.865 4.35944 75.865 4.35944C76.3821 4.35944 76.6863 4.51081 76.9296 4.69246C76.7471 4.14753 76.595 3.6026 76.3517 3.36041C76.808 3.39068 77.2947 2.39164 77.4163 2.0889C77.538 2.39164 78.0247 3.39068 78.481 3.36041C78.2376 3.6026 78.0551 4.14753 77.903 4.69246C78.1464 4.51081 78.4202 4.35944 78.9677 4.35944C78.9677 4.35944 78.1768 4.78328 77.7509 5.50985C77.8422 5.72177 77.9639 5.81259 78.1768 5.87314C78.0247 5.90341 77.8726 5.90341 77.7205 5.84286C77.6901 5.93369 77.6293 5.99423 77.538 6.02451L77.4468 6.50889C77.4468 6.50889 77.4163 6.32724 77.3555 6.02451C77.2642 5.99423 77.173 5.93369 77.1426 5.84286C76.96 5.93369 76.808 5.93369 76.6559 5.90341ZM76.4125 16.2874C76.3517 16.2874 76.2908 16.2874 76.23 16.3176C76.1996 16.3176 76.1996 16.3176 76.1691 16.3176C76.1387 16.3176 76.1083 16.3176 76.0779 16.3176C76.0171 16.3176 75.9866 16.3176 75.9562 16.3176C75.9258 16.3176 75.8954 16.3176 75.865 16.2874C75.8041 16.2874 75.7737 16.2571 75.7737 16.2571C75.7737 16.2571 75.8041 16.2571 75.865 16.2268C75.8954 16.2268 75.9258 16.1965 75.9562 16.1965C75.9866 16.1965 76.0171 16.1663 76.0779 16.136C76.1083 16.1057 76.1692 16.1057 76.1996 16.0754C76.23 16.0452 76.2908 16.0149 76.3212 15.9846C76.3517 15.9543 76.4125 15.9241 76.4429 15.8938C76.4733 15.8635 76.5038 15.8333 76.5342 15.7727C76.6254 15.6516 76.6863 15.5305 76.7471 15.4094C75.8041 13.8654 74.1311 12.9572 74.1311 12.9572C75.2566 12.9572 75.8954 13.2902 76.3821 13.6535C76.0171 12.4729 75.6824 11.3527 75.1349 10.8078C75.2566 10.8078 76.3212 10.7472 77.3859 8.05286C78.4506 10.717 79.5152 10.8078 79.6369 10.8078C79.0894 11.3527 78.7548 12.4729 78.3897 13.6535C78.8764 13.26 79.5152 12.9572 80.6407 12.9572C80.6407 12.9572 78.9677 13.8654 78.0247 15.4397C78.0551 15.5608 78.116 15.6819 78.2072 15.7727C78.2376 15.803 78.2681 15.8635 78.2985 15.8938C78.3289 15.9241 78.3897 15.9543 78.4202 15.9846C78.4506 16.0149 78.5114 16.0452 78.5418 16.0754C78.5722 16.1057 78.6331 16.1057 78.6635 16.136C78.6939 16.1663 78.7243 16.1663 78.7852 16.1965C78.8156 16.1965 78.846 16.2268 78.8764 16.2268C78.9373 16.2268 78.9677 16.2571 78.9677 16.2571C78.9677 16.2571 78.9373 16.2571 78.8764 16.2874C78.846 16.2874 78.8156 16.2874 78.7852 16.3176C78.7548 16.3176 78.6939 16.3176 78.6635 16.3176C78.6331 16.3176 78.6027 16.3176 78.5722 16.3176C78.5418 16.3176 78.5418 16.3176 78.5114 16.3176C78.4506 16.3176 78.3897 16.3176 78.3289 16.2874C78.2681 16.2874 78.2072 16.2571 78.1464 16.2571C78.0855 16.2268 78.0247 16.2268 77.9943 16.1965C77.9639 16.2874 77.903 16.3782 77.8118 16.469C77.7509 16.5296 77.6597 16.5901 77.5684 16.5901C77.4467 17.1956 77.3859 17.6194 77.3859 17.6194C77.3859 17.6194 77.3251 17.2259 77.2034 16.6204C77.1121 16.5901 77.0209 16.5598 76.96 16.4993C76.8688 16.4387 76.8079 16.3176 76.7775 16.2268C76.7167 16.2571 76.6559 16.2571 76.6254 16.2874C76.5342 16.2571 76.4733 16.2571 76.4125 16.2874ZM68.4123 20.4349C69.1424 20.2532 70.3287 20.3743 70.9675 20.9798C67.9864 19.6175 66.3742 23.2806 64.5491 24.643C63.7582 25.2182 62.7848 25.3695 61.8418 25.0365C61.6593 24.976 61.4768 24.8851 61.2943 24.7641C63.7278 23.3715 65.5529 21.1009 68.4123 20.4349ZM56.7923 26.2475C58.1611 26.2172 59.4083 25.7934 60.5946 25.1879C60.8684 25.3695 61.1422 25.5209 61.4768 25.642C62.6935 26.0658 63.8799 25.8539 64.8533 25.0365C66.5568 23.6439 68.4427 19.9808 70.6633 21.3431C69.842 21.222 69.0207 21.7064 68.5644 22.3724C68.0473 23.1595 68.0169 24.1889 68.4732 25.0062C68.899 25.7631 69.5987 26.1869 70.42 26.3383C69.3249 26.8832 68.0777 27.3676 66.7393 27.7006C63.5757 28.4877 59.7733 28.4272 55.6363 26.2172C56.0318 26.2475 56.4272 26.2475 56.7923 26.2475ZM104.063 55.4012C102.999 59.9726 101.539 64.4229 99.6526 68.631C97.8883 72.5968 95.6981 76.3205 93.1125 79.802C92.2 81.013 90.9528 82.4661 89.4622 83.8587C88.2151 85.0394 86.8158 86.2201 85.3253 87.2494C84.0173 88.1576 82.618 88.9145 81.2187 89.4594C79.9715 89.9438 78.7243 90.2768 77.4772 90.3676H77.2642C76.0171 90.2768 74.7699 89.974 73.5227 89.4594C72.1234 88.9145 70.7546 88.1273 69.4161 87.2494C67.9256 86.2504 66.5263 85.0697 65.2792 83.8587C63.7886 82.4358 62.5414 81.013 61.6289 79.802C59.0433 76.3508 56.8531 72.5968 55.0888 68.631C53.2028 64.4229 51.7427 59.9726 50.678 55.4012C49.5221 50.4969 48.8225 45.4714 48.5183 40.4762C48.1533 35.0875 48.2445 29.6987 48.6704 24.5219L48.8529 22.4027L50.4347 23.8256C56.6097 29.3354 62.3589 29.8501 66.9522 28.6997C71.515 27.5492 74.8611 24.7943 76.1996 23.6439C76.3517 23.5228 76.5038 23.4017 76.6863 23.2504L77.3251 22.7357L77.9639 23.2504C78.1464 23.4017 78.2681 23.4926 78.4202 23.6439C79.789 24.7641 83.1351 27.5492 87.6675 28.6997C92.2608 29.8501 98.0404 29.3354 104.185 23.8256L105.767 22.4027L105.949 24.5219C106.375 29.6987 106.466 35.0875 106.101 40.4762C105.919 45.4714 105.219 50.4969 104.063 55.4012Z"
      fill="#1890FF"/>
    <path
      d="M89.8881 6.93272C89.7056 7.08409 89.5535 7.23546 89.4014 7.41711C89.2493 6.99327 88.8843 6.69054 88.3976 6.69054C87.8196 6.69054 87.3329 7.14464 87.3329 7.71985C87.3329 8.29505 87.7892 8.77943 88.3976 8.77943C88.428 8.77943 88.2151 9.20327 88.0325 9.47573C86.0249 12.5637 78.0551 9.23354 77.9334 6.23643C78.2376 6.35752 78.5722 6.41807 78.9068 6.35752C79.5456 6.23642 80.0324 5.69149 80.1236 5.05574C80.2757 4.11725 79.5761 3.33013 78.6939 3.26958C78.6939 3.17876 78.6939 3.08794 78.6939 2.96684C78.6939 1.78616 78.1768 0.726574 77.3555 0C76.5342 0.726574 76.017 1.78616 76.017 2.96684C76.017 3.05767 76.017 3.17876 76.017 3.26958C75.1349 3.33013 74.4353 4.14752 74.5874 5.05574C74.6786 5.69149 75.1957 6.20615 75.8041 6.35752C76.1691 6.41807 76.5038 6.3878 76.7775 6.23643C76.6558 9.14272 68.8686 12.8664 66.6784 9.47573C66.4959 9.20327 66.3134 8.77943 66.3134 8.77943C66.8914 8.77943 67.3781 8.29505 67.3781 7.71985C67.3781 7.14464 66.8914 6.69054 66.3134 6.69054C65.8571 6.69054 65.4617 6.99327 65.3096 7.41711C65.1575 7.23546 65.0054 7.08409 64.8229 6.93272C64.3666 6.53916 63.7886 6.23642 63.1802 6.17588L67.8952 15.258C68.1994 14.9856 68.534 14.8039 68.8686 14.6223C69.3553 14.4104 69.842 14.2893 70.3591 14.2287C70.8762 14.1682 71.4238 14.1379 71.9713 14.1985C72.458 14.259 72.9447 14.3498 73.401 14.5618C74.5569 15.0461 75.3782 15.9846 75.865 17.1956C76.3212 18.3157 76.5038 19.6478 76.3821 20.9193C76.3517 21.3431 76.23 21.9486 76.1083 22.3724L77.3251 21.3734L78.5418 22.3724C78.4201 21.888 78.3289 21.4037 78.268 20.9193C78.1464 19.6175 78.3289 18.3157 78.7852 17.1956C79.2719 16.0149 80.1236 15.0461 81.2491 14.5618C81.7054 14.3801 82.1921 14.259 82.6788 14.1985C83.2263 14.1379 83.7739 14.1682 84.291 14.2287C84.8081 14.2893 85.2948 14.4104 85.7815 14.6223C86.1466 14.7737 86.4812 14.9856 86.7549 15.258L91.4395 6.17588C90.9224 6.23642 90.3444 6.53916 89.8881 6.93272ZM66.1917 7.20519C66.1917 7.05382 66.3134 6.93272 66.4655 6.93272C66.6176 6.93272 66.7393 7.05382 66.7393 7.20519C66.7393 7.35656 66.6176 7.47765 66.4655 7.47765C66.3134 7.47765 66.1917 7.35656 66.1917 7.20519ZM88.3063 7.47765C88.1542 7.47765 88.0325 7.35656 88.0325 7.20519C88.0325 7.05382 88.1542 6.93272 88.3063 6.93272C88.4584 6.93272 88.5801 7.05382 88.5801 7.20519C88.5801 7.35656 88.4584 7.47765 88.3063 7.47765Z"
      fill="white"/>
    <path
      d="M76.7776 16.1965C76.808 16.3176 76.8688 16.4085 76.9601 16.469C77.0209 16.5295 77.1122 16.5901 77.2034 16.5901C77.3251 17.1956 77.3859 17.5891 77.3859 17.5891C77.3859 17.5891 77.4468 17.1956 77.5684 16.5598C77.6597 16.5296 77.7205 16.469 77.8118 16.4387C77.9031 16.3782 77.9639 16.2874 77.9943 16.1663C78.0551 16.1965 78.116 16.1965 78.1464 16.2268C78.2072 16.2571 78.2681 16.2571 78.3289 16.2571C78.3898 16.2571 78.4506 16.2571 78.5114 16.2874C78.5419 16.2874 78.5419 16.2874 78.5723 16.2874C78.6027 16.2874 78.6331 16.2874 78.6635 16.2874C78.7244 16.2874 78.7548 16.2874 78.7852 16.2874C78.8156 16.2874 78.846 16.2874 78.8765 16.2571C78.9373 16.2571 78.9677 16.2268 78.9677 16.2268C78.9677 16.2268 78.9373 16.2268 78.8765 16.1965C78.846 16.1965 78.8156 16.1663 78.7852 16.1663C78.7548 16.1663 78.7244 16.136 78.6635 16.1057C78.6331 16.0754 78.5723 16.0754 78.5418 16.0452C78.5114 16.0149 78.4506 15.9846 78.4202 15.9543C78.3898 15.9241 78.3289 15.8938 78.2985 15.8635C78.2681 15.8332 78.2377 15.803 78.2072 15.7424C78.116 15.6213 78.0552 15.5002 78.0247 15.4094C78.9677 13.8352 80.6408 12.927 80.6408 12.927C79.5153 12.927 78.8765 13.26 78.3898 13.6233C78.7548 12.4426 79.0894 11.3224 79.6369 10.7775C79.5153 10.7775 78.4506 10.717 77.3859 8.02258C76.3213 10.6867 75.2566 10.7775 75.1349 10.7775C75.6825 11.3224 76.0171 12.4426 76.3821 13.6233C75.8954 13.2297 75.2566 12.927 74.1311 12.927C74.1311 12.927 75.7737 13.8352 76.7471 15.3791C76.7167 15.5002 76.6559 15.6213 76.5342 15.7424C76.5038 15.7727 76.4734 15.8332 76.4429 15.8635C76.4125 15.8938 76.3517 15.9241 76.3213 15.9543C76.2909 15.9846 76.23 16.0149 76.1996 16.0452C76.1692 16.0754 76.1083 16.0754 76.0779 16.1057C76.0475 16.136 76.0171 16.136 75.9562 16.1663C75.9258 16.1663 75.8954 16.1965 75.865 16.1965C75.8041 16.1965 75.7737 16.2268 75.7737 16.2268C75.7737 16.2268 75.8041 16.2268 75.865 16.2571C75.8954 16.2571 75.9258 16.2571 75.9562 16.2874C75.9867 16.2874 76.0475 16.2874 76.0779 16.2874C76.1083 16.2874 76.1388 16.2874 76.1692 16.2874C76.1996 16.2874 76.1996 16.2874 76.23 16.2874C76.2909 16.2874 76.3517 16.2874 76.4125 16.2571C76.4734 16.2571 76.5342 16.2268 76.595 16.2268C76.6559 16.2268 76.7167 16.1965 76.7776 16.1965Z"
      fill="#1890FF"/>
    <path
      d="M77.1121 5.87313C77.1425 5.96395 77.2338 6.05478 77.3251 6.05478C77.3859 6.32724 77.4163 6.53916 77.4163 6.53916L77.5076 6.05478C77.5988 6.0245 77.6597 5.96395 77.6901 5.87313C77.8422 5.93368 77.9639 5.93368 78.1464 5.90341C77.9334 5.84286 77.8118 5.75204 77.7205 5.54012C78.1768 4.81355 78.9373 4.38971 78.9373 4.38971C78.4201 4.38971 78.116 4.54109 77.8726 4.72273C78.0551 4.1778 78.2072 3.63287 78.4506 3.39067C77.9943 3.42095 77.5076 2.42191 77.3859 2.11917C77.2642 2.42191 76.7775 3.42095 76.3212 3.39067C76.5646 3.63287 76.7471 4.1778 76.8992 4.72273C76.6558 4.54109 76.3821 4.38971 75.8345 4.38971C75.8345 4.38971 76.595 4.81355 77.0513 5.54012C76.96 5.75204 76.8384 5.84286 76.6254 5.93368C76.8079 5.93368 76.96 5.93368 77.1121 5.87313Z"
      fill="#1890FF"/>
    <path
      d="M83.7739 8.53725C83.7739 8.17396 83.8347 7.62903 84.1085 7.11438C84.2302 6.90246 84.4127 6.75109 84.656 6.69055C85.1427 6.53918 85.4773 6.08507 85.4773 5.54014C85.4773 4.78329 84.8081 4.20808 84.0172 4.35945C83.5609 4.45027 83.1655 4.81356 83.0742 5.29794C83.0134 5.60068 83.0742 5.87315 83.1959 6.11534C83.3176 6.32726 83.348 6.56945 83.2872 6.81164C82.9526 8.11342 81.9183 9.14273 80.732 9.11246C80.6103 9.11246 80.4886 9.11246 80.3669 9.08218C81.7966 9.96012 83.6218 10.5656 85.2036 10.5656C84.3518 10.2629 83.7739 9.47574 83.7739 8.53725ZM83.5913 5.17685C83.5913 4.96493 83.7739 4.78329 83.9868 4.78329C84.1997 4.78329 84.3822 4.96493 84.3822 5.17685C84.3822 5.38877 84.1997 5.57041 83.9868 5.57041C83.7739 5.57041 83.5913 5.38877 83.5913 5.17685Z"
      fill="white"/>
    <path
      d="M49.4613 59.6093C49.4613 59.6093 49.7655 58.7616 50.4043 58.4892C50.3435 58.2773 50.2826 58.0351 50.2218 57.8232C49.4005 58.0653 49.218 59.1249 49.4613 59.6093Z"
      fill="#081E4F"/>
    <path
      d="M47.6362 49.74C47.6362 49.74 47.6057 48.7107 48.2445 48.1052C48.1533 47.4997 48.062 46.864 48.0012 46.2585C47.8187 46.4099 47.6057 46.7429 47.8491 47.3181C47.8795 47.3181 46.6932 48.2566 47.6362 49.74Z"
      fill="#081E4F"/>
    <path
      d="M50.7084 55.4012C51.7731 59.9726 53.2332 64.4229 55.1192 68.6309C56.8835 72.5968 59.0737 76.3205 61.6593 79.802C62.5718 81.013 63.819 82.4661 65.3096 83.8587C66.5567 85.0394 67.956 86.2201 69.4465 87.2494C70.7545 88.1576 72.1538 88.9145 73.5531 89.4594C74.8003 89.9438 76.0475 90.2768 77.2946 90.3676H77.5076C78.7547 90.2768 80.0019 89.974 81.2491 89.4594C82.6484 88.9145 84.0172 88.1273 85.3557 87.2494C86.8462 86.2504 88.2455 85.0697 89.4926 83.8587C90.9832 82.4358 92.2303 81.013 93.1429 79.802C95.7285 76.3508 97.9187 72.5968 99.683 68.6309C101.569 64.4229 103.029 59.9726 104.094 55.4012C105.25 50.4969 105.949 45.4714 106.253 40.4762C106.619 35.0875 106.527 29.6987 106.101 24.5219L105.919 22.4027L104.337 23.8256C98.1621 29.3354 92.4129 29.8501 87.8196 28.6996C83.2567 27.5492 79.9107 24.7943 78.5722 23.6439C78.4201 23.5228 78.2985 23.4017 78.1159 23.2503L77.4771 22.7357L76.8384 23.2503C76.6558 23.4017 76.5342 23.4925 76.3516 23.6439C74.9828 24.764 71.6367 27.5492 67.1043 28.6996C62.511 29.8501 56.7314 29.3354 50.5868 23.8256L49.005 22.4027L48.8225 24.5219C48.3966 29.6987 48.3053 35.0875 48.6704 40.4762C48.8833 45.4714 49.5829 50.4969 50.7084 55.4012ZM77.9334 25.8842C79.7586 27.3373 83.0742 29.7895 87.3937 30.8491C91.8349 31.9692 97.3407 31.6362 103.333 27.3071L104.124 26.7318L104.185 27.7006C104.428 32.3022 104.398 37.025 104.033 41.7477C103.668 46.1677 103.029 50.5877 102.025 54.8866L101.964 55.1893H77.9638V25.8842H77.9334ZM77.9334 56.2186H101.66C100.656 60.1542 99.3484 63.999 97.7058 67.6924C96.0023 71.507 93.9034 75.1398 91.3786 78.47C90.5269 79.6204 89.3405 80.9524 87.9717 82.2845C86.8158 83.4046 85.4773 84.4945 84.1085 85.4632C82.983 86.2201 81.7966 86.9164 80.6407 87.4008C79.7282 87.764 78.8156 88.0365 77.9334 88.1576V56.2186ZM76.8688 88.1273C75.9866 88.0062 75.074 87.7338 74.1615 87.3705C72.9751 86.8861 71.8192 86.2201 70.6937 85.433C69.2944 84.4945 67.9864 83.3743 66.8305 82.2542C65.4617 80.9524 64.2753 79.5901 63.4236 78.4397C60.9292 75.1096 58.8303 71.4767 57.0964 67.6622C55.4538 63.999 54.1458 60.1542 53.142 56.1884H76.8688V88.1273ZM50.6172 27.7006L50.678 26.7318L51.4689 27.3071C57.431 31.6362 62.9369 31.9692 67.4085 30.8491C71.728 29.7592 75.074 27.3373 76.8688 25.8842V55.1893H52.8682L52.8074 54.8866C51.8035 50.5877 51.1343 46.1677 50.7997 41.7477C50.4043 37.025 50.3738 32.3022 50.6172 27.7006Z"
      fill="white"/>
    <path
      d="M101.995 54.8866C102.999 50.5877 103.668 46.1677 104.002 41.7477C104.368 37.025 104.398 32.3023 104.155 27.7006L104.094 26.7319L103.303 27.3071C97.3407 31.6362 91.8349 31.9692 87.3633 30.8491C83.0438 29.7592 79.6977 27.3373 77.903 25.8842V55.1893H101.904L101.995 54.8866ZM93.4775 48.1961C92.2912 49.3767 90.6486 50.1033 88.8538 50.1033C87.0591 50.1033 85.4165 49.3767 84.2302 48.1961C83.0438 47.0154 82.3138 45.3806 82.3138 43.5944C82.3138 41.8083 83.0438 40.1735 84.2302 38.9928C85.4165 37.8121 87.0591 37.0855 88.8538 37.0855C90.6486 37.0855 92.2912 37.8121 93.4775 38.9928C94.6639 40.1735 95.3939 41.8083 95.3939 43.5944C95.3939 45.3806 94.6639 47.0154 93.4775 48.1961Z"
      fill="#1890FF"/>
    <path
      d="M97.6754 94.7271C97.797 92.5776 96.2152 91.185 95.4548 90.7309C94.4205 90.1254 92.6562 90.186 91.8653 90.7915C90.1619 92.0327 90.1923 95.4234 92.8083 95.5142C93.6296 95.5445 94.5726 94.9692 94.8464 94.3335C95.2723 93.2436 94.5118 92.9106 94.2076 92.8501C92.9908 92.6079 93.0821 94.3032 92.1695 93.5161C91.6828 93.1225 92.0478 92.1538 92.5954 91.6997C93.1429 91.2758 93.9947 91.185 94.7856 91.4575C96.0327 91.9116 96.9453 93.2436 96.8845 94.5757C96.8236 95.9078 95.7894 97.149 94.5118 97.482C93.7209 97.6939 92.3825 97.7847 91.3786 97.3912C88.4584 96.271 85.3557 93.3647 82.6788 92.6382C80.9753 92.1538 79.2415 92.4565 77.8726 93.6069C76.5038 92.4565 74.7699 92.1538 73.0664 92.6382C70.3895 93.395 67.2868 96.271 64.3666 97.3912C63.3628 97.7847 62.0243 97.6939 61.2334 97.482C59.9254 97.149 58.9216 95.9078 58.8608 94.5757C58.7999 93.2436 59.7125 91.9116 60.9597 91.4575C61.7506 91.185 62.6023 91.2758 63.1498 91.6997C63.6974 92.1235 64.032 93.0923 63.5757 93.5161C62.6631 94.3032 62.7544 92.6382 61.5376 92.8501C61.2334 92.9106 60.473 93.2436 60.8988 94.3335C61.1422 94.9995 62.0852 95.5445 62.9369 95.5142C65.5529 95.4234 65.5529 92.0327 63.8799 90.7915C63.089 90.2163 61.3247 90.1254 60.2905 90.7309C59.4996 91.185 57.9482 92.5776 58.0699 94.7271C58.1611 96.5738 59.4387 97.8755 61.2334 98.3297C62.5415 98.6627 64.6099 98.2691 65.7659 97.4214C63.8191 99.4195 64.762 100.933 65.2792 101.357C66.1613 102.084 67.4389 101.781 67.9865 101.327C68.4732 100.933 69.0511 99.7223 68.0777 98.7535C67.3172 97.9966 66.283 98.8443 66.7089 99.4801C67.2868 100.358 66.5872 100.812 65.9484 100.54C65.4617 100.328 65.2183 99.4801 65.4617 98.9049C65.7963 98.148 66.1309 97.5425 67.1956 96.8462C67.5606 96.6343 69.477 95.5142 70.0245 95.2114C68.9294 98.8746 71.3934 100.146 72.2451 100.328C75.3478 100.963 75.7433 98.5416 75.8345 97.5728C75.9258 96.6949 75.5912 95.8169 74.7395 95.3931C73.4619 94.7573 72.458 96.0894 73.7965 96.7251C74.2223 96.9371 74.4657 97.2701 74.5265 97.6636C74.5569 98.0875 74.7395 99.3892 72.7926 99.5103C71.4238 99.5709 69.5074 97.482 71.0892 94.8482C73.4314 92.5473 75.7129 93.4555 76.96 94.4849C75.3783 96.8462 75.9258 99.2379 77.8422 101.206C79.7586 99.2379 80.3061 96.8462 78.7243 94.4849C79.9411 93.4555 82.2529 92.5473 84.5952 94.8482C86.1466 97.482 84.2606 99.5709 82.8917 99.5103C80.9449 99.4195 81.1274 98.0875 81.1579 97.6636C81.1883 97.2701 81.4316 96.9371 81.8879 96.7251C83.2263 96.0894 82.2225 94.7573 80.9449 95.3931C80.0932 95.8169 79.7586 96.6949 79.8498 97.5728C79.9411 98.5416 80.3365 100.994 83.4393 100.328C84.3214 100.146 86.7854 98.8746 85.6599 95.2114C86.2074 95.5142 88.1238 96.6343 88.4888 96.8462C89.5535 97.5123 89.8881 98.1177 90.2227 98.9049C90.4661 99.4801 90.1923 100.328 89.736 100.54C89.0972 100.812 88.3976 100.358 88.9755 99.4801C89.4014 98.8443 88.3672 97.9966 87.6067 98.7535C86.6333 99.692 87.2112 100.903 87.6979 101.327C88.2759 101.781 89.5231 102.084 90.4052 101.357C90.9223 100.933 91.8653 99.4195 89.9185 97.4214C91.1049 98.2691 93.1734 98.6627 94.451 98.3297C96.3065 97.8755 97.5841 96.5738 97.6754 94.7271ZM77.8726 99.2379C77.2947 98.0572 77.2642 96.7554 77.8726 95.6353C78.481 96.7554 78.4506 98.0572 77.8726 99.2379Z"
      fill="white"/>
    <path
      d="M46.9365 82.1634C47.7274 81.8304 48.6096 81.7093 49.4613 81.8001C50.313 81.8909 51.1952 82.1936 52.0469 82.5872C53.7504 83.4046 55.8189 85.2513 57.4007 86.4017C58.8912 87.4916 65.2792 92.6382 72.0626 92.3052C72.1843 92.3052 72.2147 92.1235 72.093 92.0932C69.6899 91.6694 64.2754 90.1254 57.7961 84.9183C56.2752 83.6771 54.663 82.5267 52.8378 81.5882C51.9252 81.1341 50.9518 80.7405 49.8568 80.5891C48.7617 80.468 47.6666 80.5891 46.6323 80.9827C45.5981 81.3763 44.6247 82.0726 44.0163 83.0111C43.4079 83.9798 43.1342 85.1 43.195 86.1898C43.2558 87.2797 43.6513 88.3998 44.4118 89.2778C45.7198 90.8217 47.9099 91.4272 49.8263 90.7309C50.7693 90.3979 51.6211 89.8227 52.0469 88.975C52.199 88.6723 52.2903 88.3393 52.2903 87.9457C52.3207 87.2494 52.0773 86.5531 51.6211 86.0082C51.4081 85.7357 50.6172 85.0394 49.9784 84.9183C50.5868 86.2806 50.1914 87.976 48.8834 88.7934C46.9061 89.974 44.1988 88.2787 44.1988 86.0687C44.1988 85.221 44.503 84.3734 44.9897 83.7376C45.5068 83.0413 46.1456 82.4964 46.9365 82.1634Z"
      fill="white"/>
    <path
      d="M110.33 80.3772C110.36 80.347 110.573 79.9231 110.573 79.9231C110.603 80.0745 110.603 80.2259 110.634 80.3772C112.581 77.0774 115.531 78.8333 115.623 76.9865C116.322 76.6233 116.413 75.7453 115.836 75.2307C115.44 74.5041 115.014 73.7775 114.619 73.0812C115.927 73.1418 116.87 72.9904 118.026 72.2033C117.174 71.8097 115.744 69.8116 115.744 68.0255C114.68 68.631 113.28 68.9337 111.911 69.2062C108.596 69.8722 109.387 72.0519 110.847 73.8381C111.364 74.4738 111.942 75.049 112.429 75.5031C114.132 77.1985 112.033 77.4104 110.634 77.8039C109.295 78.4094 107.866 79.3782 107.166 80.7405C106.436 80.5892 105.645 80.5589 104.915 80.6497C103.82 80.8011 102.847 81.1946 101.934 81.6487C100.109 82.5872 98.4967 83.7376 96.9758 84.9789C90.4965 90.186 85.0819 91.7299 82.6788 92.1538C82.5572 92.1841 82.5876 92.3354 82.7093 92.3657C89.4927 92.6987 95.8807 87.5521 97.3712 86.4623C98.953 85.3119 101.052 83.4652 102.725 82.6478C103.577 82.2542 104.428 81.9212 105.311 81.8606C106.162 81.7698 107.075 81.9212 107.835 82.2239C108.626 82.557 109.295 83.0716 109.782 83.7376C110.269 84.3734 110.573 85.2211 110.573 86.0687C110.573 88.2787 107.866 89.9741 105.889 88.7934C104.55 88.0062 104.185 86.2806 104.793 84.9183C104.155 85.0394 103.364 85.766 103.151 86.0082C102.695 86.5531 102.451 87.2494 102.482 87.9457C102.512 88.3393 102.573 88.6723 102.725 88.975C103.12 89.853 104.003 90.3979 104.946 90.7309C106.862 91.4272 109.022 90.8217 110.36 89.2778C111.121 88.3998 111.516 87.31 111.577 86.1898C111.638 85.1 111.394 83.9496 110.756 83.0111C110.269 82.2845 109.6 81.679 108.839 81.2854C109.326 80.8313 109.691 80.1653 109.873 79.4993C110.543 79.2571 110.208 80.4983 110.33 80.3772Z"
      fill="white"/>
    <path
      d="M128.399 94.9692C129.22 93.4253 129.189 91.185 127.881 89.8832C127.273 89.308 126.513 88.9145 125.691 88.7328C124.87 88.5815 124.018 88.6117 123.227 88.7631C122.436 88.9145 121.676 89.1869 120.946 89.4897C119.516 90.0649 118.178 90.8217 116.839 91.518C115.531 92.2446 114.223 92.9409 112.915 93.5161C111.607 94.1216 110.238 94.5454 108.839 94.8179C108.139 94.939 107.44 94.9995 106.771 94.9692C106.436 94.9692 106.071 94.939 105.736 94.9087C105.402 94.8481 105.067 94.7876 104.733 94.6968C103.425 94.3032 102.147 93.5464 101.204 92.5473C100.231 91.5483 99.5918 90.186 99.4701 88.7328C99.4701 88.642 99.3788 88.5815 99.318 88.5815C99.2572 88.5815 99.1963 88.642 99.1659 88.7025C98.9834 90.2465 99.5005 91.851 100.474 93.1225C100.961 93.7583 101.539 94.3335 102.177 94.8179C102.816 95.3023 103.516 95.6958 104.307 95.9985C105.858 96.604 107.531 96.6948 109.113 96.4829C110.725 96.3013 112.216 95.7866 113.645 95.1812C115.075 94.5454 116.413 93.7886 117.721 93.062C118.999 92.3051 120.307 91.5483 121.585 90.8823C122.223 90.5493 122.893 90.2768 123.562 90.0649C124.231 89.853 124.9 89.7621 125.57 89.7924C126.208 89.8227 126.786 90.0346 127.334 90.4282C128.611 91.3061 128.916 93.062 127.912 94.2427C126.482 95.9683 123.836 95.2417 122.619 93.5464C122.284 93.9097 122.193 94.3335 122.163 94.6362C122.163 95.06 122.254 95.4839 122.497 95.8472C123.197 96.9976 124.779 97.1792 125.995 96.8462C126.969 96.604 127.881 95.938 128.399 94.9692Z"
      fill="white"/>
    <path
      d="M27.4988 90.4282C28.0463 90.0346 28.6243 89.853 29.2631 89.7924C29.9323 89.7319 30.6015 89.853 31.2707 90.0649C31.9399 90.2768 32.5787 90.5493 33.248 90.8823C34.556 91.5483 35.8336 92.2749 37.1112 93.062C38.4192 93.7886 39.7576 94.5757 41.1873 95.1812C42.617 95.7867 44.138 96.3013 45.7197 96.483C47.3015 96.6949 48.9746 96.604 50.5259 95.9986C51.2864 95.6958 51.9861 95.3023 52.6553 94.8179C53.2941 94.3335 53.872 93.7886 54.3587 93.1225C55.3321 91.851 55.8188 90.2162 55.6668 88.7025C55.6668 88.642 55.6059 88.5815 55.5147 88.5815C55.4234 88.5815 55.3626 88.642 55.3626 88.7328C55.2409 90.2162 54.6021 91.5483 53.6287 92.5473C52.6553 93.5767 51.4081 94.3032 50.1001 94.6968C49.7655 94.7876 49.4309 94.8784 49.0963 94.9087C48.7616 94.939 48.3966 94.9693 48.062 94.9693C47.3624 94.9995 46.6627 94.939 45.9935 94.8179C44.6247 94.5757 43.2558 94.1216 41.9174 93.5161C40.6094 92.9409 39.3013 92.2446 37.9933 91.518C36.6549 90.8217 35.3165 90.0951 33.8868 89.4897C33.1567 89.1869 32.4267 88.9145 31.6053 88.7631C30.8144 88.6117 29.9627 88.5512 29.1414 88.7328C28.2897 88.9145 27.5292 89.308 26.9512 89.8832C25.6432 91.1547 25.6128 93.4253 26.4341 94.9693C26.9208 95.9077 27.8638 96.604 28.8676 96.8765C30.0844 97.2095 31.6662 97.0279 32.3658 95.8775C32.5787 95.5142 32.7004 95.0903 32.7004 94.6665C32.7004 94.3638 32.6092 93.9097 32.2441 93.5766C31.0578 95.3023 28.3809 95.9986 26.9512 94.273C25.917 93.0317 26.2212 91.3061 27.4988 90.4282Z"
      fill="white"/>
    <path
      d="M112.55 49.3162C113.189 49.0134 113.219 48.2566 114.102 48.1961C113.432 49.074 114.102 49.9519 114.953 49.8006C114.558 50.6482 114.74 50.951 115.44 51.3748C115.227 50.8904 115.136 50.7391 115.318 50.3758C115.501 50.0125 115.927 49.9519 115.866 49.2556C115.744 48.741 116.109 48.5896 116.657 48.6199C117.813 48.7107 118.512 49.9822 117.752 51.0418C116.718 52.4647 115.379 53.3123 113.95 54.3417C111.516 54.3719 108.565 55.6434 107.774 58.4589C107.227 58.1259 106.892 57.9443 106.406 57.8837C105.341 57.7323 104.854 58.3681 104.58 59.246C104.307 60.124 104.215 61.1533 104.033 62.1826C103.698 64.0596 103.577 64.5742 104.033 66.1788C104.276 66.9961 104.672 67.1778 104.946 66.4512C105.25 65.6641 105.371 64.9072 105.037 64.1201C105.554 63.8477 105.736 63.4238 104.915 62.4551C105.158 62.334 105.219 62.2431 105.25 61.8496C105.128 61.9404 104.976 61.9101 104.824 61.8799C105.006 61.123 105.523 58.8525 106.619 59.791C106.923 60.0634 107.288 60.5478 107.683 61.123C108.778 62.4248 109.539 63.9082 111.242 63.8779C112.976 66.2998 113.706 66.4512 116.383 67.5108C116.383 68.9337 117.022 70.5079 118.847 71.8702C118.026 75.5939 120.55 78.1369 124.109 78.1369C126.665 78.1369 126.847 78.2278 126.817 80.1956C126.817 81.8001 126.391 82.6175 125.843 83.6468C125.478 84.3431 125.265 84.5853 125.205 85.1908C123.988 85.0394 122.771 85.1908 121.646 85.4935C120.368 85.8265 119.151 86.3714 118.026 86.9769C116.9 87.5824 115.805 88.2787 114.771 89.0658C114.74 89.0961 114.71 89.1566 114.74 89.1869C114.771 89.2172 114.801 89.2172 114.862 89.2172C116.079 88.7631 117.235 88.2484 118.391 87.7943C119.547 87.3402 120.733 86.9164 121.919 86.6136C123.106 86.3412 124.292 86.1595 125.478 86.2806C126.665 86.3714 127.821 86.7953 128.916 87.4613C128.946 87.4916 129.007 87.4613 129.037 87.431C129.068 87.4008 129.068 87.3402 129.037 87.3402C128.368 86.4623 127.364 85.7962 126.269 85.4632C126.756 85.2513 127.212 84.8577 127.273 84.4945C127.182 83.8284 127.303 83.8284 127.729 83.3743C127.76 83.556 127.76 83.7679 127.699 83.9798C128.094 83.3743 127.973 82.9505 127.821 82.2845C127.577 81.4973 127.638 80.8919 127.79 80.2258C127.973 79.4084 128.034 78.7727 128.155 77.9553C128.125 77.592 128.52 77.259 128.52 77.8342C128.764 77.0168 127.942 77.0471 127.942 77.0471C126.665 76.9865 125.752 76.4416 125.174 75.6242C123.744 73.5353 125.083 71.8097 125.265 69.5392C125.509 69.6905 125.783 69.8116 126.087 70.2355C126.756 71.2042 125.843 71.0226 126.026 71.7491C126.208 72.506 126.786 72.5968 127.547 72.9298C126.908 72.5363 126.056 72.2033 126.604 71.3859C126.969 70.8712 127.03 70.9015 126.786 70.0841C127.456 70.3565 127.212 70.8409 127.638 71.295C128.368 72.0519 129.281 71.1739 129.889 70.6896C128.733 71.1437 128.186 71.4767 127.912 70.5685C127.76 70.0235 127.425 69.6905 127.121 69.2364C128.672 69.2061 129.737 68.419 130.315 67.0264C130.011 67.5108 129.707 67.7227 129.372 67.9649C129.859 67.3292 129.95 67.1172 130.041 66.3301C129.889 66.754 129.676 67.087 129.402 67.2383C130.102 64.7862 129.463 64.6953 129.189 63.3633C129.129 63.0605 128.733 61.8193 129.372 61.9101C129.554 61.9404 129.524 62.2129 129.494 62.334C129.615 62.1826 129.676 61.9404 129.494 61.789C129.189 61.5771 128.642 61.9707 128.885 63C129.068 63.7266 129.372 64.332 129.402 64.9981C128.764 63.1211 127.699 62.4551 127.395 60.6084C127.243 59.7304 127.76 58.913 128.642 59.3974C129.068 59.6093 129.037 60.1542 128.733 60.2148C128.399 60.2753 128.338 60.0332 128.581 59.8515C128.034 59.7304 127.973 60.3662 128.368 60.4873C129.707 60.9111 129.585 58.7011 128.186 58.4589C128.824 58.3681 128.946 58.3075 129.068 57.6718C129.22 58.3378 129.098 58.7919 129.646 59.3066C130.193 59.8515 131.015 59.9423 131.075 58.8827C130.741 59.579 130.285 59.3671 130.011 59.0038C129.433 58.2773 129.646 57.7929 129.494 57.0058C130.041 57.369 130.163 57.7021 130.467 58.0956C130.771 58.4892 131.197 58.8525 131.623 58.7314C132.292 58.5497 131.958 57.581 131.319 58.1562C131.988 58.0048 131.836 58.5497 131.562 58.5497C131.319 58.5497 130.893 58.1864 130.771 57.7021C130.68 57.4296 130.589 57.0966 130.072 56.5819C130.589 56.8544 130.984 56.9755 131.41 57.3388C132.566 58.3378 134.939 58.8222 134.452 57.3388C134.269 56.7636 133.387 57.1571 134.026 57.5204C133.722 56.9755 134.665 57.2177 134.269 57.8232C133.844 58.4892 132.231 57.6112 131.562 57.1269C131.288 56.9452 131.075 56.4911 130.893 56.2186C131.958 56.7636 132.536 57.0966 133.326 56.7333C134.087 56.4003 134.361 55.5526 134.026 55.0985C133.813 54.7958 133.357 54.7352 133.144 54.9169C133.053 54.9774 133.022 55.0985 133.022 55.2499C133.083 55.2499 133.144 55.2499 133.235 55.2801C133.266 55.1893 133.326 55.1288 133.357 55.0985C133.509 54.9471 133.722 55.038 133.874 55.2801C134.087 55.6132 133.722 56.1278 133.053 56.3095C132.475 56.4608 132.231 56.4306 131.684 56.0673C130.832 55.5223 130.163 55.2499 129.189 55.0379C130.224 54.9774 131.745 55.2196 132.14 54.1903C132.444 53.4334 131.897 52.9793 131.349 53.2821C131.106 53.4032 130.923 53.6151 131.167 53.8573C131.136 53.6454 131.197 53.494 131.44 53.4637C131.897 53.4032 132.17 53.7664 131.593 54.3114C131.015 54.8563 129.859 54.6444 129.068 54.7049C127.364 54.826 125.691 55.8251 125.722 58.3681C125.083 59.5488 125.235 61.0927 125.57 62.3642C125.965 63.8477 126.695 65.1192 126.482 65.876C126.117 67.1475 125.296 66.9659 124.018 65.543C122.832 64.2109 121.919 64.1504 121.189 63.666C120.52 63.1816 120.216 62.0918 120.033 61.3349C120.581 62.3945 121.341 61.3652 120.855 60.9716C120.976 61.4863 120.398 61.6074 120.216 60.5781C120.125 59.9423 120.429 58.7011 121.463 58.247C121.22 58.9736 121.463 59.4882 122.071 59.7304C121.919 57.3085 123.258 57.0966 123.562 55.6737C123.562 56.4608 123.44 56.8241 123.014 57.4599C124.201 56.7636 124.353 55.7343 124.079 54.1903C124.322 54.7352 124.627 54.9774 125.478 54.9774C124.748 54.6141 124.444 53.494 124.809 52.8885C125.357 53.5243 125.904 53.5848 126.786 53.1912C125.265 52.4647 125.022 51.8592 124.779 50.406C125.235 50.9812 126.3 51.284 126.786 50.406C125.113 50.2244 125.813 48.741 124.353 47.9841C124.322 47.9539 125.083 48.196 125.813 47.53C124.87 47.6208 124.322 47.2576 123.957 46.6218C124.657 46.864 124.9 46.7732 125.63 46.4704C123.866 46.2282 123.684 44.6843 121.98 44.1091C122.011 43.5944 122.041 43.4733 121.737 43.0495C121.493 42.6862 121.25 42.3532 121.068 41.9294C121.007 41.6872 120.885 41.6872 120.794 41.9294C120.611 42.4137 120.52 42.8981 120.398 43.4128C120.307 43.4128 120.216 43.3825 120.125 43.3825C120.094 42.5954 120.125 41.9293 119.182 41.8991C119.06 42.4743 119.09 43.0495 119.06 43.655C117.539 41.7174 115.988 39.7799 114.467 37.8727C115.653 39.7799 116.87 41.6872 118.056 43.5641C118.117 43.655 118.178 43.7458 118.239 43.8669C118.178 43.7761 118.117 43.655 118.056 43.5641C117.113 42.2624 115.349 42.2018 115.045 43.443C114.832 44.2907 116.474 45.0778 116.809 43.8366C116.474 44.5935 115.592 44.0485 115.592 43.6247C115.623 43.0798 116.778 42.7467 117.417 44.0182C116.687 44.1999 116.596 44.4421 116.261 44.8962C115.44 45.2898 115.258 45.1081 114.284 45.8347C113.889 45.8952 113.676 45.8952 113.372 46.1374C112.702 46.6824 113.128 47.863 113.645 48.1961C113.189 48.3171 113.007 48.4685 112.672 48.8015C112.276 48.8318 112.094 48.8015 111.851 48.8924C111.364 49.0134 111.546 49.8308 112.55 49.3162Z"
      fill="white"/>
    <path
      d="M43.8033 74.9279C44.503 74.8977 45.1722 74.6555 45.7806 74.3527C46.4194 74.05 47.0582 73.5051 47.8186 73.5656C48.5791 73.6262 48.8529 74.2014 49.4613 74.5646C50.5259 75.1701 51.0126 74.383 51.4385 73.6262C51.8339 72.8693 52.7465 73.2326 52.7465 73.2326C51.8339 71.9611 50.1001 72.6271 50.1001 72.6271C50.9822 71.6886 51.9252 72.0519 51.9252 72.0519C52.5032 71.0226 53.3245 71.3859 53.3245 71.3859C52.0165 70.4171 50.678 71.0226 50.678 71.0226C51.3168 69.9933 52.2598 70.3566 52.2598 70.3566C52.5944 69.8116 53.142 70.0538 53.142 70.0538C52.8378 69.8116 52.564 69.6603 52.2902 69.5392C51.4993 69.1759 50.5259 69.3878 49.948 70.0236C48.5183 71.5675 46.2064 72.4455 44.1075 71.9914C44.1075 71.9914 44.3509 69.6906 44.3813 67.6622C44.4117 65.6036 43.1037 64.6651 40.3356 65.8155C37.5674 66.9659 38.115 70.9318 38.115 70.9318C40.3964 71.5373 41.3394 70.7501 41.3394 70.7501C41.0656 71.9308 42.039 73.1418 42.039 73.1418C42.039 73.1418 41.7957 74.9582 43.8033 74.9279Z"
      fill="white"/>
    <path
      d="M84.1085 85.433C85.5078 84.4945 86.8158 83.3744 87.9717 82.2542C89.3406 80.9524 90.5269 79.5901 91.3787 78.4397C93.873 75.1096 95.9719 71.4767 97.7058 67.6622C99.3484 63.9991 100.656 60.1543 101.66 56.1884H77.9335V88.0971C78.8156 87.976 79.7282 87.7035 80.6408 87.3402C81.8271 86.8861 82.983 86.2201 84.1085 85.433Z"
      fill="white" stroke="#1890FF" stroke-miterlimit="10"/>
    <path
      d="M87.485 73.5353C89.2798 73.5353 90.9224 72.8087 92.1087 71.6281C93.2951 70.4474 94.0251 68.8126 94.0251 67.0264C94.0251 65.2403 93.2951 63.6055 92.1087 62.4248C90.9224 61.2441 89.2798 60.5175 87.485 60.5175C85.6903 60.5175 84.0477 61.2441 82.8613 62.4248C81.675 63.6055 80.9449 65.2403 80.9449 67.0264C80.9449 68.8126 81.675 70.4474 82.8613 71.6281C84.0477 72.8087 85.6903 73.5353 87.485 73.5353ZM83.2872 62.8486C84.3519 61.7891 85.8424 61.123 87.485 61.123C89.1277 61.123 90.6182 61.7891 91.6828 62.8486C92.7475 63.9082 93.4167 65.3916 93.4167 67.0264C93.4167 68.6612 92.7475 70.1446 91.6828 71.2042C90.6182 72.2638 89.1277 72.9298 87.485 72.9298C85.8424 72.9298 84.3519 72.2638 83.2872 71.2042C82.2225 70.1446 81.5533 68.6612 81.5533 67.0264C81.5533 65.3916 82.2225 63.9082 83.2872 62.8486Z"
      fill="#1890FF"/>
    <path
      d="M87.485 72.9298C89.1276 72.9298 90.6181 72.2638 91.6828 71.2042C92.7475 70.1446 93.4167 68.6612 93.4167 67.0264C93.4167 65.3916 92.7475 63.9082 91.6828 62.8486C90.6181 61.789 89.1276 61.123 87.485 61.123C85.8424 61.123 84.3518 61.789 83.2872 62.8486C82.2225 63.9082 81.5533 65.3916 81.5533 67.0264C81.5533 68.6612 82.2225 70.1446 83.2872 71.2042C84.3518 72.2638 85.8424 72.9298 87.485 72.9298ZM84.0476 70.7501C84.4735 70.7501 84.7473 70.6896 84.869 70.5685C84.9906 70.4474 85.0515 70.1749 85.0515 69.7511V64.1807C85.0515 63.7568 84.9906 63.4844 84.869 63.3633C84.7473 63.2422 84.4735 63.2119 84.0476 63.1816V62.6973C84.3214 62.6973 84.5648 62.7275 84.8385 62.7275C85.1123 62.7275 85.3557 62.7275 85.6294 62.7275C85.8424 62.7275 86.177 62.7275 86.6028 62.6973C87.0287 62.6973 87.3329 62.667 87.5458 62.667C88.6105 62.667 89.4318 62.8486 89.9489 63.1816C90.466 63.5147 90.7398 64.0293 90.7398 64.7256C90.7398 65.4219 90.5269 65.9366 90.101 66.2696C89.6751 66.6329 89.0363 66.8145 88.1238 66.8751C88.9147 66.9356 89.4926 67.087 89.8577 67.3594C90.1923 67.6319 90.4052 68.086 90.4965 68.7218C90.5269 68.9034 90.5269 69.1153 90.5573 69.4181C90.5877 70.1144 90.7702 70.4474 91.0744 70.4474C91.2265 70.4474 91.3786 70.3868 91.4699 70.296C91.5611 70.1749 91.6524 70.0236 91.6828 69.7814L92.0174 69.8419C91.9566 70.3263 91.8045 70.6593 91.5307 70.9015C91.2874 71.1134 90.9527 71.2345 90.4965 71.2345C89.9793 71.2345 89.6143 71.1134 89.4014 70.8409C89.1884 70.5685 89.0668 70.1446 89.0668 69.5392C89.0668 69.4786 89.0668 69.3575 89.0668 69.2364C89.0668 69.0851 89.0668 68.9942 89.0668 68.9034C89.0668 68.1768 88.9451 67.6925 88.6713 67.4805C88.3976 67.2383 87.8804 67.1173 87.1504 67.1173H86.542V69.6603C86.542 70.1144 86.6028 70.3868 86.7245 70.4777C86.8462 70.5988 87.12 70.629 87.5458 70.629V71.0831C87.0591 71.0529 86.6941 71.0529 86.4507 71.0529C86.2074 71.0529 85.9944 71.0529 85.8424 71.0529C85.6903 71.0529 85.4773 71.0529 85.2036 71.0529C84.9298 71.0529 84.5648 71.0831 84.0476 71.0831V70.7501Z"
      fill="white"/>
    <path
      d="M85.8424 71.1437C85.9945 71.1437 86.2074 71.1437 86.4508 71.1437C86.6941 71.1437 87.0591 71.174 87.5458 71.174V70.7198C87.12 70.7198 86.8462 70.6593 86.7245 70.5685C86.6029 70.4474 86.542 70.1749 86.542 69.7511V67.2081H87.1504C87.8805 67.2081 88.3976 67.3292 88.6714 67.5714C88.9451 67.8136 89.0668 68.2677 89.0668 68.9942C89.0668 69.0851 89.0668 69.1759 89.0668 69.3272C89.0668 69.4786 89.0668 69.5694 89.0668 69.63C89.0668 70.2355 89.1885 70.6593 89.4014 70.9318C89.6143 71.2042 89.9794 71.3253 90.4965 71.3253C90.9528 71.3253 91.2874 71.2042 91.5307 70.9923C91.7741 70.7804 91.9262 70.4171 92.0174 69.9327L91.6828 69.8722C91.622 70.1144 91.5612 70.296 91.4699 70.3868C91.3786 70.5079 91.257 70.5382 91.0745 70.5382C90.7703 70.5382 90.5877 70.2052 90.5573 69.5089C90.5573 69.2062 90.5269 68.964 90.4965 68.8126C90.4052 68.1768 90.1923 67.7227 89.8577 67.4503C89.5231 67.1778 88.9451 67.0264 88.1238 66.9659C89.006 66.9053 89.6752 66.7237 90.101 66.3604C90.5269 65.9971 90.7398 65.4825 90.7398 64.8164C90.7398 64.1201 90.4661 63.6055 89.9489 63.2725C89.4318 62.9395 88.6105 62.7578 87.5458 62.7578C87.3329 62.7578 87.0287 62.7578 86.6029 62.7881C86.177 62.7881 85.8728 62.8184 85.6295 62.8184C85.3557 62.8184 85.1123 62.8184 84.8386 62.8184C84.5648 62.8184 84.3214 62.8184 84.0477 62.7881V63.2725C84.4735 63.2725 84.7473 63.333 84.869 63.4541C84.9907 63.5752 85.0515 63.8477 85.0515 64.2715V69.8419C85.0515 70.2657 84.9907 70.5382 84.869 70.6593C84.7473 70.7804 84.4735 70.8409 84.0477 70.8409V71.295C84.5648 71.2648 84.9298 71.2648 85.2036 71.2648C85.4774 71.2648 85.6599 71.1437 85.8424 71.1437ZM86.6029 63.2119C86.907 63.1816 87.12 63.1817 87.2721 63.1817C87.9413 63.1817 88.428 63.333 88.7322 63.6055C89.0364 63.878 89.1885 64.3018 89.1885 64.9073C89.1885 65.543 89.0364 65.9971 88.7322 66.2999C88.428 66.6026 87.9109 66.7237 87.2112 66.7237C87.0591 66.7237 86.9679 66.7237 86.8462 66.7237C86.755 66.7237 86.6637 66.7237 86.5724 66.7237V63.2422C86.542 63.2119 86.5724 63.2119 86.6029 63.2119Z"
      fill="#1890FF"/>
    <path
      d="M86.8158 66.7237C86.907 66.7237 87.0287 66.7237 87.1808 66.7237C87.8805 66.7237 88.3976 66.5723 88.7018 66.2998C89.006 66.0274 89.1581 65.543 89.1581 64.9072C89.1581 64.332 89.006 63.8779 88.7018 63.6055C88.3976 63.333 87.9109 63.1816 87.2417 63.1816C87.12 63.1816 86.8766 63.1816 86.5724 63.2119C86.542 63.2119 86.5116 63.2119 86.5116 63.2119V66.6934C86.6333 66.7237 86.7245 66.7237 86.8158 66.7237Z"
      fill="white"/>
    <path
      d="M57.066 67.6924C58.7695 71.507 60.8684 75.1398 63.3932 78.4699C64.2449 79.6204 65.4313 80.9524 66.8001 82.2845C67.956 83.4046 69.2945 84.4945 70.6633 85.4632C71.7888 86.2201 72.9752 86.9164 74.1311 87.4008C75.0437 87.764 75.9562 88.0365 76.8384 88.1576V56.2186H53.1116C54.1154 60.1542 55.4234 64.0293 57.066 67.6924ZM66.7089 69.63C66.7697 69.63 66.8914 69.5997 67.0435 69.5694C67.1956 69.5391 67.3172 69.4786 67.4389 69.418C67.5606 69.3272 67.6214 69.2061 67.6518 69.0245C67.6823 68.8428 67.7127 68.5704 67.7127 68.2374V65.3311C67.7127 65.1494 67.6823 64.9981 67.6518 64.877C67.6214 64.7559 67.5302 64.665 67.4389 64.6045C67.3172 64.5137 67.226 64.4531 67.1043 64.4531C66.9826 64.4229 66.861 64.4229 66.7393 64.3926V64.0596H69.477L70.9371 67.9346L72.1843 64.7861C72.2147 64.665 72.2755 64.544 72.3059 64.3623C72.3364 64.2109 72.3668 64.0898 72.3668 64.0596H74.9828V64.3926C74.8916 64.3926 74.8003 64.4228 74.7091 64.4228C74.6178 64.4531 74.5265 64.4531 74.4353 64.4834C74.3136 64.5137 74.2528 64.5742 74.2223 64.665C74.1919 64.7559 74.1615 64.8164 74.1615 64.9072V69.085C74.1615 69.1759 74.1919 69.2667 74.2223 69.3272C74.2528 69.3878 74.344 69.4483 74.4353 69.5089C74.4961 69.5391 74.5874 69.5694 74.7091 69.5694C74.8307 69.5997 74.922 69.5997 75.0132 69.5997V69.9327H71.8193V69.63C71.9105 69.63 72.0322 69.5997 72.1539 69.5997C72.2755 69.5694 72.3972 69.5694 72.4276 69.5391C72.5189 69.5089 72.6101 69.4483 72.6406 69.3575C72.671 69.297 72.7014 69.2061 72.7014 69.085V64.6953L70.6633 69.8722H70.1462C70.1158 69.7813 70.0549 69.5997 69.9637 69.3272C69.8724 69.0548 69.7812 68.8428 69.7203 68.6612L68.2298 64.6045V68.1768C68.2298 68.5098 68.2602 68.7823 68.2906 68.9639C68.3515 69.1456 68.4123 69.2667 68.5036 69.3575C68.5644 69.418 68.6861 69.4786 68.8686 69.5089C69.0511 69.5694 69.1728 69.5997 69.2336 69.5997V69.9327H66.6784V69.63H66.7089ZM60.7772 64.0898H66.4959V65.7852H66.1613C66.0701 65.543 65.9484 65.2705 65.7354 64.9678C65.5529 64.6953 65.3704 64.5137 65.2183 64.5137C65.1271 64.5137 65.0358 64.4834 64.8837 64.4834C64.762 64.4834 64.6404 64.4834 64.5491 64.4834H64.3666V69.085C64.3666 69.1759 64.397 69.2667 64.4274 69.3575C64.4579 69.4483 64.5491 69.4786 64.6404 69.5391C64.7012 69.5694 64.7925 69.5997 64.9446 69.63C65.0662 69.6602 65.1879 69.6602 65.2792 69.6905V70.0235H61.9939V69.63C62.0852 69.63 62.1764 69.5997 62.3285 69.5997C62.4806 69.5694 62.5719 69.5694 62.6327 69.5391C62.7544 69.5089 62.8152 69.4483 62.8456 69.3575C62.8761 69.297 62.9065 69.2061 62.9065 69.085V64.4228H62.724C62.6327 64.4228 62.511 64.4228 62.3894 64.4228C62.2677 64.4228 62.146 64.4531 62.0548 64.4531C61.9027 64.4834 61.7201 64.6348 61.5376 64.9072C61.3551 65.1797 61.203 65.4522 61.1118 65.7246H60.7772V64.0898Z"
      fill="#1890FF"/>
    <path
      d="M61.5072 64.9678C61.6897 64.6954 61.8722 64.5137 62.0243 64.5137C62.1156 64.5137 62.2372 64.4834 62.3589 64.4834C62.4806 64.4834 62.6023 64.4834 62.6935 64.4834H62.876V69.1456C62.876 69.2364 62.8456 69.3272 62.8152 69.4181C62.7848 69.4786 62.6935 69.5392 62.6023 69.5997C62.5414 69.63 62.4502 69.63 62.2981 69.6603C62.146 69.6905 62.0243 69.6905 61.9635 69.6905V70.0235H65.2487V69.63C65.1575 69.63 65.0358 69.5997 64.9141 69.5694C64.7924 69.5392 64.6708 69.5089 64.6099 69.4786C64.5187 69.4483 64.4274 69.3878 64.397 69.297C64.3666 69.2062 64.3362 69.1456 64.3362 69.0245V64.4229H64.5187C64.6099 64.4229 64.7316 64.4229 64.8533 64.4229C64.975 64.4229 65.0966 64.4532 65.1879 64.4532C65.34 64.4834 65.5225 64.6348 65.705 64.9073C65.8875 65.1797 66.0396 65.4522 66.1309 65.7247H66.4655V64.0293H60.7467V65.7247H61.0813C61.1726 65.5127 61.3247 65.2403 61.5072 64.9678Z"
      fill="white"/>
    <path
      d="M69.264 69.63C69.2032 69.63 69.0815 69.5997 68.899 69.5391C68.7165 69.4786 68.5948 69.4181 68.534 69.3878C68.4427 69.297 68.3515 69.1759 68.321 68.9942C68.2906 68.8126 68.2602 68.5704 68.2602 68.2071V64.6348L69.7507 68.6915C69.8116 68.8428 69.9028 69.085 69.9941 69.3575C70.0854 69.63 70.1462 69.8116 70.1766 69.9024H70.6937L72.7318 64.7256V69.1153C72.7318 69.2364 72.7014 69.3272 72.671 69.3878C72.6405 69.4483 72.5493 69.5089 72.458 69.5694C72.3972 69.5997 72.3059 69.5997 72.1843 69.63C72.0322 69.6602 71.9409 69.6602 71.8496 69.6602V69.9933H75.0436V69.63C74.9828 69.63 74.8611 69.5997 74.7394 69.5997C74.6178 69.5694 74.5265 69.5694 74.4657 69.5391C74.344 69.4786 74.2832 69.418 74.2528 69.3575C74.2223 69.297 74.1919 69.2061 74.1919 69.1153V64.9375C74.1919 64.8467 74.2223 64.7559 74.2528 64.6953C74.2832 64.6045 74.3744 64.5742 74.4657 64.5137C74.5569 64.4834 74.6482 64.4531 74.7394 64.4531C74.8307 64.4229 74.922 64.4228 75.0132 64.4228V64.0898H72.3972C72.3972 64.1504 72.3668 64.2412 72.3364 64.3926C72.3059 64.544 72.2451 64.6953 72.2147 64.8164L70.9675 67.9649L69.5074 64.0898H66.7697V64.4228C66.8914 64.4228 67.013 64.4531 67.1347 64.4834C67.2564 64.5137 67.3781 64.5742 67.4693 64.6348C67.5606 64.6953 67.6214 64.7861 67.6822 64.9072C67.7127 65.0283 67.7431 65.1797 67.7431 65.3613V68.2676C67.7431 68.6007 67.7127 68.8731 67.6822 69.0548C67.6518 69.2364 67.5606 69.3575 67.4693 69.4483C67.3781 69.5089 67.2564 69.5694 67.0739 69.5997C66.9218 69.63 66.8001 69.6602 66.7393 69.6602V69.9933H69.2945V69.63H69.264Z"
      fill="white"/>
    <path
      d="M52.7769 54.8866L52.8378 55.1893H76.8384V25.8842C75.0132 27.3373 71.6975 29.7895 67.378 30.8491C62.9369 31.9692 57.431 31.6362 51.4385 27.3071L50.6476 26.7319L50.5868 27.7006C50.3434 32.3023 50.3738 37.025 50.7389 41.7477C51.1343 46.1374 51.7731 50.5574 52.7769 54.8866Z"
      fill="white" stroke="#1890FF" stroke-miterlimit="10"/>
    <path
      d="M61.203 49.8914C61.568 49.8914 61.9635 49.7703 62.3589 49.5281C62.7848 49.2859 63.1802 48.9529 63.5452 48.4685C64.3057 49.0437 64.8837 49.4373 65.3095 49.5887C65.7354 49.7703 66.1309 49.8611 66.4959 49.8611C67.0434 49.8611 67.5605 49.5887 68.0472 49.074C68.5339 48.5291 68.8381 47.742 69.0207 46.6824L68.4123 46.5613C68.2906 47.1668 68.1081 47.5906 67.8951 47.8025C67.6822 48.0447 67.378 48.1658 67.0434 48.1658C66.3742 48.1658 65.4312 47.9236 64.184 47.4089C64.4274 46.7732 64.5795 46.0466 64.5795 45.1989C64.5795 44.6843 64.5491 44.1999 64.4578 43.7155H65.0966H65.7354H66.0092C66.3134 43.7155 66.5567 43.4733 66.5567 43.1706V42.9587H65.7354H65.0966H64.2753C64.1536 42.5348 63.9711 42.0807 63.7886 41.5661C63.5452 40.9606 63.3931 40.5368 63.3323 40.2946C63.2715 40.0524 63.2411 39.7799 63.2411 39.5377C63.2411 38.9928 63.454 38.569 63.8494 38.2057C64.2449 37.8424 64.7924 37.6607 65.4616 37.6607C66.0092 37.6607 66.435 37.7516 66.7088 37.9029C66.9826 38.0846 67.1043 38.2662 67.1043 38.4479C67.1043 38.5084 67.0738 38.569 67.0434 38.5992C67.013 38.6598 66.8609 38.7809 66.6176 38.9928C66.3742 39.2047 66.2525 39.4469 66.2525 39.7799C66.2525 40.0827 66.3438 40.3551 66.5263 40.5368C66.7088 40.7487 66.9217 40.8395 67.1955 40.8395C67.5301 40.8395 67.8039 40.7184 68.0168 40.446C68.2602 40.1735 68.3819 39.8405 68.3819 39.4166C68.3819 38.7506 68.1081 38.1754 67.591 37.7213C67.0738 37.2672 66.3742 37.025 65.4616 37.025C64.3057 37.025 63.3931 37.358 62.6935 37.9938C61.9939 38.6295 61.6288 39.4469 61.6288 40.4157C61.6288 41.1725 61.8114 42.0505 62.2068 42.989H61.6593H61.0813H60.7467C60.4425 42.989 60.1992 43.2311 60.1992 43.5339V43.7458H61.0813H61.6593H62.5718C63.0281 44.7448 63.2715 45.7742 63.2715 46.8337V47.1365C62.3285 46.7127 61.6288 46.4705 61.1726 46.4705C60.5946 46.4705 60.1383 46.6218 59.7733 46.9548C59.4083 47.2879 59.2562 47.6814 59.2562 48.1658C59.2562 48.6805 59.4387 49.074 59.8037 49.4373C60.2296 49.7098 60.6859 49.8914 61.203 49.8914ZM60.3208 47.4998C60.5338 47.3181 60.8075 47.197 61.1726 47.197C61.3855 47.197 61.6288 47.2576 61.8722 47.3484C62.1155 47.4392 62.511 47.7117 63.1194 48.1355C62.5718 48.8924 61.9635 49.2859 61.2638 49.2859C60.8988 49.2859 60.5946 49.1951 60.3817 48.9832C60.1687 48.7713 60.0471 48.5291 60.0471 48.2263C59.9862 47.9236 60.1079 47.6814 60.3208 47.4998Z"
      fill="#1890FF"/>
    <path
      d="M61.2334 49.2859C61.9331 49.2859 62.5415 48.8924 63.089 48.1355C62.4806 47.7117 62.0852 47.4392 61.8418 47.3484C61.5985 47.2576 61.3855 47.197 61.1422 47.197C60.8076 47.197 60.5034 47.2878 60.2905 47.4998C60.0775 47.6814 59.9863 47.9539 59.9863 48.2566C59.9863 48.5593 60.1079 48.8015 60.3209 49.0135C60.5642 49.1951 60.8684 49.2859 61.2334 49.2859Z"
      fill="white"/>
    <path
      d="M88.8539 37.0553C87.0591 37.0553 85.4165 37.7818 84.2302 38.9625C83.0438 40.1432 82.3138 41.778 82.3138 43.5642C82.3138 45.3503 83.0438 46.9851 84.2302 48.1658C85.4165 49.3465 87.0591 50.073 88.8539 50.073C90.6486 50.073 92.2912 49.3465 93.4775 48.1658C94.6639 46.9851 95.394 45.3503 95.394 43.5642C95.394 41.778 94.6639 40.1432 93.4775 38.9625C92.2912 37.7818 90.6486 37.0553 88.8539 37.0553ZM93.0517 47.7722C91.987 48.8318 90.4965 49.4978 88.8539 49.4978C87.2112 49.4978 85.7207 48.8318 84.656 47.7722C83.5914 46.7126 82.9222 45.2292 82.9222 43.5944C82.9222 41.9596 83.5914 40.4762 84.656 39.4166C85.7207 38.3571 87.2112 37.691 88.8539 37.691C90.4965 37.691 91.987 38.3571 93.0517 39.4166C94.1163 40.4762 94.7856 41.9596 94.7856 43.5944C94.7856 45.2292 94.1163 46.6824 93.0517 47.7722Z"
      fill="white"/>
    <path
      d="M88.8538 37.6607C87.2112 37.6607 85.7207 38.3268 84.656 39.3864C83.5913 40.4459 82.9221 41.9294 82.9221 43.5641C82.9221 45.1989 83.5913 46.6824 84.656 47.742C85.7207 48.8015 87.2112 49.4676 88.8538 49.4676C90.4965 49.4676 91.987 48.8015 93.0517 47.742C94.1163 46.6824 94.7855 45.1989 94.7855 43.5641C94.7855 41.9294 94.1163 40.4459 93.0517 39.3864C91.987 38.3268 90.4965 37.6607 88.8538 37.6607ZM91.4699 46.6824C91.2873 46.9851 91.0744 47.2273 90.8311 47.4392C90.5573 47.6814 90.2835 47.863 89.9793 47.9841C89.6751 48.1052 89.2797 48.1961 88.8538 48.1961C88.3367 48.1961 87.85 48.075 87.3937 47.863C86.9374 47.6511 86.542 47.3484 86.2074 46.9246C85.8728 46.531 85.6294 46.0466 85.4469 45.4411C85.2644 44.8659 85.1731 44.1999 85.1731 43.5036C85.1731 42.8073 85.2644 42.1413 85.4469 41.5661C85.6294 40.9606 85.9032 40.4459 86.2378 40.0221C86.5724 39.5983 86.9678 39.2653 87.4546 39.0231C87.9413 38.7809 88.428 38.6598 88.9755 38.6598C89.3709 38.6598 89.7056 38.7203 90.0402 38.8414C90.3748 38.9625 90.6181 39.1139 90.8615 39.2653L91.1657 38.902H91.5915L91.622 42.2018H91.1961C90.9527 41.2028 90.6485 40.4459 90.3139 39.9918C89.9793 39.5074 89.5535 39.2955 89.0363 39.2955C88.428 39.2955 87.9413 39.6588 87.6066 40.3551C87.272 41.0514 87.1199 42.0505 87.1199 43.322C87.1199 44.0485 87.1808 44.654 87.272 45.1687C87.3937 45.6833 87.5154 46.0769 87.6979 46.3796C87.8804 46.7126 88.1238 46.9246 88.3671 47.0759C88.6409 47.2273 88.9147 47.2878 89.2189 47.2878C89.6751 47.2878 90.101 47.1365 90.466 46.8035C90.8311 46.4704 91.1657 45.9861 91.4699 45.3503L91.8957 45.6833C91.8045 46.0466 91.6524 46.3796 91.4699 46.6824Z"
      fill="#1890FF"/>
    <path
      d="M90.5269 46.8337C90.1619 47.1668 89.7664 47.3181 89.2797 47.3181C88.9755 47.3181 88.6714 47.2273 88.428 47.1062C88.1542 46.9548 87.9413 46.7126 87.7588 46.4099C87.5763 46.1072 87.4242 45.6833 87.3329 45.199C87.2112 44.6843 87.1808 44.0788 87.1808 43.3523C87.1808 42.0807 87.3329 41.0817 87.6675 40.3854C88.0021 39.6891 88.4584 39.3258 89.0972 39.3258C89.5839 39.3258 90.0098 39.568 90.3748 40.0221C90.7094 40.5065 91.0136 41.2331 91.257 42.2321H91.6828L91.6524 38.9323H91.2265L90.9224 39.2955C90.7094 39.1442 90.4356 38.9928 90.101 38.8717C89.7664 38.7506 89.4318 38.6901 89.0364 38.6901C88.4888 38.6901 88.0021 38.8112 87.5154 39.0534C87.0287 39.2955 86.6333 39.6286 86.2987 40.0524C85.9641 40.4762 85.6903 41.0212 85.5078 41.5964C85.3253 42.2018 85.234 42.8376 85.234 43.5339C85.234 44.2302 85.3253 44.8962 85.5078 45.4714C85.6903 46.0466 85.9641 46.5613 86.2683 46.9548C86.6029 47.3484 86.9983 47.6814 87.4546 47.8933C87.9109 48.1053 88.3976 48.2263 88.9147 48.2263C89.3406 48.2263 89.7056 48.1658 90.0402 48.0144C90.3444 47.8933 90.6486 47.7117 90.8919 47.4695C91.1353 47.2576 91.3482 47.0154 91.5307 46.7126C91.7132 46.4099 91.8653 46.0769 92.0174 45.7136L91.5916 45.3806C91.2266 46.0163 90.8919 46.5007 90.5269 46.8337Z"
      fill="white"/>
    <path
      d="M73.3402 14.8039C72.4276 14.4406 71.3934 14.3801 70.4504 14.5012C69.5378 14.6223 68.5948 14.9553 67.956 15.6213C67.2868 16.3176 66.9218 17.3469 67.1651 18.2854C67.3781 19.1937 68.1385 19.89 69.0815 20.011C69.9637 20.1321 70.8762 19.6175 71.2108 18.7698C71.515 17.9524 71.1804 16.9534 70.3591 16.5901C69.9637 16.4085 69.477 16.4085 69.0815 16.6204C68.899 16.7112 68.7469 16.8626 68.6252 17.0139C68.5644 17.0745 68.4123 17.4075 68.534 17.468C68.6252 17.4983 68.8686 17.2864 68.9598 17.2258C69.1728 17.135 69.3857 17.0745 69.6291 17.1048C70.0245 17.1956 70.2983 17.4983 70.3591 17.8919C70.3895 18.3157 70.0853 18.7093 69.6899 18.8001C69.264 18.9212 68.7773 18.679 68.534 18.3157C68.0169 17.5286 68.6252 16.4993 69.2944 16.0452C70.0549 15.5608 71.0283 15.3791 71.9409 15.4094C75.6216 15.5002 76.5646 19.8294 75.3782 22.8568C75.4391 22.8265 75.4695 22.766 75.5303 22.7357L75.6216 22.6751C75.7129 22.6146 75.7737 22.5238 75.8954 22.4632C76.7775 19.5569 75.8954 15.8332 73.3402 14.8039Z"
      fill="#1890FF"/>
    <path
      d="M101.721 23.5228C101.995 23.1898 102.086 22.7357 101.904 22.3421C101.812 22.1605 101.691 21.9789 101.508 21.888C101.478 21.8578 101.113 21.7064 101.082 21.7972C101.082 21.8578 101.265 21.9789 101.295 21.9789C101.386 22.0697 101.478 22.1908 101.539 22.3421C101.63 22.6146 101.63 22.9173 101.447 23.1293C100.991 23.6742 100.17 23.4623 99.896 22.8568C99.5005 22.0091 100.322 21.1312 101.174 21.0706C101.63 21.0404 102.086 21.222 102.39 21.555C102.695 21.888 102.816 22.3724 102.755 22.8265C102.695 23.3412 102.482 23.7347 102.208 24.0678C102.634 23.7347 103.09 23.3715 103.516 22.9779L103.577 22.9174C103.607 22.7357 103.607 22.5541 103.577 22.3724C103.485 21.4642 102.907 20.6771 102.025 20.3743C101.204 20.1019 100.231 20.3441 99.6526 20.9798C99.0442 21.6156 98.8921 22.6449 99.4397 23.3715C99.9872 24.098 101.113 24.2494 101.721 23.5228Z"
      fill="#1890FF"/>
    <path
      d="M106.071 50.8299C106.497 51.1023 106.862 51.3748 107.014 51.7381C107.44 52.7069 106.679 54.7655 107.835 57.2479C108.079 56.4608 108.961 55.2801 110.208 54.8563C109.995 54.1297 109.417 53.5545 108.87 52.828C108.474 51.4656 108.565 50.618 107.166 50.1639C106.862 50.0125 106.588 49.8611 106.284 49.6795"
      fill="white"/>
    <path
      d="M50.0088 56.9755C47.9708 57.3691 48.7008 59.4277 48.7008 59.4277L45.3547 58.6708C45.5677 60.7597 44.4726 61.7285 44.4726 61.7285C44.4726 61.7285 48.4879 62.334 49.7351 62.1826C50.9518 62.0615 50.7389 61.2744 50.5564 59.8515C50.4955 59.4882 50.526 59.2158 50.5868 59.0341"
      fill="white"/>
    <path
      d="M37.7196 56.2792C41.674 57.7626 43.8034 57.0663 43.8034 57.0663C45.1418 56.7636 47.697 53.7362 48.3662 52.9491C48.6096 52.8885 48.8529 52.7977 49.0354 52.6766C48.7312 51.1629 48.4879 49.6795 48.2445 48.1355C48.1533 47.4695 48.062 46.8035 47.9708 46.1677C45.446 46.3796 45.9631 49.2254 46.2977 50.4363C45.1114 52.3436 43.3471 52.0409 42.5866 54.1298C42.3432 53.4032 41.2786 52.6161 40.5789 52.2831C39.8793 51.95 39.1188 51.8289 38.3888 51.5867C37.6587 51.3748 37.0808 51.0418 36.5941 50.4666C36.9895 50.7996 37.5675 50.8602 38.0542 50.7088C38.5409 50.5574 38.8451 50.1336 39.2709 49.8309C40.1835 49.2557 39.6664 50.7996 39.6664 50.7996C41.3394 49.74 41.1873 48.1355 40.0314 47.9236C38.8451 47.6814 37.9021 50.3758 37.6587 48.1355C37.4762 46.3796 38.9363 46.4402 39.6055 46.531C39.9097 46.5916 40.1835 46.4705 40.366 46.2283C40.7919 45.5925 39.9706 44.9568 39.9706 44.9568C40.3964 44.4118 39.8185 43.8972 39.8185 43.8972L35.4381 43.5036C35.4077 40.5671 31.362 42.8376 30.054 40.8092C30.1452 42.4743 31.1491 42.5651 31.1491 42.5651C25.0348 43.7761 27.0425 51.4354 27.0425 51.4354C27.0121 48.6502 28.5026 47.4695 28.5026 47.4695C26.5558 50.9207 31.4837 53.1913 29.1414 57.036C30.784 56.3095 31.1491 54.6141 31.2099 54.1298C31.0578 55.4921 31.727 56.8241 32.3354 58.0351C32.9742 59.3066 33.613 60.7295 33.248 62.1221C32.9438 63.3028 31.9704 64.211 31.362 65.2403C31.2403 65.4522 31.1186 65.6944 31.0274 65.9063C30.7536 66.3301 30.5103 66.7842 30.2669 67.2384C29.9931 67.7833 29.7498 68.3585 29.5673 68.9942C29.5369 69.1456 29.476 69.297 29.4456 69.4483L29.3239 69.8722C29.2631 70.1446 29.1718 70.4171 29.0806 70.6593C28.8981 71.174 28.6851 71.6281 28.4114 72.0519C28.3505 72.1427 28.2593 72.2335 28.1984 72.3546C28.1376 72.4455 28.0463 72.5363 27.9551 72.5968C27.7726 72.7482 27.59 72.8996 27.4075 73.0207C27.0121 73.2629 26.5558 73.3537 26.1603 73.3537C25.7649 73.3234 25.3999 73.172 25.0653 72.8996C24.7307 72.6271 24.4873 72.2033 24.3048 71.7492C24.2135 71.5372 24.1831 71.2951 24.1527 71.0529C24.1527 70.9318 24.1223 70.8107 24.1223 70.6896C24.1223 70.5685 24.1223 70.4474 24.1223 70.296C24.1831 69.7814 24.3048 69.2667 24.4873 68.7521C24.8828 67.7227 25.5215 66.7237 26.1299 65.6641C26.4341 65.1192 26.7383 64.5742 27.0121 63.999C27.2859 63.4238 27.4684 62.7881 27.6205 62.1523C27.7421 61.456 27.803 60.7295 27.7421 60.0029C27.803 59.9121 27.8638 59.791 27.8942 59.6396C28.168 58.3681 27.6509 56.7939 27.0121 55.7343C26.3429 54.6444 25.3695 53.7362 24.2135 53.1913C24.0614 53.1307 23.9398 53.2821 24.031 53.4335C24.3352 53.827 24.5481 54.3114 24.6698 54.7958C24.8523 55.5526 24.8219 56.37 24.8828 57.1571C24.9436 57.9443 25.0653 58.7617 25.5215 59.4277C25.7953 59.8515 26.4645 60.3056 27.0121 60.3662C26.9817 60.9111 26.86 61.456 26.7079 61.9707C26.4037 63.0606 25.7649 64.0293 25.0957 64.9981C24.4265 65.9669 23.666 66.9962 23.1185 68.1768C22.8447 68.7823 22.6317 69.4181 22.5405 70.1144C22.5101 70.296 22.5101 70.4474 22.5101 70.629C22.5101 70.8107 22.5101 70.9923 22.5101 71.174C22.5405 71.5373 22.6013 71.9005 22.723 72.2336C22.9359 72.9299 23.301 73.5959 23.8789 74.1408C24.1527 74.4133 24.4873 74.6252 24.8828 74.8068C25.2478 74.9885 25.6736 75.0793 26.0691 75.1096C26.8904 75.1701 27.6509 74.9582 28.3201 74.5949C28.6547 74.4133 28.9589 74.2013 29.2327 73.9592C29.3848 73.8381 29.5064 73.6867 29.6281 73.5656C29.7498 73.4142 29.8715 73.2931 29.9627 73.1418C30.3278 72.6271 30.5711 72.1125 30.784 71.5675C30.9361 72.173 31.0882 72.7785 31.3012 73.3537C31.6053 74.2316 31.8791 75.1096 32.0312 76.0178C32.2441 77.4709 30.8753 78.7122 30.8753 78.7122C30.4494 79.1057 30.4798 79.6204 30.6015 80.1653C30.7232 80.9222 31.1186 81.679 31.2707 82.3148C31.5141 83.3441 30.784 83.5257 30.9665 84.7367C30.997 84.888 31.0274 85.0394 31.0882 85.1605C30.4494 85.1302 29.8106 85.1605 29.1718 85.2816C27.8334 85.5541 26.5862 86.2806 25.7649 87.31C25.7345 87.3402 25.7345 87.3705 25.7649 87.4008C25.7953 87.4311 25.8562 87.4613 25.8866 87.431C26.9817 86.765 28.1376 86.3412 29.3239 86.2504C30.5103 86.1293 31.6966 86.3109 32.8829 86.5834C34.0693 86.8861 35.2556 87.31 36.4115 87.7641C37.5979 88.2182 38.7538 88.7328 39.9401 89.1869C39.9706 89.1869 40.0314 89.1869 40.0618 89.1567C40.0922 89.1264 40.0922 89.0658 40.0314 89.0356C38.9972 88.2484 37.9325 87.5521 36.7766 86.9467C35.9248 86.4926 35.0427 86.0687 34.0997 85.766C34.0084 84.6761 32.8525 84.0101 32.8525 84.0101C34.1301 84.1009 34.4343 85.0697 34.4343 85.0697C35.6207 84.888 35.8336 85.766 35.8336 85.766C35.7727 84.1615 34.4647 83.4652 34.4647 83.4652C35.6511 83.3138 35.9857 84.3128 35.9857 84.3128C36.4724 84.3128 36.7462 84.7669 36.7462 84.7669C36.7462 84.3734 36.7157 84.0706 36.6245 83.7982C36.4115 82.9505 35.6815 82.3148 34.7993 82.2542L33.3088 82.1331C32.4267 78.8333 33.7043 78.2883 33.7043 78.2883C33.7043 78.2883 37.3849 75.8664 36.7462 72.1427C35.9248 67.2989 38.6625 65.21 38.6625 65.21C44.9289 61.2441 43.6817 58.7617 43.6817 58.1259C39.8793 58.8828 37.7196 56.2792 37.7196 56.2792Z"
      fill="white"/>
    <path
      d="M73.1273 24.5824C73.5531 24.3099 73.9181 24.0072 74.2528 23.765C74.3744 23.5228 74.4657 23.2806 74.5569 23.0384C75.0741 21.4036 75.1045 19.4964 74.1311 18.013C73.8877 17.6497 73.614 17.3469 73.2794 17.0745C74.7699 18.346 74.9828 20.4349 74.4657 22.221C74.1919 23.0384 73.7661 23.9466 73.1273 24.5824Z"
      fill="#1890FF"/>
  </g>
  <defs>
    <clipPath id="clip0">
      <rect width="159" height="126" fill="white"/>
    </clipPath>
  </defs>
</svg>
