<svg width="26" height="20" viewBox="0 0 26 20" fill="none" xmlns="http://www.w3.org/2000/svg">
<g clip-path="url(#clip0)">
<path d="M9.63607 14.4922V5.46875C8.72135 5.82465 7.97921 6.41276 7.40966 7.23307C6.84012 8.05339 6.55534 8.97135 6.55534 9.98698C6.55534 11.0026 6.84012 11.9206 7.40966 12.7409C7.97921 13.5612 8.72135 14.145 9.63607 14.4922ZM16.16 9.98698C16.16 8.97135 15.8752 8.05339 15.3056 7.23307C14.7361 6.41276 13.994 5.82465 13.0792 5.46875V14.5052C13.994 14.1493 14.7361 13.5612 15.3056 12.7409C15.8752 11.9206 16.16 11.0026 16.16 9.98698ZM18.943 9.98698C18.943 11.3672 18.6043 12.6432 17.9269 13.8151C17.2494 14.987 16.3282 15.9136 15.1633 16.5951C13.9983 17.2765 12.7297 17.6172 11.3577 17.6172C10.3307 17.6172 9.34914 17.4154 8.41284 17.0117C7.47654 16.6081 6.66968 16.0655 5.99227 15.3841C5.31485 14.7027 4.77551 13.8911 4.37424 12.9492C3.97297 12.0074 3.77233 11.02 3.77233 9.98698C3.77233 8.60677 4.11104 7.33073 4.78846 6.15885C5.46587 4.98698 6.38707 4.06033 7.55205 3.37891C8.71703 2.69748 9.98557 2.35677 11.3577 2.35677C12.7297 2.35677 13.9983 2.69748 15.1633 3.37891C16.3282 4.06033 17.2494 4.98698 17.9269 6.15885C18.6043 7.33073 18.943 8.60677 18.943 9.98698ZM23.9006 10.0781C23.9006 8.87153 23.6612 7.73655 23.1822 6.67318C22.7033 5.60981 22.0669 4.71788 21.2729 3.9974C20.479 3.27691 19.5578 2.70833 18.5094 2.29167C17.4609 1.875 16.3714 1.66667 15.2409 1.66667H11.3447C9.82592 1.66667 8.4301 2.01823 7.15725 2.72135C5.8844 3.42448 4.87043 4.42274 4.11535 5.71615C3.36027 7.00955 2.98273 8.46354 2.98273 10.0781C2.98273 11.5625 3.35812 12.9405 4.10888 14.2122C4.85965 15.4839 5.87793 16.4887 7.16372 17.2266C8.44952 17.9644 9.84318 18.3333 11.3447 18.3333H15.2409C16.3541 18.3333 17.4393 18.1141 18.4964 17.6758C19.5535 17.2374 20.479 16.6515 21.2729 15.918C22.0669 15.1845 22.7033 14.3056 23.1822 13.2812C23.6612 12.2569 23.9006 11.1892 23.9006 10.0781ZM26.0593 1.66667V18.3333C26.0593 18.7847 25.8954 19.1753 25.5674 19.5052C25.2395 19.8351 24.8512 20 24.4025 20H1.71619C1.26746 20 0.879128 19.8351 0.551207 19.5052C0.223287 19.1753 0.0593262 18.7847 0.0593262 18.3333V1.66667C0.0593262 1.21528 0.223287 0.824653 0.551207 0.494792C0.879128 0.164931 1.26746 0 1.71619 0H24.4025C24.8512 0 25.2395 0.164931 25.5674 0.494792C25.8954 0.824653 26.0593 1.21528 26.0593 1.66667Z" fill="white"/>
</g>
<defs>
<clipPath id="clip0">
<rect width="26" height="20" fill="white"/>
</clipPath>
</defs>
</svg>
