<svg width="26" height="20" viewBox="0 0 26 20" fill="none" xmlns="http://www.w3.org/2000/svg">
<path d="M1.93504 0.940575V19.0594H12.8784C19.486 19.0594 23.0823 15.9628 23.0823 9.97685C23.0823 3.825 19.1849 0.940575 12.8784 0.940575H1.93504ZM12.8784 0C22.5693 0 24.0164 6.25121 24.0164 9.97685C24.0164 16.4403 20.0614 20 12.8784 20H1V0H12.8784ZM3.4033 11.3081H6.90659V17.5815H3.4033V11.3081ZM7.33143 8.14876C7.33143 8.72954 7.10207 9.28654 6.69381 9.69721C6.28555 10.1079 5.73183 10.3386 5.15446 10.3386C4.5771 10.3386 4.02337 10.1079 3.61511 9.69721C3.20685 9.28654 2.97749 8.72954 2.97749 8.14876C2.97749 7.56797 3.20685 7.01097 3.61511 6.6003C4.02337 6.18962 4.5771 5.9589 5.15446 5.9589C5.73183 5.9589 6.28555 6.18962 6.69381 6.6003C7.10207 7.01097 7.33143 7.56797 7.33143 8.14876ZM8.67022 7.12908V9.17422H9.29358C9.72514 9.17422 10.1251 9.04881 10.1251 8.13525C10.1251 7.24387 9.68103 7.12908 9.29358 7.12908H8.67022ZM19.0756 6.11229H20.0854V9.17422H21.5815C21.171 3.61953 16.8267 2.41945 12.8793 2.41945H8.67118V6.11422H9.29454C10.4291 6.11422 11.1359 6.88887 11.1359 8.13525C11.1359 9.42118 10.4463 10.1891 9.29454 10.1891H8.67118V17.5834H12.8793C19.2971 17.5834 21.5306 14.5861 21.6093 10.1891H19.0775V6.11133L19.0756 6.11229ZM16.2656 8.38703H16.9945L16.6608 7.23423H16.6003L16.2647 8.38703H16.2656ZM14.69 10.191L15.9118 6.11229H17.3474L18.5692 10.19H17.5191L17.2899 9.40093H15.9703L15.7401 10.19H14.69V10.191ZM14.2057 9.17422V10.1891H11.7093V6.11422H14.1251V7.12908H12.7182V7.60177H14.0484V8.6147H12.7192V9.17422H14.2057Z" fill="white"/>
</svg>
