<svg width="26" height="20" viewBox="0 0 26 20" fill="none" xmlns="http://www.w3.org/2000/svg">
<path d="M19.191 9.47768V8.03571C21.0234 8.03571 20.9033 8.04464 20.9033 8.04464C21.228 8.10268 21.4948 8.37053 21.4948 8.75893C21.4948 9.15178 21.228 9.40625 20.9033 9.46428C20.8499 9.48214 20.7565 9.47768 19.191 9.47768ZM21.0945 10.3795C20.97 10.3482 20.9478 10.3571 19.191 10.3571V11.9196C20.9522 11.9196 20.97 11.9286 21.0945 11.8973C21.4281 11.8304 21.6949 11.5402 21.6949 11.1384C21.6949 10.75 21.4281 10.4464 21.0945 10.3795ZM26 2.14286V17.8571C26 19.0402 25.0438 20 23.8652 20H2.1348C0.956214 20 0 19.0402 0 17.8571V2.14286C0 0.959821 0.956214 0 2.1348 0H23.8652C25.0438 0 26 0.959821 26 2.14286ZM8.09447 7.15625H5.55939C5.55939 10.1518 6.03527 12.0536 3.96718 12.0536C3.09991 12.0536 2.24154 11.7991 1.4232 11.3929V12.6429C2.75746 13.0134 4.44751 13.0134 4.44751 13.0134C8.80162 13.0134 8.09447 10.8839 8.09447 7.15625ZM16.0333 7.35714C13.2135 6.64286 8.69488 6.69196 8.69488 10.0045C8.69488 13.4464 13.5071 13.2902 16.0333 12.6473V11.3839C13.9163 12.4866 11.2522 12.3661 11.2522 10C11.2522 7.63393 13.9118 7.51786 16.0333 8.60714V7.35714ZM24.1944 11.3616C24.1944 10.5357 23.4606 10 22.5044 9.93303V9.89732C23.3717 9.77678 23.852 9.20536 23.852 8.54911C23.852 7.70089 23.1537 7.20982 22.2064 7.16518C22.2064 7.16518 22.4866 7.15179 16.8561 7.15179V12.8438H22.3132C23.3939 12.8482 24.1944 12.2679 24.1944 11.3616Z" fill="white"/>
</svg>
