<svg width="26" height="20" viewBox="0 0 26 20" fill="none" xmlns="http://www.w3.org/2000/svg">
<g clip-path="url(#clip0)">
<path d="M21.8371 16.8438C21.8371 17.1473 21.6295 17.3661 21.3316 17.3661C21.0246 17.3661 20.826 17.1339 20.826 16.8438C20.826 16.5536 21.0246 16.3214 21.3316 16.3214C21.6295 16.3214 21.8371 16.5536 21.8371 16.8438ZM7.80795 16.3214C7.48747 16.3214 7.3024 16.5536 7.3024 16.8438C7.3024 17.1339 7.48747 17.3661 7.80795 17.3661C8.10136 17.3661 8.29997 17.1473 8.29997 16.8438C8.29545 16.5536 8.10136 16.3214 7.80795 16.3214ZM13.1118 16.308C12.868 16.308 12.7191 16.4643 12.683 16.6964H13.5451C13.5045 16.442 13.3465 16.308 13.1118 16.308ZM17.9777 16.3214C17.6708 16.3214 17.4857 16.5536 17.4857 16.8438C17.4857 17.1339 17.6708 17.3661 17.9777 17.3661C18.2847 17.3661 18.4833 17.1473 18.4833 16.8438C18.4833 16.5536 18.2847 16.3214 17.9777 16.3214ZM22.758 17.4866C22.758 17.5 22.7715 17.5089 22.7715 17.5357C22.7715 17.5491 22.758 17.558 22.758 17.5848C22.7444 17.5982 22.7444 17.6071 22.7354 17.6205C22.7218 17.6339 22.7128 17.6429 22.6857 17.6429C22.6722 17.6563 22.6632 17.6562 22.6361 17.6562C22.6225 17.6562 22.6135 17.6563 22.5864 17.6429C22.5729 17.6429 22.5639 17.6295 22.5503 17.6205C22.5368 17.6071 22.5277 17.5982 22.5277 17.5848C22.5142 17.5625 22.5142 17.5491 22.5142 17.5357C22.5142 17.5134 22.5142 17.5 22.5277 17.4866C22.5277 17.4643 22.5413 17.4509 22.5503 17.4375C22.5639 17.4241 22.5729 17.4241 22.5864 17.4152C22.609 17.4018 22.6225 17.4018 22.6361 17.4018C22.6586 17.4018 22.6722 17.4018 22.6857 17.4152C22.7083 17.4286 22.7218 17.4286 22.7354 17.4375C22.7489 17.4464 22.7444 17.4643 22.758 17.4866ZM22.6586 17.5491C22.6812 17.5491 22.6812 17.5357 22.6948 17.5357C22.7083 17.5223 22.7083 17.5134 22.7083 17.5C22.7083 17.4866 22.7083 17.4777 22.6948 17.4643C22.6812 17.4643 22.6722 17.4509 22.6451 17.4509H22.5729V17.6071H22.609V17.5446H22.6225L22.6722 17.6071H22.7083L22.6586 17.5491ZM26.0396 2.14286V17.8571C26.0396 19.0402 25.0691 20 23.8729 20H2.20622C1.01004 20 0.0395508 19.0402 0.0395508 17.8571V2.14286C0.0395508 0.959821 1.01004 0 2.20622 0H23.8729C25.0691 0 26.0396 0.959821 26.0396 2.14286ZM2.92844 8.375C2.92844 11.7902 5.73156 14.558 9.18018 14.558C10.408 14.558 11.6132 14.192 12.6333 13.5268C9.34268 10.8795 9.36524 5.88393 12.6333 3.23661C11.6132 2.56696 10.408 2.20536 9.18018 2.20536C5.73156 2.20089 2.92844 4.97321 2.92844 8.375ZM13.0396 13.2321C16.2218 10.7768 16.2083 5.99107 13.0396 3.52232C9.8708 5.99107 9.85726 10.7812 13.0396 13.2321ZM6.61629 16.6384C6.61629 16.25 6.35899 15.9955 5.95274 15.9821C5.74511 15.9821 5.52393 16.0446 5.37497 16.2723C5.26663 16.0893 5.08156 15.9821 4.82427 15.9821C4.65275 15.9821 4.48122 16.0446 4.3458 16.2232V16.0268H3.97566V17.6652H4.3458C4.3458 16.8214 4.23295 16.317 4.75205 16.317C5.21247 16.317 5.12219 16.7723 5.12219 17.6652H5.47879C5.47879 16.8482 5.36594 16.317 5.88504 16.317C6.34545 16.317 6.25518 16.7634 6.25518 17.6652H6.62531V16.6384H6.61629ZM8.64302 16.0268H8.28643V16.2232C8.16455 16.0759 7.99302 15.9821 7.7583 15.9821C7.29337 15.9821 6.93677 16.3482 6.93677 16.8438C6.93677 17.3438 7.29337 17.7054 7.7583 17.7054C7.99302 17.7054 8.16455 17.6205 8.28643 17.4643V17.6696H8.64302V16.0268ZM10.4711 17.1696C10.4711 16.5 9.43747 16.8036 9.43747 16.4911C9.43747 16.2366 9.97462 16.2768 10.2725 16.442L10.4215 16.1518C9.99719 15.8795 9.0583 15.8839 9.0583 16.5179C9.0583 17.1562 10.092 16.8884 10.092 17.1875C10.092 17.4688 9.48261 17.4464 9.15761 17.2232L8.99962 17.5045C9.50518 17.8438 10.4711 17.7723 10.4711 17.1696ZM12.0691 17.5848L11.9698 17.2812C11.7982 17.375 11.4191 17.4777 11.4191 17.0982V16.3571H12.0104V16.0268H11.4191V15.5268H11.0489V16.0268H10.7059V16.3527H11.0489V17.0982C11.0489 17.8839 11.8298 17.7411 12.0691 17.5848ZM12.6694 16.9866H13.9107C13.9107 16.2634 13.5767 15.9777 13.1253 15.9777C12.6468 15.9777 12.3038 16.3304 12.3038 16.8393C12.3038 17.7545 13.3239 17.9062 13.8295 17.4732L13.658 17.2054C13.3059 17.4911 12.7732 17.4643 12.6694 16.9866ZM15.3371 16.0268C15.1295 15.9375 14.8135 15.9464 14.651 16.2232V16.0268H14.2809V17.6652H14.651V16.7411C14.651 16.2232 15.0798 16.2902 15.2288 16.3661L15.3371 16.0268ZM15.8156 16.8438C15.8156 16.3348 16.3392 16.1696 16.75 16.4688L16.9215 16.1786C16.3979 15.7723 15.4455 15.9955 15.4455 16.8482C15.4455 17.7321 16.4566 17.9107 16.9215 17.5179L16.75 17.2277C16.3347 17.5179 15.8156 17.3438 15.8156 16.8438ZM18.8264 16.0268H18.4562V16.2232C18.0816 15.7321 17.1066 16.0089 17.1066 16.8438C17.1066 17.7009 18.1177 17.9464 18.4562 17.4643V17.6696H18.8264V16.0268ZM20.3475 16.0268C20.2392 15.9732 19.851 15.8973 19.6614 16.2232V16.0268H19.3048V17.6652H19.6614V16.7411C19.6614 16.25 20.0677 16.2812 20.2392 16.3661L20.3475 16.0268ZM22.1666 15.3616H21.81V16.2232C21.4399 15.7366 20.4604 15.9955 20.4604 16.8438C20.4604 17.7098 21.476 17.942 21.81 17.4643V17.6696H22.1666V15.3616ZM22.5097 12.0089V12.2143H22.5458V12.0089H22.6316V11.9732H22.4239V12.0089H22.5097ZM22.8076 17.5357C22.8076 17.5134 22.8076 17.4866 22.7941 17.4643C22.7805 17.4509 22.7715 17.4286 22.758 17.4152C22.7444 17.4018 22.7218 17.3929 22.7083 17.3795C22.6857 17.3795 22.6586 17.3661 22.6361 17.3661C22.6225 17.3661 22.6 17.3795 22.5729 17.3795C22.5503 17.3929 22.5368 17.4018 22.5232 17.4152C22.5007 17.4286 22.4871 17.4509 22.4871 17.4643C22.4736 17.4866 22.4736 17.5134 22.4736 17.5357C22.4736 17.5491 22.4736 17.5714 22.4871 17.5982C22.4871 17.6116 22.5007 17.6339 22.5232 17.6473C22.5368 17.6607 22.5458 17.6696 22.5729 17.683C22.5955 17.6964 22.6225 17.6964 22.6361 17.6964C22.6586 17.6964 22.6857 17.6964 22.7083 17.683C22.7218 17.6696 22.7444 17.6607 22.758 17.6473C22.7715 17.6339 22.7805 17.6116 22.7941 17.5982C22.8076 17.5714 22.8076 17.5491 22.8076 17.5357ZM22.9521 11.9688H22.8889L22.8166 12.125L22.7444 11.9688H22.6812V12.2098H22.7173V12.0268L22.7896 12.183H22.8392L22.9024 12.0268V12.2098H22.9521V11.9688ZM23.1507 8.375C23.1507 4.97321 20.3475 2.20089 16.8989 2.20089C15.6711 2.20089 14.4659 2.56696 13.4458 3.23214C16.7003 5.87946 16.75 10.8884 13.4458 13.5223C14.4659 14.192 15.6802 14.5536 16.8989 14.5536C20.3475 14.558 23.1507 11.7902 23.1507 8.375Z" fill="white"/>
</g>
<defs>
<clipPath id="clip0">
<rect width="26" height="20" fill="white"/>
</clipPath>
</defs>
</svg>
