<svg width="77" height="76" viewBox="0 0 77 76" fill="none" xmlns="http://www.w3.org/2000/svg">
<g clip-path="url(#clip0)">
<path d="M23.5179 53.4375H54.0668V22.5625H23.5179V53.4375ZM32.9175 33.25C32.9179 32.9352 33.0417 32.6333 33.262 32.4107C33.4823 32.188 33.781 32.0628 34.0925 32.0625H43.4922C43.8037 32.0628 44.1024 32.188 44.3226 32.4107C44.5429 32.6333 44.6668 32.9352 44.6671 33.25V42.75C44.6668 43.0648 44.5429 43.3667 44.3226 43.5893C44.1024 43.812 43.8037 43.9372 43.4922 43.9375H34.0925C33.781 43.9372 33.4823 43.812 33.262 43.5893C33.0417 43.3667 32.9179 43.0648 32.9175 42.75V33.25Z" fill="white"/>
<path d="M69.9287 36.8125C70.0829 36.813 70.2356 36.7822 70.3779 36.722C70.5202 36.6619 70.6491 36.5735 70.757 36.4622L76.0443 31.1184C76.264 30.8964 76.3874 30.5953 76.3874 30.2812C76.3874 29.9672 76.264 29.6661 76.0443 29.4441C75.8246 29.222 75.5267 29.0973 75.216 29.0973C74.9053 29.0973 74.6073 29.222 74.3876 29.4441L69.4411 34.4375H65.2288V32.0625H67.5788C67.733 32.063 67.8857 32.0322 68.028 31.972C68.1703 31.9119 68.2992 31.8235 68.4071 31.7122L73.1069 26.9622C73.2171 26.8531 73.3045 26.7228 73.364 26.579C73.4236 26.4352 73.454 26.2809 73.4535 26.125V8.3125H74.041C74.3496 8.31258 74.6553 8.25121 74.9404 8.13189C75.2255 8.01256 75.4846 7.83762 75.7028 7.61707C75.9211 7.39651 76.0942 7.13466 76.2122 6.84647C76.3303 6.55829 76.391 6.24941 76.3909 5.9375V2.375C76.391 2.06309 76.3303 1.75421 76.2122 1.46602C76.0942 1.17783 75.9211 0.915982 75.7029 0.695425C75.4846 0.474868 75.2255 0.29993 74.9404 0.180607C74.6553 0.061283 74.3496 -8.80583e-05 74.041 9.48322e-08H70.5162C70.2075 -8.80583e-05 69.9019 0.061283 69.6168 0.180607C69.3316 0.29993 69.0725 0.474868 68.8543 0.695425C68.6361 0.915982 68.463 1.17783 68.3449 1.46602C68.2269 1.75421 68.1661 2.06309 68.1662 2.375V5.9375C68.1662 6.24941 68.2269 6.55829 68.3449 6.84647C68.463 7.13466 68.6361 7.39651 68.8543 7.61707C69.0725 7.83762 69.3316 8.01256 69.6168 8.13189C69.9019 8.25121 70.2075 8.31258 70.5162 8.3125H71.1036V25.6322L67.0911 29.6875H65.2288V14.8438C65.2281 13.8991 64.8565 12.9934 64.1956 12.3255C63.5347 11.6576 62.6386 11.282 61.704 11.2812H15.8807C14.946 11.282 14.0499 11.6576 13.389 12.3255C12.7281 12.9934 12.3565 13.8991 12.3558 14.8438V29.6875H10.4935L6.481 25.6322V8.3125H7.06848C7.3771 8.31258 7.68271 8.25121 7.96786 8.13189C8.253 8.01256 8.51208 7.83762 8.73031 7.61707C8.94854 7.39651 9.12163 7.13466 9.23969 6.84647C9.35776 6.55829 9.41848 6.24941 9.4184 5.9375V2.375C9.41848 2.06309 9.35776 1.75421 9.2397 1.46602C9.12163 1.17783 8.94854 0.915982 8.73032 0.695425C8.51209 0.474868 8.253 0.29993 7.96786 0.180607C7.68272 0.061283 7.3771 -8.80583e-05 7.06848 9.48322e-08H3.54361C3.23499 -8.80583e-05 2.92938 0.061283 2.64424 0.180607C2.35909 0.29993 2.10001 0.474868 1.88178 0.695425C1.66355 0.915982 1.49046 1.17783 1.3724 1.46602C1.25433 1.75421 1.19361 2.06309 1.1937 2.375V5.9375C1.19362 6.24941 1.25434 6.55829 1.3724 6.84647C1.49047 7.13466 1.66356 7.39651 1.88179 7.61707C2.10001 7.83762 2.3591 8.01256 2.64424 8.13189C2.92938 8.25121 3.23499 8.31258 3.54361 8.3125H4.13109V26.125C4.13064 26.2809 4.16107 26.4352 4.2206 26.579C4.28013 26.7228 4.36755 26.8531 4.4777 26.9622L9.17753 31.7122C9.28547 31.8235 9.41437 31.9119 9.55664 31.972C9.69891 32.0322 9.85166 32.063 10.0059 32.0625H12.3558V34.4375H8.14357L3.197 29.4441C3.08902 29.3327 2.96014 29.2442 2.81791 29.1838C2.67567 29.1234 2.52294 29.0923 2.36866 29.0923C2.21437 29.0923 2.06164 29.1234 1.9194 29.1838C1.77717 29.2442 1.64829 29.3327 1.54031 29.4441C1.4301 29.5532 1.34255 29.6834 1.28278 29.8272C1.223 29.971 1.19221 30.1253 1.19221 30.2812C1.19221 30.4372 1.223 30.5915 1.28278 30.7353C1.34255 30.8791 1.4301 31.0093 1.54031 31.1184L6.82762 36.4622C6.93555 36.5735 7.06446 36.6619 7.20672 36.722C7.34899 36.7822 7.50174 36.813 7.65596 36.8125H12.3558V39.1875H7.65596C7.50174 39.187 7.34899 39.2178 7.20672 39.278C7.06446 39.3381 6.93555 39.4265 6.82762 39.5378L1.54031 44.8816C1.4301 44.9907 1.34255 45.1209 1.28278 45.2647C1.223 45.4085 1.19221 45.5628 1.19221 45.7188C1.19221 45.8747 1.223 46.029 1.28278 46.1728C1.34255 46.3166 1.4301 46.4468 1.54031 46.5559C1.64852 46.6669 1.77747 46.755 1.91968 46.8152C2.06188 46.8753 2.21449 46.9063 2.36864 46.9063C2.52279 46.9063 2.67541 46.8753 2.81761 46.8152C2.95981 46.755 3.08876 46.6669 3.19697 46.5559L8.14357 41.5625H12.3558V43.9375H10.0059C9.85166 43.937 9.6989 43.9678 9.55664 44.028C9.41437 44.0881 9.28547 44.1765 9.17753 44.2878L4.4777 49.0378C4.36755 49.1469 4.28013 49.2772 4.2206 49.421C4.16107 49.5648 4.13064 49.7191 4.13109 49.875V67.6875H3.54361C3.23499 67.6874 2.92938 67.7488 2.64424 67.8681C2.35909 67.9874 2.10001 68.1624 1.88178 68.3829C1.66355 68.6035 1.49046 68.8653 1.3724 69.1535C1.25433 69.4417 1.19361 69.7506 1.1937 70.0625V73.625C1.19362 73.9369 1.25434 74.2458 1.3724 74.534C1.49047 74.8222 1.66356 75.084 1.88179 75.3046C2.10001 75.5251 2.3591 75.7001 2.64424 75.8194C2.92938 75.9387 3.23499 76.0001 3.54361 76H7.06848C7.3771 76.0001 7.68271 75.9387 7.96786 75.8194C8.253 75.7001 8.51208 75.5251 8.73031 75.3046C8.94854 75.084 9.12163 74.8222 9.23969 74.534C9.35776 74.2458 9.41848 73.9369 9.4184 73.625V70.0625C9.41848 69.7506 9.35776 69.4417 9.2397 69.1535C9.12163 68.8653 8.94854 68.6035 8.73032 68.3829C8.51209 68.1624 8.253 67.9874 7.96786 67.8681C7.68272 67.7488 7.3771 67.6874 7.06848 67.6875H6.481V50.3678L10.4935 46.3125H12.3558V61.1562C12.3565 62.1009 12.7281 63.0066 13.389 63.6745C14.0499 64.3424 14.946 64.718 15.8807 64.7188H61.704C62.6386 64.718 63.5347 64.3424 64.1956 63.6745C64.8565 63.0066 65.2281 62.1009 65.2288 61.1562V46.3125H67.0911L71.1036 50.3678V67.6875H70.5162C70.2075 67.6874 69.9019 67.7488 69.6168 67.8681C69.3316 67.9874 69.0725 68.1624 68.8543 68.3829C68.6361 68.6035 68.463 68.8653 68.3449 69.1535C68.2269 69.4417 68.1661 69.7506 68.1662 70.0625V73.625C68.1662 73.9369 68.2269 74.2458 68.3449 74.534C68.463 74.8222 68.6361 75.084 68.8543 75.3046C69.0725 75.5251 69.3316 75.7001 69.6168 75.8194C69.9019 75.9387 70.2075 76.0001 70.5162 76H74.041C74.3496 76.0001 74.6553 75.9387 74.9404 75.8194C75.2255 75.7001 75.4846 75.5251 75.7028 75.3046C75.9211 75.084 76.0942 74.8222 76.2122 74.534C76.3303 74.2458 76.391 73.9369 76.3909 73.625V70.0625C76.391 69.7506 76.3303 69.4417 76.2122 69.1535C76.0942 68.8653 75.9211 68.6035 75.7029 68.3829C75.4846 68.1624 75.2255 67.9874 74.9404 67.8681C74.6553 67.7488 74.3496 67.6874 74.041 67.6875H73.4535V49.875C73.454 49.7191 73.4236 49.5648 73.364 49.421C73.3045 49.2772 73.2171 49.1469 73.1069 49.0378L68.4071 44.2878C68.2992 44.1765 68.1703 44.0881 68.028 44.028C67.8857 43.9678 67.733 43.937 67.5788 43.9375H65.2288V41.5625H69.4411L74.3876 46.5559C74.4964 46.6659 74.6256 46.7531 74.7677 46.8126C74.9098 46.8721 75.0621 46.9027 75.216 46.9027C75.3698 46.9027 75.5221 46.8721 75.6643 46.8126C75.8064 46.7531 75.9355 46.6659 76.0443 46.5559C76.1531 46.446 76.2394 46.3155 76.2983 46.1718C76.3571 46.0282 76.3874 45.8742 76.3874 45.7188C76.3874 45.5633 76.3571 45.4093 76.2983 45.2657C76.2394 45.122 76.1531 44.9915 76.0443 44.8816L70.757 39.5378C70.6491 39.4265 70.5202 39.3381 70.3779 39.278C70.2356 39.2178 70.0829 39.187 69.9287 39.1875H65.2288V36.8125H69.9287ZM58.7666 30.875C59.0782 30.875 59.3771 31.0001 59.5974 31.2228C59.8177 31.4455 59.9415 31.7476 59.9415 32.0625C59.9415 32.3774 59.8177 32.6795 59.5974 32.9022C59.3771 33.1249 59.0782 33.25 58.7666 33.25H56.4167V36.8125H58.7666C59.0782 36.8125 59.3771 36.9376 59.5974 37.1603C59.8177 37.383 59.9415 37.6851 59.9415 38C59.9415 38.3149 59.8177 38.617 59.5974 38.8397C59.3771 39.0624 59.0782 39.1875 58.7666 39.1875H56.4167V42.75H58.7666C59.0782 42.75 59.3771 42.8751 59.5974 43.0978C59.8177 43.3205 59.9415 43.6226 59.9415 43.9375C59.9415 44.2524 59.8177 44.5545 59.5974 44.7772C59.3771 44.9999 59.0782 45.125 58.7666 45.125H56.4167V48.6875H58.7666C59.0782 48.6875 59.3771 48.8126 59.5974 49.0353C59.8177 49.258 59.9415 49.5601 59.9415 49.875C59.9415 50.1899 59.8177 50.492 59.5974 50.7147C59.3771 50.9374 59.0782 51.0625 58.7666 51.0625H56.4167V53.4375C56.4168 53.7494 56.356 54.0583 56.238 54.3465C56.1199 54.6347 55.9468 54.8965 55.7286 55.1171C55.5104 55.3376 55.2513 55.5126 54.9661 55.6319C54.681 55.7512 54.3754 55.8126 54.0668 55.8125H51.7168V58.1875C51.7168 58.5024 51.5931 58.8045 51.3727 59.0272C51.1524 59.2499 50.8535 59.375 50.5419 59.375C50.2303 59.375 49.9314 59.2499 49.7111 59.0272C49.4907 58.8045 49.3669 58.5024 49.3669 58.1875V55.8125H45.8421V58.1875C45.8421 58.5024 45.7183 58.8045 45.4979 59.0272C45.2776 59.2499 44.9787 59.375 44.6671 59.375C44.3555 59.375 44.0566 59.2499 43.8363 59.0272C43.6159 58.8045 43.4921 58.5024 43.4921 58.1875V55.8125H39.9673V58.1875C39.9673 58.5024 39.8435 58.8045 39.6231 59.0272C39.4028 59.2499 39.1039 59.375 38.7923 59.375C38.4807 59.375 38.1818 59.2499 37.9615 59.0272C37.7411 58.8045 37.6174 58.5024 37.6174 58.1875V55.8125H34.0925V58.1875C34.0925 58.5024 33.9687 58.8045 33.7484 59.0272C33.528 59.2499 33.2291 59.375 32.9175 59.375C32.6059 59.375 32.3071 59.2499 32.0867 59.0272C31.8664 58.8045 31.7426 58.5024 31.7426 58.1875V55.8125H28.2177V58.1875C28.2177 58.5024 28.0939 58.8045 27.8736 59.0272C27.6532 59.2499 27.3544 59.375 27.0427 59.375C26.7311 59.375 26.4323 59.2499 26.2119 59.0272C25.9916 58.8045 25.8678 58.5024 25.8678 58.1875V55.8125H23.5179C23.2093 55.8126 22.9036 55.7512 22.6185 55.6319C22.3334 55.5126 22.0743 55.3376 21.8561 55.1171C21.6378 54.8965 21.4647 54.6347 21.3467 54.3465C21.2286 54.0583 21.1679 53.7494 21.168 53.4375V51.0625H18.8181C18.5064 51.0625 18.2076 50.9374 17.9872 50.7147C17.7669 50.492 17.6431 50.1899 17.6431 49.875C17.6431 49.5601 17.7669 49.258 17.9872 49.0353C18.2076 48.8126 18.5064 48.6875 18.8181 48.6875H21.168V45.125H18.8181C18.5064 45.125 18.2076 44.9999 17.9872 44.7772C17.7669 44.5545 17.6431 44.2524 17.6431 43.9375C17.6431 43.6226 17.7669 43.3205 17.9872 43.0978C18.2076 42.8751 18.5064 42.75 18.8181 42.75H21.168V39.1875H18.8181C18.5064 39.1875 18.2076 39.0624 17.9872 38.8397C17.7669 38.617 17.6431 38.3149 17.6431 38C17.6431 37.6851 17.7669 37.383 17.9872 37.1603C18.2076 36.9376 18.5064 36.8125 18.8181 36.8125H21.168V33.25H18.8181C18.5064 33.25 18.2076 33.1249 17.9872 32.9022C17.7669 32.6795 17.6431 32.3774 17.6431 32.0625C17.6431 31.7476 17.7669 31.4455 17.9872 31.2228C18.2076 31.0001 18.5064 30.875 18.8181 30.875H21.168V27.3125H18.8181C18.5064 27.3125 18.2076 27.1874 17.9872 26.9647C17.7669 26.742 17.6431 26.4399 17.6431 26.125C17.6431 25.8101 17.7669 25.508 17.9872 25.2853C18.2076 25.0626 18.5064 24.9375 18.8181 24.9375H21.168V22.5625C21.1679 22.2506 21.2286 21.9417 21.3467 21.6535C21.4647 21.3653 21.6378 21.1035 21.856 20.8829C22.0743 20.6624 22.3334 20.4874 22.6185 20.3681C22.9036 20.2488 23.2093 20.1874 23.5179 20.1875H25.8678V17.8125C25.8678 17.4976 25.9916 17.1955 26.2119 16.9728C26.4323 16.7501 26.7311 16.625 27.0427 16.625C27.3544 16.625 27.6532 16.7501 27.8736 16.9728C28.0939 17.1955 28.2177 17.4976 28.2177 17.8125V20.1875H31.7426V17.8125C31.7426 17.4976 31.8664 17.1955 32.0867 16.9728C32.3071 16.7501 32.6059 16.625 32.9175 16.625C33.2291 16.625 33.528 16.7501 33.7484 16.9728C33.9687 17.1955 34.0925 17.4976 34.0925 17.8125V20.1875H37.6174V17.8125C37.6174 17.4976 37.7411 17.1955 37.9615 16.9728C38.1818 16.7501 38.4807 16.625 38.7923 16.625C39.1039 16.625 39.4028 16.7501 39.6231 16.9728C39.8435 17.1955 39.9673 17.4976 39.9673 17.8125V20.1875H43.4921V17.8125C43.4921 17.4976 43.6159 17.1955 43.8363 16.9728C44.0566 16.7501 44.3555 16.625 44.6671 16.625C44.9787 16.625 45.2776 16.7501 45.4979 16.9728C45.7183 17.1955 45.8421 17.4976 45.8421 17.8125V20.1875H49.3669V17.8125C49.3669 17.4976 49.4907 17.1955 49.7111 16.9728C49.9314 16.7501 50.2303 16.625 50.5419 16.625C50.8535 16.625 51.1524 16.7501 51.3727 16.9728C51.5931 17.1955 51.7168 17.4976 51.7168 17.8125V20.1875H54.0668C54.3754 20.1874 54.681 20.2488 54.9661 20.3681C55.2513 20.4874 55.5104 20.6624 55.7286 20.8829C55.9468 21.1035 56.1199 21.3653 56.238 21.6535C56.356 21.9417 56.4168 22.2506 56.4167 22.5625V24.9375H58.7666C59.0782 24.9375 59.3771 25.0626 59.5974 25.2853C59.8177 25.508 59.9415 25.8101 59.9415 26.125C59.9415 26.4399 59.8177 26.742 59.5974 26.9647C59.3771 27.1874 59.0782 27.3125 58.7666 27.3125H56.4167V30.875H58.7666Z" fill="white"/>
</g>
<defs>
<clipPath id="clip0">
<rect width="75.7847" height="76" fill="white" transform="translate(0.606232)"/>
</clipPath>
</defs>
</svg>
