<svg width="20" height="20" viewBox="0 0 20 20" fill="none" xmlns="http://www.w3.org/2000/svg">
<path d="M20 3.61625C19.8662 3.89869 19.6172 4.25544 19.2531 4.68649C18.8889 5.11754 18.4393 5.49659 17.9041 5.8236C17.919 5.94254 17.9302 6.054 17.9376 6.15805C17.9953 7.76005 17.6116 9.42217 17.0792 10.8069C16.0472 13.3814 14.4659 15.4535 12.2074 16.8604C9.85212 18.2114 7.10915 18.4987 4.58193 18.2539C2.90417 18.0612 1.25055 17.5134 0 16.4814C2.28722 16.7548 4.42175 15.9767 6.10925 14.7199C4.23472 14.7674 2.87273 13.4113 2.22967 11.8437C2.51955 11.9196 2.8228 11.9105 3.09923 11.8883C3.4395 11.8563 3.7625 11.8244 4.08028 11.7545C2.885 11.3689 1.83913 10.6599 1.29322 9.59172C0.973 8.91489 0.828417 8.27035 0.825 7.54044C1.38508 7.83532 2.0588 8.12272 2.67562 8.09784C1.74408 7.30872 0.997283 6.30022 0.85845 5.14354C0.7708 4.1791 1.01213 3.29874 1.36013 2.4791C2.75358 4.01052 4.31705 5.2708 6.12043 6.04655C7.35373 6.55159 8.58353 6.82167 9.85512 6.82692C9.70833 5.69117 9.82247 4.59275 10.3568 3.6608C10.9856 2.65884 11.9031 2.0775 12.9321 1.78789C14.4044 1.41035 15.8403 1.94364 16.7448 2.9696C17.7201 2.86425 18.6545 2.43155 19.3981 1.98855C19.0821 2.94539 18.4668 3.89675 17.5698 4.35199C18.4239 4.19385 19.2389 3.941 20 3.61625Z" fill="white"/>
</svg>
