<svg width="26" height="20" viewBox="0 0 26 20" fill="none" xmlns="http://www.w3.org/2000/svg">
<g clip-path="url(#clip0)">
<path d="M21.2396 8.89732C21.2396 8.89732 21.5826 10.558 21.6594 10.9062H20.1517C20.3007 10.5089 20.8739 8.96429 20.8739 8.96429C20.8649 8.97768 21.0229 8.55804 21.1132 8.29911L21.2396 8.89732ZM26.0198 2.14286V17.8571C26.0198 19.0402 25.0493 20 23.8531 20H2.18644C0.990261 20 0.0197754 19.0402 0.0197754 17.8571V2.14286C0.0197754 0.959821 0.990261 0 2.18644 0H23.8531C25.0493 0 26.0198 0.959821 26.0198 2.14286ZM6.90346 13.3571L9.75623 6.42857H7.83783L6.06387 11.1607L5.86978 10.2009L5.23783 7.01339C5.13401 6.57143 4.81353 6.44643 4.4163 6.42857H1.49582L1.46422 6.56696C2.17741 6.74554 2.81387 7.00446 3.36908 7.33036L4.98505 13.3571H6.90346ZM11.1646 13.3661L12.3021 6.42857H10.4875L9.3545 13.3661H11.1646ZM17.4795 11.0982C17.4885 10.308 17.001 9.70536 15.9583 9.20982C15.3219 8.89286 14.9337 8.67857 14.9337 8.35268C14.9427 8.05804 15.2632 7.75446 15.9764 7.75446C16.5677 7.74107 17.001 7.87946 17.326 8.01786L17.4885 8.09375L17.7368 6.59375C17.3802 6.45536 16.8114 6.29911 16.1118 6.29911C14.3198 6.29911 13.0604 7.24554 13.0514 8.59375C13.0378 9.58929 13.9542 10.1429 14.6403 10.4777C15.3399 10.817 15.5792 11.0402 15.5792 11.3393C15.5701 11.8036 15.0104 12.0179 14.4913 12.0179C13.7691 12.0179 13.3809 11.9062 12.7896 11.6473L12.5503 11.5357L12.2976 13.0938C12.7219 13.2857 13.5073 13.4554 14.3198 13.4643C16.2246 13.4688 17.466 12.5357 17.4795 11.0982ZM23.8531 13.3661L22.3906 6.42857H20.9868C20.5535 6.42857 20.2239 6.55357 20.0389 7.00446L17.3441 13.3661H19.2489C19.2489 13.3661 19.5604 12.5089 19.6281 12.3259H21.9573C22.0114 12.5714 22.1739 13.3661 22.1739 13.3661H23.8531Z" fill="white"/>
</g>
<defs>
<clipPath id="clip0">
<rect width="26" height="20" fill="white"/>
</clipPath>
</defs>
</svg>
