<svg width="30" height="30" viewBox="0 0 30 30" fill="none" xmlns="http://www.w3.org/2000/svg">
  <path
    d="M12.8105 16.2559L6.53516 16.2559C6.20703 16.2559 5.95508 16.3379 5.7793 16.502C5.60352 16.666 5.46289 16.959 5.35742 17.3809L4.84766 17.3809V11.6855L5.375 11.6855C5.46875 12.1074 5.60352 12.4004 5.7793 12.5645C5.95508 12.7285 6.20703 12.8105 6.53516 12.8105L12.8105 12.8105L12.8105 6.55273C12.8105 6.22461 12.7285 5.97852 12.5645 5.81445C12.4004 5.63867 12.1074 5.49805 11.6855 5.39258L11.6855 4.86523L17.3809 4.86523L17.3809 5.375C16.959 5.49219 16.666 5.63281 16.502 5.79688C16.3379 5.96094 16.2559 6.21289 16.2559 6.55273L16.2559 12.8105H22.5312C22.8594 12.8105 23.1055 12.7285 23.2695 12.5645C23.4453 12.4004 23.5859 12.1074 23.6914 11.6855L24.2187 11.6855V17.3809L23.6914 17.3809C23.5859 16.959 23.4453 16.666 23.2695 16.502C23.1055 16.3379 22.8594 16.2559 22.5312 16.2559H16.2559L16.2559 22.5312C16.2559 22.8594 16.3379 23.1113 16.502 23.2871C16.666 23.4629 16.959 23.6035 17.3809 23.709L17.3809 24.2187L11.6855 24.2187L11.6855 23.6914C12.1074 23.5977 12.4004 23.4629 12.5645 23.2871C12.7285 23.1113 12.8105 22.8594 12.8105 22.5312L12.8105 16.2559Z"
    fill="#1890FF"/>
</svg>
