<svg width="425" height="74" viewBox="0 0 425 74" fill="none" xmlns="http://www.w3.org/2000/svg">
  <path
    d="M331.658 66.2128C330.519 65.0783 329.788 64.106 329.381 63.2956C328.812 61.9991 328.324 59.9733 327.755 57.2182C326.617 51.4649 324.99 46.8461 322.958 43.1997C320.925 39.5532 318.161 36.474 314.583 33.7999L326.698 23.4278L313.77 2.35944L298.565 15.7297C298.484 13.1367 298.24 11.1109 297.671 9.73339C296.776 7.46449 295.557 5.68176 293.849 4.38524C292.142 3.08873 290.028 2.4405 287.426 2.4405C285.149 2.4405 283.198 2.92665 281.653 3.81801C280.108 4.70936 278.319 6.49209 276.368 9.00408L277.588 10.1386C278.726 9.08514 279.783 8.35584 280.515 7.95068C281.328 7.54552 282.222 7.38344 283.198 7.38344C284.824 7.38344 286.288 7.95068 287.588 9.16616C288.889 10.3816 289.784 11.8402 290.19 13.6229C290.678 15.4056 290.841 18.3228 290.841 22.4554L283.767 28.5328C280.84 31.1259 278.319 32.9086 276.287 33.881V35.8257C278.401 36.7171 280.027 37.5274 281.246 38.4188C283.035 39.7963 284.824 41.579 286.45 43.7669C288.076 45.9548 289.215 47.9805 289.865 50.0063C290.516 51.9511 290.841 54.5442 290.841 57.6234V59.8113C287.182 60.4595 284.092 61.756 281.572 63.7008C279.051 65.6456 276.531 68.6438 274.091 72.6954L275.148 73.8298C277.181 71.8851 278.97 70.5075 280.596 69.6972C283.686 68.3197 286.857 67.5903 290.19 67.5903C292.874 67.5903 295.475 68.0765 298.077 68.9679C300.679 69.9403 303.769 71.4799 307.346 73.8298L317.022 63.5387L315.803 61.756L311.9 66.2128C309.379 64.4301 307.021 63.0526 304.745 62.0802V42.2273L307.265 40.1205C309.704 41.1739 311.656 42.2273 313.038 43.5238C314.502 44.7393 315.803 46.603 317.104 49.034C318.404 51.465 319.461 54.3821 320.275 57.7855C321.819 64.268 322.876 68.0765 323.446 69.211C324.259 70.9127 325.56 72.4523 327.348 73.9919L336.455 64.025L335.154 62.2422L331.658 66.2128ZM291.003 40.2015C289.133 37.9326 287.67 36.3119 286.613 35.4206C285.556 34.4482 284.255 33.4758 282.71 32.5034L291.003 25.2105V40.2015ZM303.2 61.5129C301.655 60.9457 300.191 60.5406 298.646 60.2164V18.4038L303.2 14.4333V61.5129ZM304.907 39.6342V12.8936L308.81 9.40925L319.543 26.9932L304.907 39.6342Z"
    fill="white"/>
  <path d="M267.505 45.3065H254.496V51.627H267.505V45.3065Z" fill="white"/>
  <path
    d="M416.869 66.699L408.169 62.2422V53.4908L425 38.4188L414.43 22.5365C410.283 25.2916 407.6 26.9932 406.543 27.6415C404.998 28.5328 403.047 29.5863 400.689 30.6397V58.1906C400.689 61.3509 400.526 63.3767 400.282 64.3491C400.038 65.3214 399.388 66.0508 398.575 66.699V67.9145C401.502 68.8058 403.778 69.5351 405.405 70.2644C407.031 70.9937 409.064 72.2092 411.503 73.9108L423.699 63.0526L422.805 61.594L416.869 66.699ZM408.25 28.4518L408.738 28.1277L418.089 41.417L408.169 50.3305V28.4518H408.25Z"
    fill="white"/>
  <path
    d="M386.541 11.354H385.484L374.995 27.9656V30.0724H378.491V57.6234C378.491 59.8923 378.248 61.5939 377.841 62.7284C377.516 63.7008 376.865 64.5921 375.89 65.4025V66.3748C379.467 67.6714 382.638 70.1834 385.484 73.8298L393.778 65.3214L392.883 63.8629L390.525 66.2938L386.297 62.2422V30.0724H393.859V24.6433H386.134L386.541 11.354Z"
    fill="white"/>
  <path
    d="M368.734 65.2404C368.409 65.4025 368.165 65.4835 367.84 65.4835C367.352 65.4835 366.864 65.0783 366.539 64.187C366.133 63.2956 365.97 61.1888 365.97 57.7855V37.3653C365.97 34.9344 366.133 32.9896 366.539 31.531C366.946 30.0724 367.759 28.0467 369.141 25.3726L367.759 24.6433C367.108 25.7777 366.62 26.426 366.377 26.6691C366.133 26.9122 365.726 26.9932 365.157 26.9932C364.019 26.9932 362.311 26.5881 360.197 25.7778C358.002 24.9674 356.05 23.914 354.18 22.5365C351.904 25.4536 349.302 26.9122 346.375 26.9122C345.887 26.9122 345.155 26.9122 344.179 26.8312L343.691 28.2087L348.245 40.5256C345.236 45.0634 343.122 48.9529 341.903 52.3563C341.008 54.9493 340.52 57.7044 340.52 60.6216C340.52 64.9973 342.634 69.4541 346.944 73.9108L358.327 62.4043C358.408 65.1594 358.734 67.2662 359.384 68.8058C360.034 70.3454 361.254 72.0471 363.205 73.9919L371.255 65.1594L370.361 63.7008C369.466 64.5111 368.978 65.0784 368.734 65.2404ZM358.327 60.0544L352.635 65.8076C348.976 62.4043 347.106 58.1906 347.106 52.9235C347.106 50.0064 347.838 46.522 349.22 42.6324L358.327 48.2237V60.0544ZM358.327 46.1168L350.034 41.0928L345.48 28.6949L358.327 33.7999V46.1168Z"
    fill="white"/>
  <path
    d="M235.876 65.8076C235.47 65.8076 235.145 65.4835 234.819 64.7542C234.331 63.7008 234.006 62.1612 234.006 59.9733V36.9601C234.006 34.4481 234.25 32.5034 234.738 31.1258C235.145 30.0724 236.202 28.5328 237.909 26.426L236.852 25.1295L233.193 29.6672L227.989 22.4554L216.606 34.2861V32.5844C216.606 30.3965 216.362 28.6948 215.793 27.4794C215.224 26.2639 213.842 24.5622 211.646 22.4554L203.678 30.9637L204.572 32.4224C205.548 31.2069 206.28 30.5586 206.849 30.5586C207.337 30.5586 207.744 30.9637 208.15 31.7741C208.719 32.9895 208.963 35.3395 208.963 38.8239V63.3766L206.117 66.861L212.785 73.7488L219.533 66.861L216.687 63.3766V36.555L223.03 29.9914L226.363 34.5292V60.9457C226.363 64.43 226.688 66.861 227.258 68.4817C227.827 70.0213 229.209 71.804 231.242 73.8298L239.291 65.3214L238.397 63.8628C237.096 65.2404 236.202 65.8076 235.876 65.8076Z"
    fill="white"/>
  <path
    d="M171.886 30.8827V57.3803C171.886 59.9733 171.724 61.837 171.399 62.8904C171.155 63.7008 170.585 64.6732 169.61 65.6455L170.016 66.6179C172.293 66.6989 174.326 67.1041 176.114 67.9955C178.472 69.1299 181.481 71.0747 185.14 73.9108C186.278 72.5332 187.579 71.3988 188.799 70.4264C190.506 69.2109 193.189 67.5903 197.011 65.6455V29.5862C191.726 27.9656 187.335 25.6156 183.839 22.6174C180.424 26.1018 176.44 28.8569 171.886 30.8827ZM189.205 66.1317L179.529 61.0267V30.8827C180.83 31.1258 181.887 31.531 182.782 31.9361C184.083 32.5034 186.197 33.7189 189.205 35.5016V66.1317Z"
    fill="white"/>
  <path
    d="M160.747 26.0208C160.259 26.6691 159.853 27.5604 159.365 28.6949L133.834 6.24896V17.9176L143.754 26.6691C142.371 28.1277 139.932 29.5052 136.517 30.7207V56.0027C136.517 59.163 136.354 61.2698 136.111 62.3232C135.867 63.3766 135.297 64.349 134.322 65.3214V66.2128C136.924 66.5369 139.363 67.2662 141.64 68.4006C143.916 69.5351 146.518 71.3988 149.445 73.9108C151.234 71.966 152.941 70.5075 154.486 69.373C156.031 68.2386 158.389 66.861 161.641 65.4024V32.9896C161.641 30.8017 161.723 29.3432 161.885 28.6139C162.048 27.8846 162.373 27.1553 162.861 26.2639V24.3192C161.967 24.8054 161.235 25.3726 160.747 26.0208ZM154.08 66.1318L144.241 60.5405V30.8828C144.973 30.3155 145.705 29.7483 146.355 29.019L154.08 35.8257V66.1318Z"
    fill="white"/>
  <path
    d="M126.028 65.8076C125.622 65.8076 125.297 65.4835 124.971 64.7542C124.483 63.7008 124.158 62.1612 124.158 59.9733V36.9601C124.158 34.4481 124.402 32.5034 124.89 31.1258C125.297 30.0724 126.354 28.5328 128.061 26.426L127.004 25.1295L123.345 29.6672L118.141 22.4554L106.758 34.2861V32.5844C106.758 30.3965 106.514 28.6948 105.945 27.4794C105.376 26.2639 103.994 24.5622 101.798 22.4554L93.8301 30.9637L94.7245 32.4224C95.7002 31.2069 96.432 30.5586 97.0011 30.5586C97.489 30.5586 97.8955 30.9637 98.3021 31.7741C98.8712 32.9895 99.1152 35.3395 99.1152 38.8239V63.3766L96.2694 66.861L102.937 73.7488L109.685 66.861L106.839 63.3766V36.555L113.182 29.9914L116.515 34.5292V60.9457C116.515 64.43 116.84 66.861 117.41 68.4817C117.979 70.0213 119.361 71.804 121.394 73.8298L129.443 65.3214L128.549 63.8628C127.248 65.2404 126.354 65.8076 126.028 65.8076Z"
    fill="white"/>
  <path
    d="M61.9571 30.8827V57.3803C61.9571 59.9733 61.7945 61.837 61.4693 62.8904C61.2253 63.7008 60.6562 64.6732 59.6805 65.6455L60.087 66.6179C62.3637 66.6989 64.3964 67.1041 66.1852 67.9955C68.5431 69.1299 71.5515 71.0747 75.2104 73.9108C76.3488 72.5332 77.6497 71.3988 78.8693 70.4264C80.5768 69.2109 83.26 67.5903 87.0815 65.6455V29.5862C81.7964 27.9656 77.4058 25.6156 73.9095 22.6174C70.5758 26.1018 66.5917 28.8569 61.9571 30.8827ZM79.3572 66.1317L69.6814 61.0267V30.8827C70.9824 31.1258 72.0394 31.531 72.9338 31.9361C74.2347 32.5034 76.3487 33.7189 79.3572 35.5016V66.1317Z"
    fill="white"/>
  <path
    d="M48.216 65.7266C45.4515 63.2146 42.8496 61.5129 40.573 60.5405C38.2963 59.5681 35.6945 59.0819 32.8487 59.0819C29.6776 59.0819 26.1814 59.8922 22.1972 61.5129C28.2141 54.9493 32.0356 49.8443 33.6618 46.2788C35.2879 42.7134 36.101 38.5808 36.101 33.8809C36.101 30.3965 35.8571 25.8587 35.3692 20.3485C35.1253 17.1072 34.9627 14.6763 34.9627 12.9746C34.9627 9.81436 35.6945 7.54545 37.0767 5.92481C38.5403 4.30416 40.6543 3.25074 43.5814 2.68352L42.687 0.981812C40.0851 1.06284 38.1337 1.30594 36.8328 1.79213C35.1253 2.35936 33.5804 3.33177 32.1982 4.54725C30.816 5.84376 29.6776 7.54544 28.7832 9.81434C27.8888 12.0832 27.4823 14.3522 27.4823 16.6211C27.4823 19.2141 27.6449 22.4554 28.0515 26.2639C28.3767 30.0724 28.6206 33.5568 28.6206 36.7171C28.6206 42.3083 27.6449 47.4133 25.6122 51.8701C23.5795 56.4079 20.2458 60.7026 15.5299 64.9973C18.6197 60.0543 20.7337 55.6786 21.872 51.9511C23.0103 48.2236 23.6608 43.9289 23.6608 39.3101C23.6608 37.1222 23.4169 32.9895 22.929 26.9121C22.6851 23.6708 22.5225 20.8347 22.5225 18.3227C22.5225 15.0004 23.0103 12.1643 24.0673 9.81434C25.043 7.46441 26.8318 5.11448 29.3524 2.68352L28.2141 0.981812C25.9374 3.25071 23.4982 4.46624 20.9776 4.46624C19.5954 4.46624 17.644 3.89898 15.1234 2.76453C12.6028 1.63008 10.7327 1.06287 9.59442 1.06287C6.99254 1.06287 4.7159 2.19731 2.8458 4.54725C0.975703 6.89718 0 9.57123 0 12.7315C0 13.7039 0.0813098 15.0004 0.325236 16.54L1.95141 15.8107C1.70748 15.0815 1.62617 14.4332 1.62617 13.866C1.62617 12.4074 2.03272 11.1108 2.92711 10.0574C3.82151 9.00401 4.87852 8.43679 6.17945 8.43679C6.82992 8.43679 7.80562 8.67987 8.94394 9.08503C11.4645 10.0574 13.5785 10.5437 15.2047 10.5437C16.9122 10.5437 18.9449 9.9764 21.3029 8.84195C19.1075 11.7591 17.5627 14.5952 16.587 17.3503C15.6926 20.0244 15.2047 23.3467 15.2047 27.2363C15.2047 28.5328 15.286 30.1534 15.4486 32.0982C14.9608 31.9361 14.4729 31.7741 13.9851 31.693C13.4972 31.612 13.0907 31.612 12.7654 31.612C11.058 31.612 9.35049 32.1793 7.80563 33.2327C6.82992 33.8809 5.85422 35.0153 4.95983 36.636L6.34207 37.7705C7.64301 36.4739 8.94394 35.8257 10.1636 35.8257C11.8711 35.8257 13.3346 36.555 14.5542 38.0946C15.7739 39.6342 16.343 41.4169 16.343 43.4427C16.343 43.8479 16.343 44.4961 16.2617 45.2254C15.6112 44.8203 15.0421 44.4151 14.3916 44.253C13.7412 44.0099 13.172 43.9289 12.5215 43.9289C11.4645 43.9289 10.5701 44.172 9.83834 44.5772C9.02526 44.9823 8.21217 45.7116 7.23647 46.765L8.37479 48.2236C9.26918 47.7374 10.0823 47.4133 10.814 47.4133C12.1963 47.4133 13.4972 48.1426 14.5542 49.6011C15.6112 51.0597 16.1804 52.9235 16.1804 55.0303C16.1804 57.2992 15.4486 59.7302 13.9851 62.3232C12.5215 64.9162 9.51311 68.3196 4.95983 72.6953L5.6916 73.9919C10.2449 71.1557 13.9851 69.211 16.8309 68.1575C19.758 67.1852 22.7664 66.699 26.1001 66.699C29.5963 66.699 32.6861 67.2662 35.3692 68.4817C37.9711 69.6161 40.6543 71.4799 43.3375 73.9919L53.0945 63.2146L51.9562 61.5129L48.216 65.7266Z"
    fill="white"/>
</svg>
