<?xml version="1.0" encoding="UTF-8"?>
<!-- Generator: Adobe Illustrator 14.0.0, SVG Export Plug-In . SVG Version: 6.00 Build 43363)  -->
<!DOCTYPE svg PUBLIC "-//W3C//DTD SVG 1.1//EN" "http://www.w3.org/Graphics/SVG/1.1/DTD/svg11.dtd">
<svg version="1.1" id="Ebene_1" xmlns="http://www.w3.org/2000/svg" xmlns:xlink="http://www.w3.org/1999/xlink" x="0px" y="0px" width="1024px" height="164px" viewBox="0 0 1024 164" enable-background="new 0 0 1024 164" xml:space="preserve">
<path fill-rule="evenodd" clip-rule="evenodd" fill="#007881" d="M246.186,38.988c2.304,0.279,4.836,0.919,5.988,3.162  c1.395,2.376,0.718,5.776-0.816,7.853c-2.708,3.461-6.572,4.712-10.834,4.681h-10.772c0,0,4.169-14.208,4.542-15.706   M597.538,47.637l-20.625,0.021l2.377-10.922l20.314-0.01L597.538,47.637z M989.446,18.726l-2.646,8.876h28.437l-3.864,12.533  l-28.479,0.011l-4.464,15.448l30.938,0.021c0,0-3.39,12.255-3.451,12.348l-48.813-0.021c-0.104-0.124,8.494-29.5,14.28-49.247  L989.446,18.726z M954.065,18.726l-14.693,49.257h-18.868l14.652-49.257H954.065z M917.26,18.726l-13.743,49.319l-17.876-0.031  l11.531-41.063l2.232-7.357l0.31-0.867H917.26z M866.091,18.726l0.352,19.198l-0.496,9.217c-0.021,0.062,0.041,0.093,0.062,0.124  l5.063-9.723l12.048-18.816h15.355l-1.199,2.056l-30.42,47.211l-14.982-0.01l-1.508-47.015l-0.063-2.242H866.091z M848.773,18.726  l-14.797,49.277l-16.512-0.021l14.962-49.257H848.773z M786.155,18.726l-2.645,8.876h28.457l-3.886,12.533l-28.478,0.011  l-4.464,15.448l30.958,0.021c0,0-3.596,12.255-3.658,12.348l-48.627-0.021c-0.104-0.124,8.493-29.5,14.28-49.247L786.155,18.726z   M709.423,18.726l-2.253,7.915l22.071,0.041l2.397-7.956h18.889L735.71,67.993l-18.889,0.01c0,0,8.308-28.095,8.163-28.157h-22.319  l-8.597,28.137h-18.703l14.714-49.257H709.423z M680.263,18.726c-0.041,1.384-0.186,2.728-0.393,3.896l-17.38-0.031  c0.31-1.188,0.455-2.531,0.31-3.823L680.263,18.726z M641.08,18.726c-1.57,1.942-2.872,4.122-3.968,6.106l-2.231,4.743l-1.695,5.104  l-0.99,4.67l-0.641,4.98c-0.27,4.371,1.156,8.411,4.813,11.036c3.245,2.376,8.577,2.211,11.966,0.248  c2.873-1.529,4.856-4.578,5.973-7.367l19.013-0.011l-2.066,5.26c-3.079,7.419-10.892,12.337-18.063,14.404l-4.732,1.054  l-5.042,0.558h-4.939c-7.646-0.496-15.168-2.304-19.921-8.907c-5.104-6.117-5.704-14.931-4.051-22.743l1.178-5.177l1.488-4.681  l1.322-3.42l2.417-5.29c0.084-0.196,0.188-0.393,0.289-0.59L641.08,18.726z M534.641,18.726l4.516,20.893l1.612,12.152  c0.031,0.052,0.124,0.052,0.187,0.052l0.123-0.3l2.367-13.03l5.425-19.767h15.458l-14.735,49.309h-19.735l-6.965-31.413  l-0.631-3.482l-1.735-14.414H534.641z M520.062,18.726l-0.476,3.316L507.3,67.951h-15.83l14.436-49.226H520.062z M488.551,18.726  l-14.709,49.288h-18.862l14.651-49.288H488.551z M438.059,18.726c-4.402,15.747-10.137,36.341-10.028,36.392l24.903-0.041  l-3.585,12.937l-42.304-0.021l13.376-49.267H438.059z M388.094,18.726c0.444,2.49-0.335,5.29-1.808,7.232  c-2.898,3.234-7.016,3.555-11.16,3.792h-7.6l3.208-11.025h-18.232l-14.59,49.277h17.953l7.29-24.789  c0.222-0.31,0.222-0.837,0.754-0.806h6.98c1.715,0.031,3.332,0.32,4.732,1.064c1.281,0.806,1.839,2.077,2,3.482l0.124,5.177  l-0.377,8.225c-0.181,2.956,0.589,5.404,2,7.636l18.005,0.01c-0.992-2.242-1.901-4.443-1.871-7.088l0.496-10.033l0.129-5.415  l-0.372-2.563c-1.183-4.392-5.895-6.386-9.853-7.109c0-0.051,0-0.145,0.067-0.175l4.8-1.188c5.451-1.281,10.839-4.918,13.707-10.157  c0.961-1.633,1.576-3.575,1.818-5.591L388.094,18.726z M309.574,18.726l-2.645,8.876l28.452-0.011l-3.735,12.534l-28.612,0.01  l-4.464,15.458l30.942,0.01c0,0-3.399,12.255-3.461,12.348l-48.813-0.021c-0.104-0.124,8.489-29.5,14.285-49.247L309.574,18.726z   M258.932,18.726c-0.011,1.302-0.398,2.604-1.023,3.544c-2.372,3.658-6.36,4.712-10.411,4.939h-9.284l2.542-8.483h-17.478  l-14.729,49.267l30.229-0.01l6.412-0.403l5.988-0.754c4.955-1.075,9.842-2.387,13.702-6.097c4.562-5.177,7.982-11.965,5.239-19.013  c-1.891-4.784-6.856-8.576-12.095-8.638l-0.113-0.279c0-0.114-0.031-0.145,0.124-0.197c4.794-0.785,9.279-2.283,12.962-5.776  c2.16-2.314,3.844-5.114,4.624-8.132L258.932,18.726z"/>
<path fill-rule="evenodd" clip-rule="evenodd" fill="#007881" d="M971.384,18.726c2.935-10.013,5.146-17.556,5.146-17.556h47.594  l-3.761,12.369h-29.366l-1.55,5.187 M935.136,18.726l5.229-17.556h18.951l-5.25,17.556H935.136z M883.119,18.726L894.361,1.17  h27.816l-4.897,17.556h-17.566l1.447-4.298c-0.042-0.093,0.062-0.217-0.063-0.248l-2.645,4.546H883.119z M832.427,18.726  l5.353-17.587l27.98,0.021l0.331,17.566h-15.788l-0.125-3.989c-0.02-0.062-0.123-0.062-0.186-0.062l-1.219,4.051H832.427z   M768.094,18.726c2.935-10.013,5.146-17.556,5.146-17.556h47.594l-3.761,12.369h-29.366l-1.551,5.187H768.094z M731.639,18.726  L736.95,1.16l18.889-0.011l-5.291,17.577H731.639z M690.079,18.726l5.229-17.556h19.137l-5.021,17.556H690.079z M621.199,18.726  c4.299-8.432,12.875-16.336,22.217-17.825l6.468-0.744c9.755-0.279,20.563-0.444,27.176,7.595c1.096,1.447,1.901,2.997,2.501,4.619  c0.578,1.788,0.765,4.113,0.702,6.355H662.8c-0.186-1.468-0.743-2.894-1.88-3.927c-2.997-2.986-8.102-3.213-12.028-1.994  c-3.12,0.961-5.703,3.244-7.812,5.899L621.199,18.726z M548.849,18.726l4.815-17.545l15.913-0.031l-5.249,17.577H548.849z   M505.895,18.726l5.146-17.556l19.819,0.01l3.792,17.545h-14.12l-0.077-0.61c-0.031-0.062-0.124-0.062-0.187-0.062l-0.129,0.124  l-0.072,0.548H505.895z M469.636,18.726l5.192-17.515h18.951l-5.223,17.515H469.636z M420.426,18.726l4.748-17.515l17.809-0.041  c0,0-2.211,7.853-4.929,17.576L420.426,18.726z M352.507,18.726l5.192-17.566l31.511,0.062c5.864,0.186,11.774,2.077,15.024,7.595  c1.829,2.718,2.485,6.396,2.067,9.868l-18.202,0.042c-0.129-0.755-0.362-1.457-0.698-2.098c-1.777-2.47-4.521-2.955-7.543-2.883  h-7.672l-1.452,4.98H352.507z M291.517,18.726c2.929-10.034,5.151-17.566,5.151-17.566h47.583l-3.766,12.358h-29.351l-1.555,5.208  H291.517z M223.278,18.726l5.27-17.639h30.41c6.583,0.248,13.681,2.47,16.275,9.166c1.059,2.852,1.09,5.724,0.393,8.442  l-16.688,0.031c0-0.931-0.212-1.871-0.718-2.625c-1.622-2.645-5.089-2.728-7.419-2.862h-8.411l-1.638,5.487H223.278z"/>
<path d="M445.106,162.85v-2.459l-0.687-0.093c-4.903-0.692-6.572-1.468-7.259-3.524c-0.491-1.374-0.687-3.233-0.687-5.394v-43.337  c0-6.758,1.576-8.524,7.848-8.917l0.785-0.093v-2.459H420.4l-19.607,46.271l-19.596-46.271h-24.805v2.459l0.688,0.093  c6.468,0.589,8.034,1.86,8.034,6.871v46.551c0,5.683-1.473,7.058-8.23,7.75l-0.692,0.093v2.459h22.944v-2.459  c-0.3,0-0.584,0-0.785-0.093c-7.151-0.579-9.119-2.646-9.119-9.61v-45.579h0.196l24.51,57.741h2.646l24.505-59.219h0.201v49.402  c0,2.759-0.594,4.619-1.767,5.601c-1.178,0.972-2.552,1.364-6.277,1.664l-0.688,0.093v2.459"/>
<path d="M450.422,96.584v2.449c4.019,0.289,5.584,0.692,6.665,1.663c1.271,0.982,1.958,2.853,1.958,5.291v47.449  c0,2.552-0.584,4.319-1.767,5.197c-1.178,0.889-2.444,1.271-6.168,1.664l-0.688,0.103v2.449h57.337l3.921-20.387h-2.738  c-2.263,4.701-2.655,5.383-4.128,7.543c-0.878,1.178-1.958,2.459-3.322,3.627c-4.707,4.309-10.296,6.169-18.134,6.169  c-6.665,0-8.432-1.168-8.432-5.477v-23.725c3.921,0.093,4.505,0.186,6.665,0.692c2.253,0.578,4.505,1.953,5.885,3.813  c1.86,2.459,2.547,4.701,3.333,10.685h2.537v-33.138h-2.537c-0.987,6.479-1.958,9.03-4.319,11.283  c-2.454,2.438-5.192,3.224-11.563,3.327V104.52c0-3.616,1.266-4.608,6.071-4.608c5.786,0,11.862,0.785,14.709,1.964  c1.173,0.485,2.252,1.281,3.332,2.252c2.351,2.16,3.927,5.095,4.805,9.021c0.191,0.981,0.485,1.963,0.687,3.131h2.444V96.584"/>
<path d="M516.347,162.85h22.252v-2.459l-0.785-0.093c-6.758-0.879-8.535-2.842-8.535-9.61v-39.203h0.196l43.637,53.132h2.728v-57.74  c0-5.384,1.281-6.861,7.067-7.75l0.579-0.093v-2.459h-21.079v2.459c7.274,0.785,9.134,2.738,9.134,9.702v29.697h-0.206  l-34.017-41.858h-20.677v2.459c2.052,0.093,3.524,1.271,7.843,6.571l0.486,0.486v46.457c0,5.497-1.561,6.964-7.937,7.75  l-0.687,0.093"/>
<path fill-rule="evenodd" clip-rule="evenodd" d="M600.865,139.714l9.217-23.828l9.898,23.828 M649.884,162.85v-2.459  c-4.216,0-5.497-1.457-9.795-11.46l-0.889-2.159L617.336,95.21h-2.748l-21.762,53.721l-0.785,1.86  c-2.253,5.394-3.244,7.047-5.084,8.235c-1.074,0.785-1.881,0.972-3.74,1.364v2.459h19.901v-2.459h-0.6  c-5.188-0.289-7.439-1.561-7.439-4.01c0-0.795,0.206-1.859,0.599-2.944l3.721-9.899h22.049l3.328,8.432  c0.785,1.86,1.199,3.617,1.199,4.898c0,2.346-1.096,2.944-6.779,3.431c-0.186,0-0.578,0.093-1.074,0.093v2.459H649.884z"/>
<path fill-rule="evenodd" clip-rule="evenodd" d="M679.705,129.029v-25.006c0-2.935,1.468-4.112,5.188-4.112  c9.01,0,12.751,4.227,12.751,14.219c0,6.664-1.674,10.88-5.104,12.74c-2.438,1.374-5.002,1.86-10.188,2.066  C681.771,128.937,680.883,129.029,679.705,129.029 M722.731,162.85v-2.459c-1.963,0-3.038-0.579-4.009-1.86l-19.716-27.93  c4.712-1.478,6.18-2.16,8.742-3.823c4.401-2.853,6.654-7.265,6.654-12.938c0-11.18-9.796-17.266-27.651-17.266h-31.557v2.459  l0.785,0.093c6.365,0.393,7.832,2.066,7.832,8.917v43.337c0,6.954-1.074,8.132-7.936,8.918c-0.082,0-0.393,0.093-0.682,0.093v2.459  h33.128v-2.459l-0.683-0.093c-4.897-0.692-6.571-1.468-7.254-3.524c-0.475-1.374-0.682-3.233-0.682-5.394v-19.22h2.646  l20.294,30.689H722.731z"/>
<path d="M760.199,162.85v-2.459h-0.682c-6.676-0.486-8.618-2.057-8.618-6.954v-47.439c0-5.011,2.046-6.571,8.618-6.964h0.682v-2.459  h-34.306v2.459h0.682c6.365,0.485,8.432,2.159,8.432,6.964v47.439c0,4.794-1.756,6.282-8.432,6.861l-0.682,0.093v2.459"/>
<path d="M767.081,162.85h22.257v-2.459l-0.785-0.093c-6.758-0.879-8.515-2.842-8.515-9.61v-39.203h0.187l43.626,53.132h2.728v-57.74  c0-5.384,1.281-6.861,7.068-7.75l0.599-0.093v-2.459h-21.079v2.459c7.254,0.785,9.114,2.738,9.114,9.702v29.697h-0.207  l-34.017-41.858h-20.666v2.459c2.046,0.093,3.514,1.271,7.833,6.571l0.496,0.486v46.457c0,5.497-1.571,6.964-7.937,7.75  l-0.702,0.093"/>
<path d="M876.011,162.85v-2.459h-0.683c-6.675-0.486-8.617-2.057-8.617-6.954v-47.439c0-5.011,2.066-6.571,8.617-6.964h0.683v-2.459  h-34.305v2.459h0.682c6.386,0.485,8.431,2.159,8.431,6.964v47.439c0,4.794-1.756,6.282-8.431,6.861l-0.682,0.093v2.459"/>
<rect x="0.123" y="1.232" fill="#FFFFFF" width="162.088" height="162.093"/>
<g>
	<defs>
		<rect id="SVGID_1_" x="0.123" y="1.232" width="162.088" height="162.093"/>
	</defs>
	<clipPath id="SVGID_2_">
		<use xlink:href="#SVGID_1_" overflow="visible"/>
	</clipPath>
	<path clip-path="url(#SVGID_2_)" fill-rule="evenodd" clip-rule="evenodd" d="M159.839,160.948H2.489V3.598h157.35 M162.205,1.232   v162.093H0.117V1.232H162.205z"/>
</g>
<polyline points="1.238,2.358 81.159,121.042 161.089,2.358 "/>
<polygon fill="none" stroke="#000000" stroke-width="0.111" stroke-miterlimit="3.864" points="1.238,2.358 81.159,121.042   161.089,2.358 "/>
<polyline fill="#FFFFFF" points="86.129,99.219 86.129,101.699 78.085,106.256 78.085,106.317 86.129,106.091 86.129,108.85   76.54,108.85 76.54,104.417 83.665,100.511 83.665,100.428 76.54,96.595 76.54,92.068 86.129,92.068 86.129,94.827 78.054,94.59   78.054,94.693 "/>
<polyline fill="#FFFFFF" points="80.503,86.964 80.503,80.237 82.017,80.237 82.017,86.964 84.559,86.964 84.559,79.813   86.124,79.813 86.124,89.733 76.535,89.733 76.535,79.865 78.111,79.865 78.111,86.964 "/>
<polyline fill="#FFFFFF" points="76.54,67.104 76.54,64.345 86.124,64.345 86.124,68.923 78.116,75.04 78.116,75.133 86.124,74.916   86.124,77.675 76.54,77.675 76.54,73.107 84.559,66.959 84.559,66.877 "/>
<path fill="#FFFFFF" d="M82.916,53.785v4.96l-4.97-2.459v-0.031 M84.311,53.165l1.813-0.94v-2.8l-9.589,4.877v4.061l9.589,4.774  v-2.862l-1.813-0.899V53.165z"/>
<path fill="#FFFFFF" d="M81.391,41.912c0-2.046-0.273-2.542-1.684-2.542c-1.354,0-1.596,0.372-1.596,2.346v3.833h3.28   M82.957,45.549h3.172v2.77h-9.584v-7.347c0.042-3.142,0.698-4.351,2.868-4.351c1.416,0,2.454,0.104,2.697,2.542h0.052  c0.119-1.953,0.827-2.438,2.17-2.438h1.798v2.769h-1.798c-0.806,0-1.364,0.506-1.374,1.829V45.549z"/>
<rect x="76.54" y="31.61" fill="#FFFFFF" width="9.584" height="2.759"/>
<polyline fill="#FFFFFF" points="76.54,18.519 76.54,15.76 86.124,15.76 86.124,20.337 78.116,26.454 78.116,26.547 86.124,26.33   86.124,29.089 76.54,29.089 76.54,24.522 84.559,18.363 84.559,18.281 "/>
<rect x="76.54" y="10.469" fill="#FFFFFF" width="9.584" height="2.759"/>
<polyline fill="#E7473C" points="24.018,163.325 24.018,75.577 81.164,161.104 138.3,75.98 138.3,163.325 "/>
</svg>