<svg width="26" height="20" viewBox="0 0 26 20" fill="none" xmlns="http://www.w3.org/2000/svg">
<path d="M23.0955 7.32589C23.0955 6.97321 22.8514 6.78571 22.4032 6.78571H22.1857V7.89732H22.3943C22.8514 7.89732 23.0955 7.70089 23.0955 7.32589ZM23.8697 0H2.13025C0.954175 0 0 0.959821 0 2.14286V17.8571C0 19.0402 0.954175 20 2.13025 20H23.8697C25.0458 20 26 19.0402 26 17.8571V2.14286C26 0.959821 25.0458 0 23.8697 0ZM21.4756 6.20089C22.4786 6.20089 23.8233 6.01786 23.8233 7.29018C23.8233 7.85268 23.5304 8.21429 22.9934 8.32589L24.1384 9.86161H23.2686L22.2833 8.39732H22.1857V9.86161H21.4756V6.20089ZM18.9947 6.20536H21.0052V6.83036H19.7048V7.64286H20.9608V8.25893H19.7048V9.25H21.0052V9.86607H18.9947V6.20536ZM15.9458 6.20536L16.9178 8.66964L17.903 6.20536H18.6796L17.1041 9.96429H16.7225L15.1692 6.20536H15.9458ZM13.465 6.07143C14.5612 6.07143 15.4443 6.96429 15.4443 8.0625C15.4443 9.16518 14.5567 10.0536 13.465 10.0536C12.3688 10.0536 11.4856 9.16071 11.4856 8.0625C11.4856 6.95982 12.3732 6.07143 13.465 6.07143ZM11.277 6.34375V7.19196C10.385 6.29464 9.20003 6.98214 9.20003 8.04018C9.20003 9.15625 10.4205 9.75893 11.277 8.89732V9.74554C9.95893 10.3839 8.46775 9.49107 8.46775 8.04018C8.46775 6.64732 9.93674 5.67411 11.277 6.34375ZM6.96326 9.30357C7.4692 9.30357 7.95738 8.62053 6.81681 8.21428C6.1511 7.96875 5.92033 7.70536 5.92033 7.20089C5.92033 6.16518 7.27836 5.79911 8.12602 6.5625L7.75323 7.04464C7.29168 6.52679 6.64816 6.76786 6.64816 7.15625C6.64816 7.35268 6.76799 7.46429 7.19404 7.61607C8.00176 7.91071 8.24141 8.17411 8.24141 8.75893C8.24141 10.0759 6.51946 10.4286 5.72949 9.26339L6.18661 8.82143C6.35081 9.13839 6.62597 9.30357 6.96326 9.30357ZM2.45867 9.86607H1.42017V6.20536H2.45867C3.61699 6.20536 4.41583 6.96429 4.41583 8.04018C4.41583 8.86607 3.83002 9.86607 2.45867 9.86607ZM5.45433 9.86607H4.74425V6.20536H5.45433V9.86607ZM24.1429 17.9018C24.1429 18.2679 23.8411 18.5714 23.4772 18.5714H5.68067C14.0952 16.9821 22.665 12.3571 24.1429 11.4286V17.9018ZM3.28858 7.125C3.0578 6.90625 2.77377 6.83036 2.31665 6.83036H2.13025V9.25H2.31665C2.77377 9.25 3.07111 9.16071 3.28858 8.96429C3.54154 8.73214 3.68356 8.39286 3.68356 8.04018C3.68356 7.6875 3.54154 7.34821 3.28858 7.125Z" fill="white"/>
</svg>
