<svg width="76" height="76" viewBox="0 0 76 76" fill="none" xmlns="http://www.w3.org/2000/svg">
<g clip-path="url(#clip0)">
<path fill-rule="evenodd" clip-rule="evenodd" d="M68.6736 50.3316H54.524C54.1475 52.2813 53.6831 54.1467 53.1421 55.9074C56.867 56.8279 60.2146 58.0783 63.0342 59.5818C65.3895 56.8516 67.3054 53.7313 68.6736 50.3316ZM38.0215 48.8014H53.8927H69.7845H69.8047H70.3428C71.5708 48.8014 72.6888 48.2979 73.4983 47.4883C74.307 46.6786 74.8098 45.5599 74.8098 44.3311V31.6659C74.8098 30.437 74.307 29.3185 73.4983 28.5089C72.6887 27.7001 71.57 27.1973 70.3412 27.1973H69.7833H53.8915H53.8735H38.0208H38.0006H37.9804H22.1092H6.21737H6.19717H5.65912C3.20009 27.1973 1.19 29.2066 1.19 31.6659V44.3311C1.19 45.5424 1.67819 46.6465 2.46704 47.4531L2.5025 47.4846C3.31202 48.2942 4.43076 48.7975 5.65875 48.7975H6.21664H22.1085H22.1273H37.9801H38.0003L38.0215 48.8014ZM45.4445 32.6017L41.4939 43.8927V43.9061C41.4203 44.1175 41.2536 44.2957 41.0249 44.3752C40.6277 44.5135 40.1924 44.3038 40.0538 43.9061L38.0046 38.0495L35.9586 43.8986V43.912C35.885 44.1234 35.7182 44.3016 35.4895 44.3811C35.0924 44.5194 34.657 44.3097 34.5185 43.912L30.5648 32.6135C30.4264 32.2163 30.6373 31.7809 31.0339 31.6425C31.4311 31.5043 31.8663 31.7147 32.0049 32.1115L35.2386 41.3526L37.2876 35.4958C37.4262 35.0986 37.8615 34.8884 38.2586 35.0268C38.4866 35.1063 38.6535 35.2848 38.7277 35.4967V35.5102L40.7737 41.3593L44.0073 32.1182C44.1459 31.721 44.5811 31.5106 44.9784 31.6491C45.3755 31.7877 45.5859 32.2231 45.4474 32.6202L45.4445 32.6017ZM25.0357 32.6017L21.086 43.8919V43.9053C21.0124 44.1167 20.8449 44.2949 20.6169 44.3744C20.2198 44.5126 19.7844 44.303 19.646 43.9053L17.5968 38.0488L15.5508 43.8978V43.9112C15.4772 44.1226 15.3105 44.3008 15.0819 44.3803C14.6847 44.5185 14.2493 44.3089 14.1108 43.9112L10.1572 32.6126C10.0186 32.2154 10.2296 31.78 10.6262 31.6415C11.0234 31.5033 11.4588 31.7138 11.5971 32.1106L14.8308 41.3518L16.88 35.495C17.0184 35.0978 17.4539 34.8874 17.851 35.0259C18.079 35.1053 18.2458 35.284 18.3201 35.4958V35.5094L20.3661 41.3577L23.599 32.1174C23.7374 31.7202 24.1728 31.5098 24.5699 31.6482C24.9671 31.7865 25.1775 32.2222 25.0389 32.6193L25.0357 32.6017ZM55.8914 44.3693C55.4942 44.5076 55.0588 44.2981 54.9203 43.9004L50.9667 32.6017C50.8282 32.2045 51.0391 31.7692 51.4357 31.6307C51.8329 31.492 52.2683 31.7029 52.4068 32.0997L55.6403 41.3408L57.6895 35.4842C57.8279 35.087 58.2634 34.8766 58.6605 35.0151C58.8885 35.0945 59.0553 35.2732 59.1296 35.485V35.4984L61.1757 41.3475L64.4094 32.1064C64.5477 31.7092 64.9832 31.499 65.3803 31.6374C65.7774 31.7757 65.988 32.2113 65.8494 32.6084L61.8987 43.8994V43.9128C61.8251 44.1242 61.6584 44.3025 61.4296 44.3819C61.0325 44.5202 60.5971 44.3105 60.4586 43.9128L58.4096 38.0562L56.3635 43.9052V43.9187C56.2899 44.1301 56.1234 44.3082 55.8946 44.3877L55.8914 44.3693ZM52.6707 57.3614C51.4946 60.7893 50.0141 63.7742 48.3078 66.1631C47.0321 67.9498 45.6258 69.4098 44.1206 70.4832L44.3396 70.4428H44.3576L44.5589 70.4024L44.7602 70.362L45.3601 70.2319L45.4313 70.214L45.5584 70.1825L45.6474 70.16C47.6697 69.681 49.6202 69.0162 51.478 68.186C55.4539 66.4077 59.0157 63.8658 61.9754 60.7476C59.3095 59.3673 56.1631 58.2156 52.6702 57.3603L52.6707 57.3614ZM38.7668 55.6757V71.0113C41.8159 70.7119 44.6655 68.6362 47.0636 65.2786C48.6642 63.0381 50.0592 60.2383 51.1771 57.0185C47.3634 56.1998 43.1742 55.7246 38.7668 55.6757ZM24.827 57.0185C25.9456 60.2383 27.339 63.0389 28.9396 65.2794C31.337 68.6355 34.1865 70.712 37.2365 71.0113V55.6757C32.829 55.7242 28.6405 56.199 24.827 57.0185ZM23.3325 57.3614C19.8396 58.2167 16.6932 59.3683 14.0272 60.7486C16.987 63.8667 20.5487 66.4087 24.5246 68.187C26.3825 69.0179 28.3329 69.6829 30.3552 70.1611L30.4443 70.1835L30.5714 70.215L30.6426 70.233L31.2425 70.3631L31.4438 70.4035L31.6451 70.4439H31.663L31.882 70.4843C30.3769 69.4053 28.9705 67.9454 27.6949 66.1595C25.9886 63.7706 24.508 60.7841 23.3319 57.357L23.3325 57.3614ZM23.1176 19.2815C24.3264 15.5834 25.8836 12.3736 27.6955 9.83626C28.9718 8.04955 30.3782 6.58884 31.884 5.51531L31.6636 5.55571L31.5167 5.58256L31.4454 5.59612C24.6553 6.95425 18.4834 10.4481 13.7309 15.5618L13.6999 15.5932L13.5919 15.7122C16.2928 17.1652 19.5189 18.3771 23.1191 19.2755L23.1176 19.2815ZM37.2365 21.0207V4.98894C34.1865 5.2883 31.337 7.36467 28.9396 10.7207C27.2326 13.1104 25.7605 16.1367 24.6066 19.6305C28.4814 20.4791 32.7479 20.9711 37.2365 21.0207ZM51.3967 19.6305C49.5511 14.0408 45.3687 5.63699 38.7668 4.98894V21.0207C43.2553 20.9709 47.5219 20.4791 51.3967 19.6305ZM52.8857 19.2813C56.4858 18.383 59.7119 17.171 62.4129 15.718L62.3048 15.5991L62.2738 15.5677L62.1331 15.4159C57.4931 10.4277 51.2415 6.9385 44.5593 5.60174L44.4881 5.58831L44.3412 5.56133L44.1207 5.52092C48.4692 8.62065 51.2736 14.352 52.8873 19.2872L52.8857 19.2813ZM53.3379 20.7436C53.7964 22.3115 54.1935 23.9574 54.524 25.6683H68.6736C67.3849 22.4653 65.6097 19.5109 63.439 16.8963C60.5841 18.4718 57.1615 19.7834 53.3379 20.7436ZM38.7668 22.5509V25.6683H52.9714C52.6563 24.0791 52.2812 22.551 51.8528 21.0941C47.8341 21.9847 43.4115 22.4996 38.7668 22.5509ZM24.1504 21.0941C23.722 22.551 23.3463 24.0791 23.031 25.6683H37.2365V22.5509C32.5918 22.4998 28.1692 21.9847 24.1504 21.0941ZM7.32962 25.6683H21.4793C21.8097 23.9574 22.2069 22.3108 22.6652 20.7436C18.8426 19.7834 15.4183 18.4718 12.5642 16.8963C10.395 19.5101 8.61984 22.4646 7.32962 25.6683ZM22.8612 55.9073C22.3201 54.1461 21.8557 52.2813 21.4793 50.3316H7.32962C8.69786 53.7313 10.6138 56.8516 12.9691 59.5818C15.7887 58.0783 19.1362 56.8279 22.8612 55.9074L22.8612 55.9073ZM37.2365 54.1459V50.3315H23.0318C23.3953 52.161 23.8367 53.9101 24.3479 55.5615C28.3176 54.696 32.6713 54.1955 37.2365 54.1459ZM51.6546 55.5615C52.1657 53.9094 52.6079 52.161 52.9714 50.3315H38.7668V54.1459C43.3319 54.1957 47.6856 54.696 51.6546 55.5615Z" fill="white"/>
</g>
<defs>
<clipPath id="clip0">
<rect width="76" height="76" fill="white"/>
</clipPath>
</defs>
</svg>
