<svg width="26" height="20" viewBox="0 0 26 20" fill="none" xmlns="http://www.w3.org/2000/svg">
<g clip-path="url(#clip0)">
<path d="M15.9467 11.8536C15.9467 11.5867 15.833 11.4405 15.6616 11.3361C15.487 11.2355 15.2763 11.2217 14.988 11.2217H13.71V13.5717H14.2698V12.7161H14.8687C15.0657 12.7161 15.1893 12.7361 15.2633 12.8205C15.3633 12.928 15.3509 13.1361 15.3509 13.2798V13.5698H15.8946V13.1073C15.8946 12.8992 15.8821 12.7948 15.8076 12.6773C15.7344 12.5892 15.6395 12.5219 15.5323 12.4823L15.5479 12.4755C15.7001 12.4173 15.9461 12.228 15.9461 11.8536H15.9467ZM15.2248 12.1917L15.2018 12.1886C15.1272 12.2342 15.0402 12.238 14.9265 12.238H14.2574V11.7136H14.9402C15.0402 11.7136 15.1372 11.7136 15.2154 11.7561C15.2544 11.7752 15.2869 11.8056 15.3087 11.8433C15.3305 11.881 15.3406 11.9244 15.3378 11.968C15.3378 12.0686 15.2987 12.1461 15.2279 12.1923L15.2248 12.1917ZM19.4933 13.068H18.419V13.5698H19.5001C20.0593 13.5698 20.3699 13.338 20.3699 12.8342C20.3699 12.5992 20.3153 12.4592 20.2152 12.3492C20.0891 12.2386 19.8878 12.1861 19.6107 12.1767L19.2994 12.1636C19.2124 12.1636 19.1509 12.1636 19.0863 12.138C19.0494 12.1264 19.0173 12.1029 18.995 12.0712C18.9727 12.0394 18.9613 12.0012 18.9626 11.9623C18.9626 11.8873 18.9757 11.8255 19.0372 11.7898C19.1063 11.7511 19.185 11.7329 19.264 11.7373H20.2799V11.2367H19.1633C18.5812 11.2367 18.3705 11.6011 18.3705 11.9367C18.3705 12.6886 19.0117 12.6492 19.5361 12.6623C19.62 12.6623 19.6846 12.6748 19.72 12.7105C19.7592 12.7373 19.7878 12.7986 19.7878 12.8605C19.7878 12.9255 19.7586 12.9873 19.7231 13.0105C19.6753 13.0555 19.6007 13.0686 19.4939 13.0686L19.4933 13.068ZM2.67838 -0.128906V8.28609L3.34879 6.72047H4.79833L4.98535 7.10797V6.72047H6.67784L7.05001 7.56984L7.41286 6.72734H12.801C13.0439 6.72734 13.2632 6.77547 13.4254 6.92547V6.73297H14.9073V6.92547C15.1589 6.78234 15.4733 6.73297 15.8324 6.73297H17.9903L18.1916 7.12047V6.73297H19.7803L19.9897 7.12047V6.72984H21.5306V10.0217H19.9673L19.6697 9.51985V10.008H17.7181L17.5075 9.48359H17.0223L16.7992 9.99422H15.7958C15.3975 9.99422 15.0999 9.90984 14.8992 9.79609V9.99422H12.504V9.25922C12.504 9.15859 12.4816 9.15859 12.4201 9.14484H12.3325V10.0073H7.70178V9.61047L7.52719 10.0073H6.56289L6.39451 9.61047V9.99734H4.52744L4.31681 9.47672H3.83466L3.62527 9.99734H2.67651V19.8705H22.3805V13.9461C22.1575 14.0592 21.8729 14.0955 21.5747 14.0955H20.1481V13.8836C19.9735 14.0205 19.6759 14.0955 19.3907 14.0955H14.8632V13.3473C14.8632 13.2467 14.8464 13.2467 14.7631 13.2467H14.7016V14.0992H13.2098V13.2111C12.9638 13.3255 12.6755 13.3342 12.4394 13.3255H12.2648V14.0873H10.4598L10.01 13.5723L9.53717 14.0742H6.60514V10.7992H9.59557L10.0255 11.3011L10.4853 10.7992H12.4816C12.7146 10.7992 13.093 10.8261 13.2614 10.9886V10.7867H15.0638C15.2322 10.7867 15.5982 10.8261 15.8144 10.9748V10.7767H18.5165V10.9748C18.6526 10.838 18.9409 10.7767 19.1832 10.7767H20.749V10.9748C20.9111 10.8517 21.1342 10.7767 21.4448 10.7767H22.4191V-0.128281L2.67838 -0.128906ZM20.2047 12.3317C20.2078 12.3386 20.2078 12.3448 20.2115 12.3486C20.2214 12.3542 20.2339 12.3542 20.2407 12.3642L20.2053 12.3348L20.2047 12.3317ZM22.4184 10.773H22.4737V11.2355H22.4184V10.773ZM22.447 12.3967V12.3898C22.4247 12.3705 22.4116 12.3517 22.3855 12.3317C22.2631 12.2048 22.0618 12.1523 21.7543 12.1461L21.4535 12.1367C21.3566 12.1367 21.2951 12.1298 21.2305 12.1111C21.1936 12.0994 21.1616 12.0759 21.1393 12.0442C21.117 12.0125 21.1056 11.9743 21.1068 11.9355C21.1068 11.8605 21.1323 11.8011 21.1814 11.7655C21.2429 11.7298 21.3038 11.7236 21.4044 11.7236H22.4178V11.2355H21.3566C20.7831 11.2355 20.5607 11.5998 20.5607 11.9355C20.5607 12.6836 21.2075 12.648 21.7288 12.6611C21.8164 12.6611 21.8779 12.6705 21.9133 12.7092C21.9525 12.7361 21.9779 12.7973 21.9779 12.8592C21.9775 12.8882 21.9705 12.9168 21.9576 12.9428C21.9447 12.9687 21.9262 12.9914 21.9034 13.0092C21.8642 13.0542 21.7897 13.0673 21.6803 13.0673H20.6116V13.5717H21.6772C22.0258 13.5717 22.2855 13.4742 22.4247 13.2723H22.447C22.5216 13.158 22.5607 13.0217 22.5607 12.8367C22.5607 12.6342 22.5216 12.5111 22.447 12.3967ZM18.0853 11.7105V11.2255H16.2338V13.5855H18.0853V13.0973H16.7837V12.6255H18.053V12.1373H16.7837V11.7142L18.0853 11.7105ZM13.8721 7.19172H14.4382V9.53922H13.8721V7.19172ZM13.5515 7.82359L13.5447 7.83047C13.5447 7.56609 13.4378 7.4136 13.2632 7.30984C13.0849 7.20547 12.8755 7.19547 12.5941 7.19547H11.3191V9.54547H11.8783V8.68297H12.4742C12.6711 8.68297 12.7979 8.7086 12.8786 8.7836C12.9799 8.89797 12.9663 9.09922 12.9663 9.23922V9.53609H13.5261V9.07672C13.5261 8.8686 13.513 8.76422 13.4347 8.64359C13.3619 8.55674 13.2685 8.48969 13.1632 8.4486C13.2829 8.39538 13.3841 8.30751 13.4539 8.19619C13.5238 8.08488 13.559 7.95516 13.5553 7.82359H13.5515ZM12.8432 8.15297H12.8333C12.7556 8.19797 12.6711 8.20109 12.558 8.20109H11.8752V7.68047H12.558C12.6581 7.68047 12.755 7.68359 12.8296 7.72297C12.9041 7.75547 12.9557 7.83047 12.9557 7.93109C12.9557 8.03172 12.9165 8.1136 12.8432 8.15297ZM15.8685 7.68047H16.3897V7.18234H15.8554C15.4733 7.18234 15.1918 7.27047 15.011 7.45672C14.7749 7.70672 14.7128 8.03234 14.7128 8.38422C14.7128 8.81109 14.8128 9.07734 15.011 9.2761C15.2018 9.47422 15.5447 9.53672 15.8132 9.53672H16.4612L16.6718 9.01234H17.8231L18.04 9.53672H19.1658V7.77859L20.2214 9.53672H21.0112V7.19234H20.4414V8.82984L19.4647 7.19547H18.6197V9.36984L17.6809 7.15672H16.8489L16.0691 9.00922H15.82C15.6752 9.00922 15.5193 8.98359 15.4323 8.89485C15.3285 8.77172 15.2801 8.59547 15.2801 8.34484C15.2801 8.10734 15.3447 7.91797 15.4385 7.82047C15.5485 7.70609 15.6653 7.68047 15.866 7.68047H15.8685ZM17.2503 7.59297L17.6324 8.52359V8.52672H16.862L17.2503 7.59297ZM4.64922 9.01172L4.85984 9.53609H5.99252V7.70047L6.79837 9.53609H7.28052L8.08576 7.70047L8.0988 9.53609H8.67104V7.19547H7.74589L7.07921 8.78047L6.35164 7.19234H5.44886V9.41234L4.50383 7.19234H3.67871L2.68894 9.53672H3.28355L3.49728 9.0161H4.64984L4.64922 9.01172ZM4.07946 7.59297L4.46158 8.52359L4.45847 8.52672H3.70108L4.07946 7.59297ZM12.4996 11.2217H10.727L10.0212 11.9898L9.33835 11.2217H7.10904V13.5717H9.30604L10.0143 12.7942L10.6978 13.5692H11.7746V12.7873H12.4704C12.9656 12.7873 13.4378 12.6505 13.4378 11.9998L13.4347 11.9967C13.4347 11.3461 12.9402 11.2217 12.4996 11.2217ZM9.0339 13.0811H7.66512V12.6155H8.88105V12.1373H7.66512V11.7142H9.05626L9.66516 12.3973L9.03079 13.0842L9.0339 13.0811ZM11.221 13.358L10.3666 12.4005L11.221 11.4798V13.358ZM12.5059 12.3092H11.7746V11.7098H12.5059C12.7065 11.7098 12.8557 11.7917 12.8557 11.9967C12.8557 12.2017 12.7333 12.3092 12.5059 12.3092ZM10.937 7.68047V7.19234H9.08236V9.53984H10.937V9.05484H9.63534V8.58547H10.901V8.10359H9.63534V7.68047H10.937Z" fill="white"/>
</g>
<defs>
<clipPath id="clip0">
<rect width="26" height="20" fill="white"/>
</clipPath>
</defs>
</svg>
