<svg width="20" height="20" viewBox="0 0 20 20" fill="none" xmlns="http://www.w3.org/2000/svg">
<path fill-rule="evenodd" clip-rule="evenodd" d="M0 5V15C0 17.7614 2.23858 20 5 20H15C17.7614 20 20 17.7614 20 15V5C20 2.23858 17.7614 0 15 0H5C2.23858 0 0 2.23858 0 5ZM13.5067 2.62218C13.3504 2.61161 13.1991 2.6069 13.0539 2.60998C12.6181 2.61923 12.2325 2.69025 11.8966 2.82238C10.589 3.32898 9.92521 4.3284 9.92521 5.89855V8.07628H8.0905V10.6129H9.92521V17.6747H12.568V10.6129H15.1693L15.2768 8.07628H12.568V6.21593C12.5924 5.36988 12.8631 5.07873 13.6129 5.09533H15.2121L15.2768 2.72716C14.6815 2.67476 14.0813 2.62296 13.5067 2.62218Z" fill="white"/>
</svg>
