<?xml version="1.0" encoding="UTF-8"?>
<!-- Generator: Adobe Illustrator 25.2.1, SVG Export Plug-In . SVG Version: 6.00 Build 0)  -->
<svg version="1.1" id="Layer_1" xmlns="http://www.w3.org/2000/svg" xmlns:xlink="http://www.w3.org/1999/xlink" x="0px" y="0px" viewBox="0 0 187.1 118.9" style="enable-background:new 0 0 187.1 118.9;" xml:space="preserve">
<style type="text/css">
	.st0{fill-rule:evenodd;clip-rule:evenodd;fill:#00AEEF;}
</style>
<g>
	<path class="st0" d="M163.1,29.4h24l-2.4,12.8H175l-2.3,12.1h8.7l-2.2,12.1h-8.7l-9.3,52.5h-14.3L163.1,29.4L163.1,29.4z    M157.9,29.4h-14.6l-8.8,47.1c-0.6,3.2-1.1,5.2-1.5,6.2c-0.5,0.8-1.1,1.2-2.1,1.2c-0.8,0-1.3-0.4-1.4-1.1c-0.1-0.8,0.1-2.6,0.6-5.4   l9-48h-14.7l-7.1,37.9c-1.3,7.2-2.2,11.9-2.4,14.2c-0.1,2.3,0.2,4.4,1.1,6.5c0.8,2.1,2.5,3.7,4.8,4.9c2.4,1.3,5.1,2,8.5,2   c3.1,0,5.8-0.5,8.2-1.6c2.5-1,4.5-2.7,6.3-4.7c1.7-2.1,3-4.1,3.6-6.1c0.7-2,1.4-5.3,2.4-10.3L157.9,29.4L157.9,29.4z M98.3,70.5   c0.6-7.3,1.5-16.1,2.9-26.8c-3.8,12.2-6.4,21-7.7,26.8H98.3L98.3,70.5z M113.2,29.4l-4.5,64.1H95.2l1.4-11.6h-5.1l-3.1,11.6H73.8   l20.5-64.1H113.2L113.2,29.4z M82.8,29.4H70.4l-5.3,28.9l-2.9-28.9H50L38,93.4h12.3l5.4-29.2l2.2,29.2h12.8L82.8,29.4L82.8,29.4z    M43.4,29.9l-12.1,29l3,34.6H20.8l-2.5-22.9l-4.3,22.9H0L14.7,0h14.1l-7.2,51.1l8.9-21.3H43.4L43.4,29.9z"/>
</g>
</svg>