<svg width="55" height="76" viewBox="0 0 55 76" fill="none" xmlns="http://www.w3.org/2000/svg">
<g clip-path="url(#clip0)">
<path fill-rule="evenodd" clip-rule="evenodd" d="M1.01721 0H53.6214C54.2027 0 54.6386 0.435946 54.6386 1.01721V74.9828C54.6386 75.5641 54.2027 76 53.6214 76H1.01721C0.435946 76 0 75.5641 0 74.9828V1.01721C0 0.435946 0.435946 0 1.01721 0ZM13.2237 7.84704H42.1415C42.8681 7.84704 43.304 8.4283 43.304 9.00956V10.8987C43.304 11.6252 42.7228 12.0612 42.1415 12.0612H13.2237C12.4971 12.0612 12.0612 11.4799 12.0612 10.8987V9.00956C12.0612 8.28298 12.4971 7.84704 13.2237 7.84704ZM19.7629 14.2409H35.7476C36.1836 14.2409 36.4742 14.5315 36.4742 14.9675V15.9847C36.4742 16.4207 36.1836 16.7113 35.7476 16.7113H19.7629C19.327 16.7113 19.0363 16.4207 19.0363 15.9847V14.9675C19.0363 14.5315 19.327 14.2409 19.7629 14.2409ZM7.26577 24.7036H49.262C49.5526 24.7036 49.8432 24.9943 49.8432 25.1396V25.8662C49.8432 26.1568 49.5526 26.3021 49.262 26.3021H7.26577C6.97514 26.3021 6.82983 26.0115 6.82983 25.8662V25.1396C6.82983 24.9943 6.97514 24.7036 7.26577 24.7036ZM7.26577 48.9713H49.262C49.5526 48.9713 49.8432 49.262 49.8432 49.4073V50.1338C49.8432 50.4245 49.5526 50.5698 49.262 50.5698H7.26577C6.97514 50.5698 6.82983 50.2792 6.82983 50.1338V49.4073C6.82983 49.262 6.97514 48.9713 7.26577 48.9713ZM7.26577 45.4837H49.262C49.5526 45.4837 49.8432 45.7744 49.8432 45.9197V46.6463C49.8432 46.9369 49.5526 47.0822 49.262 47.0822H7.26577C6.97514 47.0822 6.82983 46.7916 6.82983 46.6463V45.9197C6.82983 45.7744 6.97514 45.4837 7.26577 45.4837ZM7.26577 41.9962H49.262C49.5526 41.9962 49.8432 42.2868 49.8432 42.4321V43.1587C49.8432 43.4493 49.5526 43.74 49.262 43.74H7.26577C6.97514 43.74 6.82983 43.4493 6.82983 43.1587V42.4321C6.82983 42.2868 6.97514 41.9962 7.26577 41.9962ZM7.26577 38.6539H49.262C49.5526 38.6539 49.8432 38.9445 49.8432 39.0899V39.8164C49.8432 40.1071 49.5526 40.2524 49.262 40.2524H7.26577C6.97514 40.2524 6.82983 39.9618 6.82983 39.8164V39.0899C6.82983 38.7992 6.97514 38.6539 7.26577 38.6539ZM7.26577 35.1664H49.262C49.5526 35.1664 49.8432 35.457 49.8432 35.6023V36.3289C49.8432 36.6195 49.5526 36.7648 49.262 36.7648H7.26577C6.97514 36.7648 6.82983 36.4742 6.82983 36.3289V35.6023C6.82983 35.3117 6.97514 35.1664 7.26577 35.1664ZM7.26577 31.6788H49.262C49.5526 31.6788 49.8432 31.9694 49.8432 32.1147V32.8413C49.8432 33.1319 49.5526 33.4226 49.262 33.4226H7.26577C6.97514 33.4226 6.82983 33.1319 6.82983 32.8413V32.1147C6.82983 31.8241 6.97514 31.6788 7.26577 31.6788ZM7.26577 28.1912H49.262C49.5526 28.1912 49.8432 28.4818 49.8432 28.7725V29.499C49.8432 29.7897 49.5526 29.935 49.262 29.935H7.26577C6.97514 29.935 6.82983 29.6444 6.82983 29.499V28.7725C6.82983 28.3365 6.97514 28.1912 7.26577 28.1912ZM7.26577 52.4589H37.9273C38.218 52.4589 38.3633 52.7495 38.3633 52.8948V53.6214C38.3633 53.912 38.0727 54.0574 37.9273 54.0574H7.26577C6.97514 54.0574 6.82983 53.912 6.82983 53.6214V52.8948C6.82983 52.7495 6.97514 52.4589 7.26577 52.4589ZM7.26577 59.7247H20.3442C20.6348 59.7247 20.9254 60.0153 20.9254 60.1606V60.8872C20.9254 61.1778 20.6348 61.3231 20.3442 61.3231H7.26577C6.97514 61.3231 6.82983 61.0325 6.82983 60.8872V60.1606C6.82983 60.0153 6.97514 59.7247 7.26577 59.7247ZM43.5946 60.7419L45.0478 62.195L46.6463 61.7591L46.9369 63.7935L48.5354 64.3748L47.6635 66.1185L48.5354 67.5717L46.7916 68.4436L46.6463 70.1874L44.6119 69.7514L43.5946 71.0593L42.1415 69.6061L40.543 70.0421L40.2524 68.153L38.6539 67.5717L39.5258 65.8279L38.6539 64.3748L40.3977 63.5029L40.543 61.7591L42.4321 62.0497L43.5946 60.7419Z" fill="white"/>
</g>
<defs>
<clipPath id="clip0">
<rect width="54.7839" height="76" fill="white"/>
</clipPath>
</defs>
</svg>
