<svg width="20" height="20" viewBox="0 0 20 20" fill="none" xmlns="http://www.w3.org/2000/svg">
<path fill-rule="evenodd" clip-rule="evenodd" d="M0 5V15C0 17.7614 2.23858 20 5 20H15C17.7614 20 20 17.7614 20 15V5C20 2.23858 17.7614 0 15 0H5C2.23858 0 0 2.23858 0 5ZM6.88671 5.98825C6.85642 5.15554 6.16007 4.67451 5.45316 4.66667C4.63399 4.68404 4.00998 5.25603 4 5.98825C4.03168 6.80876 4.71516 7.30186 5.41504 7.30982H5.43464C6.24761 7.2927 6.90182 6.72871 6.88671 5.98825ZM15.1503 9.00318C14.5477 8.39726 13.8142 8.16984 13.037 8.16509C12.4673 8.1745 11.9394 8.29307 11.5 8.60239C11.176 8.83562 10.9345 9.12532 10.7168 9.43079V8.35204H8.15142C8.164 8.56294 8.16993 8.97226 8.16993 9.58015C8.17392 11.362 8.16524 13.1437 8.15655 14.9255C8.1548 15.2837 8.15306 15.6418 8.15142 16H10.7168V11.7194C10.7205 11.506 10.732 11.292 10.8115 11.1059C11.1029 10.5276 11.5284 10.1817 12.1318 10.1754C13.1614 10.2064 13.4278 11.1391 13.4335 11.9063V16H16V11.6076C15.9776 10.642 15.7766 9.69208 15.1503 9.00318ZM6.71677 8.35204H4.15142V16H6.71677V8.35204Z" fill="white"/>
</svg>
