<?xml version="1.0" encoding="UTF-8"?>
<!-- Generator: Adobe Illustrator 25.2.1, SVG Export Plug-In . SVG Version: 6.00 Build 0)  -->
<svg version="1.1" id="svg8" xmlns="http://www.w3.org/2000/svg" xmlns:xlink="http://www.w3.org/1999/xlink" x="0px" y="0px" viewBox="0 0 75.5 74.4" style="enable-background:new 0 0 75.5 74.4;" xml:space="preserve">
<style type="text/css">
	.st0{fill:#232E7F;}
	.st1{fill:#FFFFFF;}
</style>
<path class="st0" d="M75.5,37.2C74.6,86.8,0.8,86.8,0,37.2C0.8-12.4,74.7-12.4,75.5,37.2"/>
<path class="st1" d="M24.2,31.1v12.3h4V31.1H24.2z"/>
<polygon class="st1" points="16.5,35.9 10,30.2 10,43.4 14,43.4 14,38.6 20.6,44.3 20.6,31.1 16.5,31.1 "/>
<path class="st1" d="M43,31.1h-4.3l-2.8,5.5c-0.2-0.4-2.8-5.5-2.8-5.5h-4.3l7,13.2C35.9,44.3,43,31.1,43,31.1z"/>
<path class="st1" d="M57.4,42.1h5l0.7,1.3h4.2l-7.4-13.3c-2.5,4.4-7.4,13.3-7.4,13.3h4.2L57.4,42.1z M59.9,36.9l1.6,3.1h-3.1  L59.9,36.9z"/>
<polygon class="st1" points="51.5,40.2 47.7,40.2 47.7,38.3 51.5,38.3 51.5,35.9 47.7,35.9 47.7,34.2 51.5,34.2 51.5,31.1   43.7,31.1 43.7,43.4 51.5,43.4 "/>
</svg>