<svg width="26" height="20" viewBox="0 0 26 20" fill="none" xmlns="http://www.w3.org/2000/svg">
<path fill-rule="evenodd" clip-rule="evenodd" d="M7 0C3.13401 0 0 3.13401 0 7V13C0 16.866 3.13401 20 7 20H19C22.866 20 26 16.866 26 13V7C26 3.13401 22.866 0 19 0H7ZM13.5286 13.2307V6.92305L16.6725 6.92401C17.1036 6.92401 17.4324 6.95959 17.658 7.03074C18.1761 7.19324 18.5231 7.5269 18.6999 8.03074C18.7917 8.29517 18.8385 8.69421 18.8385 9.22594C18.8385 9.86536 18.7869 10.3259 18.6856 10.6048C18.4849 11.1586 18.07 11.4779 17.4429 11.5606C17.3693 11.5731 17.0558 11.5836 16.5024 11.5923L16.2223 11.6019H15.2167V13.2307H13.5286ZM18.135 13.2307L20.019 6.92305L22.5636 6.92401L24.4706 13.2298H22.7615L22.4393 12.1404H20.1835L19.8804 13.2307H18.135ZM9.28735 7.50478C9.82045 7.14325 10.4491 6.95099 11.0921 6.95286C11.9157 6.95001 12.709 7.26568 13.3078 7.83459L13.3221 7.84805L12.9312 8.6894L12.9044 8.65575C12.4848 8.13651 11.8635 7.83844 11.2001 7.83844C10.8229 7.83984 10.4523 7.93851 10.1238 8.12503C9.79528 8.31155 9.5198 8.57969 9.32368 8.90382H12.805L12.7868 8.94228L12.3682 9.84517L12.3605 9.86151H9.01015C8.99519 10.03 8.99903 10.1997 9.02162 10.3673H12.1263L11.6818 11.324H9.39154C9.58037 11.6016 9.82982 11.832 10.1208 11.9977C10.4118 12.1633 10.7366 12.2598 11.0704 12.2798C11.4041 12.2997 11.738 12.2426 12.0465 12.1128C12.3549 11.983 12.6297 11.7839 12.8499 11.5307L12.8977 11.4769V12.6702L12.8853 12.6788C12.3541 13.0342 11.73 13.223 11.0921 13.2211C10.4735 13.2251 9.86715 13.0478 9.34706 12.7109C8.82698 12.374 8.41563 11.8921 8.16323 11.324H7.02765L7.47213 10.3673H7.91853C7.90333 10.1991 7.90205 10.0299 7.91471 9.86151H6.98846L7.43198 8.90382H8.14125C8.37855 8.33446 8.77713 7.84791 9.28735 7.50478ZM3.06647 7.00286C3.40963 6.97209 3.79007 6.95671 4.20971 6.95671H4.20875C4.86735 6.95671 5.33669 6.99517 5.61676 7.07113C6.30022 7.25574 6.64147 7.77209 6.64147 8.62209C6.64147 8.69228 6.63573 8.79613 6.62618 8.93555H5.05662C5.05662 8.67594 5.02603 8.50286 4.96581 8.4144C4.87213 8.28267 4.615 8.21728 4.19346 8.21728C3.78338 8.21728 3.51191 8.25478 3.37904 8.33074C3.24713 8.40671 3.18022 8.57113 3.18022 8.82498C3.18022 9.05382 3.23853 9.20574 3.35706 9.27786C3.45981 9.3344 3.57453 9.36539 3.69162 9.36824L4.00801 9.39036C4.68669 9.43651 5.11015 9.46824 5.27934 9.48651C5.81463 9.54036 6.20463 9.68459 6.44551 9.91728C6.63921 10.1063 6.75953 10.3586 6.78485 10.6288C6.80684 10.8038 6.8164 11.0009 6.8164 11.2221C6.8164 11.7298 6.7686 12.1019 6.67206 12.3375C6.49713 12.7692 6.10522 13.0423 5.49346 13.1577C5.23728 13.2057 4.84632 13.2298 4.31963 13.2298C3.44118 13.2298 2.82846 13.1779 2.48243 13.0721C2.05801 12.9423 1.77794 12.6798 1.64221 12.2836C1.56765 12.0644 1.52941 11.6971 1.52941 11.1846H3.09897V11.3154C3.09897 11.5894 3.17735 11.7654 3.33412 11.8432C3.45684 11.9007 3.59066 11.9303 3.72603 11.9298H4.30338C4.59779 11.9298 4.7861 11.9144 4.8664 11.8836C4.93133 11.8619 4.99061 11.8259 5.0399 11.7781C5.08919 11.7304 5.12723 11.6721 5.15125 11.6077C5.17752 11.509 5.18944 11.4069 5.18662 11.3048C5.18662 11.0269 5.08625 10.8577 4.88456 10.7971C4.81 10.7731 4.46015 10.7404 3.835 10.6981C3.33412 10.6615 2.98522 10.6269 2.78926 10.5932C2.27596 10.4961 1.93375 10.2981 1.76265 9.99613C1.61257 9.7394 1.53706 9.3519 1.53706 8.83267C1.53706 8.43651 1.57721 8.11921 1.65941 7.88074C1.72679 7.66107 1.8646 7.47004 2.05132 7.33748C2.3161 7.14709 2.65544 7.03555 3.06647 7.00286ZM22.1048 10.9115L21.3143 8.17786L20.5467 10.9115H22.1048ZM16.2825 8.30286H15.2157L15.2167 10.1394H16.2682C16.6018 10.1269 16.8044 10.1009 16.8771 10.0606C16.9774 10.0057 17.0443 9.89517 17.0778 9.72978C17.1027 9.56694 17.1133 9.40219 17.1093 9.23748C17.1093 8.97113 17.0883 8.77305 17.0453 8.64421C16.9851 8.46344 16.8388 8.35286 16.6094 8.31248C16.5635 8.30671 16.4546 8.30286 16.2825 8.30286Z" fill="white"/>
</svg>
