<svg width="43" height="76" viewBox="0 0 43 76" fill="none" xmlns="http://www.w3.org/2000/svg">
<g clip-path="url(#clip0)">
<path fill-rule="evenodd" clip-rule="evenodd" d="M2.80615 0H39.6369C41.1569 0 42.4431 1.16923 42.4431 2.80615V73.3108C42.4431 74.8308 41.2739 76.1169 39.6369 76.1169H2.80615C1.28615 76 0 74.7138 0 73.1938V2.80615C0 1.16923 1.28615 0 2.80615 0ZM37.8831 5.49538V64.0738H4.44308V5.49538H37.8831ZM18.4738 66.9969H23.9692C24.0862 66.9969 24.32 67.1138 24.32 67.3477V72.2585C24.32 72.3754 24.0862 72.6092 23.9692 72.6092H18.4738C18.24 72.6092 18.1231 72.3754 18.1231 72.2585V67.3477C18.1231 67.1138 18.24 66.9969 18.4738 66.9969ZM15.7846 31.3354H18.7077C18.7077 30.8677 18.5908 31.92 18.5908 31.5692C18.5908 31.2185 18.5908 30.9846 18.7077 30.7508C16.6031 29.8154 15.3169 28.2954 15.3169 25.4892C15.3169 22.6831 17.8892 19.6431 21.1631 19.6431C24.32 19.6431 27.0092 22.8 27.0092 25.4892C27.0092 28.2954 25.6062 29.9323 23.6185 30.7508C23.6185 30.9846 23.6185 31.2185 23.6185 31.5692C23.6185 31.92 23.6185 30.9846 23.6185 31.3354H26.5415C28.2954 31.3354 29.8154 32.7385 29.8154 34.6092V43.6123C29.8154 45.4831 28.2954 46.8862 26.5415 46.8862H15.6677C13.7969 46.8862 12.3938 45.4831 12.3938 43.6123V34.6092C12.5108 32.7385 13.9138 31.3354 15.7846 31.3354ZM8.06769 51.7969H19.8769C20.6954 51.7969 21.28 52.3815 21.28 53.2C21.28 54.0185 20.6954 54.6031 19.8769 54.6031H8.06769C7.36616 54.6031 6.66462 54.0185 6.66462 53.2C6.78154 52.4985 7.36616 51.7969 8.06769 51.7969ZM14.3815 55.5385H26.1908C27.0092 55.5385 27.5939 56.1231 27.5939 56.9415C27.5939 57.76 27.0092 58.3446 26.1908 58.3446H14.3815C13.5631 58.3446 12.9785 57.76 12.9785 56.9415C12.8615 56.1231 13.5631 55.5385 14.3815 55.5385ZM8.06769 59.1631H19.8769C20.6954 59.1631 21.28 59.7477 21.28 60.5662C21.28 61.3846 20.6954 61.9692 19.8769 61.9692H8.06769C7.36616 61.9692 6.66462 61.3846 6.66462 60.5662C6.78154 59.7477 7.36616 59.1631 8.06769 59.1631ZM35.0769 6.78154H23.3846C22.5662 6.78154 21.9815 7.36615 21.9815 8.18462C21.9815 9.00308 22.5662 9.58769 23.3846 9.58769H35.0769C35.8954 9.58769 36.48 9.00308 36.48 8.18462C36.48 7.48308 35.8954 6.78154 35.0769 6.78154ZM28.88 10.5231H17.1877C16.3692 10.5231 15.7846 11.1077 15.7846 11.9262C15.7846 12.6277 16.3692 13.3292 17.1877 13.3292H28.88C29.6985 13.3292 30.2831 12.7446 30.2831 11.9262C30.2831 11.1077 29.5815 10.5231 28.88 10.5231ZM35.0769 14.1477H23.3846C22.5662 14.1477 21.9815 14.7323 21.9815 15.5508C21.9815 16.3692 22.5662 16.9538 23.3846 16.9538H35.0769C35.8954 16.9538 36.48 16.3692 36.48 15.5508C36.48 14.7323 35.8954 14.1477 35.0769 14.1477Z" fill="white"/>
</g>
<defs>
<clipPath id="clip0">
<rect width="42.3262" height="76" fill="white"/>
</clipPath>
</defs>
</svg>
