<svg width="120" height="85" viewBox="0 0 120 85" fill="none" xmlns="http://www.w3.org/2000/svg">
<g clip-path="url(#clip0)">
<path fill-rule="evenodd" clip-rule="evenodd" d="M90.7268 23.8648C97.4873 23.8648 103.572 26.569 107.966 31.031C112.361 35.4254 115.132 41.5099 115.132 48.2705C115.132 49.0817 115.065 49.893 114.997 50.7043C114.93 51.5155 114.794 52.3268 114.659 53.1381L114.592 53.4761L114.254 53.5437L99.3803 55.9099C98.9747 55.9775 98.6366 56.1803 98.3662 56.4507C98.0958 56.7212 97.9606 57.1268 97.9606 57.5324V71.1212V71.4592L97.6225 71.5944C96.5408 71.9324 95.3916 72.2029 94.1747 72.3381C93.0254 72.4733 91.8761 72.6085 90.6592 72.6085C83.8986 72.6085 77.8141 69.9043 73.4197 65.4423C69.0253 61.0479 66.2535 54.9634 66.2535 48.2028C66.2535 41.4423 68.9577 35.3578 73.4197 30.9634C77.8817 26.6366 83.9662 23.8648 90.7268 23.8648ZM99.8535 57.5324L119.73 54.2197L120 54.1521V54.4226V58.9521V59.155V78.5578V78.7606H119.932C119.865 79.4367 119.459 80.1127 118.783 80.5859C118.107 81.0592 117.161 81.3972 116.146 81.3972C115.132 81.3972 114.186 81.0592 113.51 80.5859C112.834 80.0451 112.361 79.369 112.361 78.5578C112.361 77.7465 112.766 77.0705 113.51 76.5296C114.186 76.0564 115.132 75.7183 116.146 75.7183C116.485 75.7183 116.89 75.7859 117.228 75.8536C117.431 75.9212 117.701 75.9888 117.904 76.0564V59.5606L101.814 62.1972V81.7353V81.9381H101.746C101.679 82.6141 101.273 83.2902 100.597 83.7634C99.9211 84.2367 98.9747 84.5747 97.9606 84.5747C96.9465 84.5747 96 84.3043 95.3239 83.7634C94.6479 83.2226 94.1747 82.5465 94.1747 81.7353C94.1747 80.924 94.5803 80.2479 95.3239 79.7071C96 79.2338 96.9465 78.8958 97.9606 78.8958C98.2986 78.8958 98.7042 78.9634 99.0423 79.031C99.2451 79.0986 99.5155 79.1662 99.7183 79.2338V62.3324V61.7916V57.8028V57.6L99.8535 57.5324ZM95.9324 43.0648C94.5803 41.7127 92.7549 40.9014 90.7268 40.9014C88.6986 40.9014 86.8732 41.7127 85.5211 43.0648C84.169 44.4169 83.3577 46.2423 83.3577 48.2705C83.3577 50.2986 84.169 52.124 85.5211 53.4761C86.8732 54.8282 88.6986 55.6395 90.7268 55.6395C92.7549 55.6395 94.5803 54.8282 95.9324 53.4761C97.2845 52.124 98.0958 50.2986 98.0958 48.2705C98.0958 46.2423 97.2845 44.4169 95.9324 43.0648ZM109.859 63.4141C109.048 64.4282 108.169 65.3747 107.223 66.186C106.276 67.0648 105.262 67.8085 104.18 68.5522L103.437 69.0254V68.1465V64.0226V63.6169L103.842 63.5493L109.386 62.6705L109.859 63.4141Z" fill="white"/>
<path d="M10.2084 59.6281H8.9915V62.3324H10.2084V59.6281Z" fill="white"/>
<path d="M12.1014 59.6281H10.8845V62.3324H12.1014V59.6281Z" fill="white"/>
<path d="M20.3493 62.4676C20.9578 62.4676 21.4986 62.1296 21.7014 61.5887H41.5099V60.3718H21.7691C21.5662 59.831 21.0254 59.493 20.4169 59.493C19.8085 59.493 19.2676 59.831 19.0648 60.3718H14.6705V61.5887H19.0648C19.2676 62.1296 19.7409 62.4676 20.3493 62.4676Z" fill="white"/>
<path d="M31.9775 40.293V31.7747H0.608451C0.270423 31.7747 0 32.0451 0 32.3831V64.2254C0 64.5634 0.270423 64.8338 0.608451 64.8338H43.538C43.8761 64.8338 44.1465 64.5634 44.1465 64.2254V42.4563H34.0732C32.9239 42.4563 31.9775 41.5099 31.9775 40.293ZM18.862 39.8873C18.862 39.7521 18.9296 39.6845 18.9972 39.6169C19.0648 39.5493 19.2 39.5493 19.3352 39.6169L28.0563 44.6873C28.1239 44.7549 28.1915 44.8225 28.1915 44.9578C28.1915 45.093 28.1239 45.1606 28.0563 45.2282L19.3352 50.2986C19.2676 50.2986 19.2 50.3662 19.2 50.3662C19.1324 50.3662 19.0648 50.3662 19.0648 50.2986C18.9972 50.231 18.9296 50.1634 18.9296 50.0282V39.8873H18.862ZM42.9296 63.6169H1.2169V58.4113H42.9972V63.6169H42.9296Z" fill="white"/>
<path d="M34.0733 41.1042C33.8704 41.1042 33.6676 41.0366 33.5324 40.9014C33.6676 41.0366 33.8704 41.1042 34.0733 41.1042H44.1465H34.0733Z" fill="white"/>
<path d="M2.56897 59.5605V62.4676L4.66474 60.9803L2.56897 59.5605Z" fill="white"/>
<path d="M45.3634 13.9944H45.431C45.4986 13.9944 45.5662 13.9268 45.6338 13.9268C45.7014 13.9268 45.769 13.9268 45.769 13.9268H45.8366C45.9043 13.9268 46.0395 13.9944 46.1071 14.062C46.1747 14.1296 46.1747 14.1296 46.2423 14.1972L54.6254 24.8789L67.6733 8.45073C67.7409 8.38312 67.8085 8.31551 67.9437 8.24791H68.0113C68.0789 8.24791 68.1465 8.1803 68.2141 8.1803C68.2141 8.1803 68.2141 8.1803 68.2817 8.1803C68.3493 8.1803 68.3493 8.1803 68.4169 8.1803H68.4845C68.5521 8.1803 68.6873 8.24791 68.755 8.31551C68.8226 8.38312 68.8902 8.38312 68.8902 8.45073L78.4902 20.1465V6.35495H39.955V20.0789L45.093 14.1296C45.1606 14.062 45.2958 13.9944 45.3634 13.9944ZM52.2592 9.46481C52.8676 8.85636 53.7465 8.45073 54.7606 8.45073C55.7071 8.45073 56.5859 8.85636 57.262 9.46481C57.8704 10.0733 58.2761 10.9521 58.2761 11.9662C58.2761 12.9127 57.8704 13.7916 57.262 14.4676C56.6535 15.0761 55.7747 15.4817 54.7606 15.4817C53.8141 15.4817 52.9352 15.0761 52.2592 14.4676C51.6507 13.8592 51.2451 12.9803 51.2451 11.9662C51.2451 10.9521 51.6507 10.0733 52.2592 9.46481Z" fill="white"/>
<path d="M42.524 37.5887C43.0648 37.5887 43.6057 37.5211 44.1465 37.4535V41.1718H65.9831C66.5916 38.9408 67.5381 36.8451 68.755 34.8845H39.2113C38.8057 34.8845 38.4 34.5465 38.4 34.0732V34.0056V22.2423V22.1746V5.54366C38.4 5.13803 38.7381 4.73239 39.2113 4.73239H79.3015C79.7747 4.73239 80.1127 5.07042 80.1127 5.54366V24.8113C81.7353 24.0676 83.4254 23.5268 85.1831 23.1211V0.811268C85.1831 0.405634 84.8451 0 84.3719 0H34.0733C33.6677 0 33.262 0.338028 33.262 0.811268V31.7746H35.9662C36.4395 34.8169 38.6029 37.5887 42.524 37.5887Z" fill="white"/>
<path d="M44.1465 41.1042V37.3859C43.6733 37.5211 43.1324 37.5211 42.524 37.5211C38.5353 37.5211 36.3719 34.7493 35.9662 31.7747H33.262V40.293C33.262 40.4958 33.3296 40.6986 33.4648 40.8338C33.6 40.969 33.8029 41.0366 34.0057 41.0366H44.1465V41.1042Z" fill="white"/>
<path d="M46.1746 14.062C46.107 13.9944 46.0394 13.9268 45.9042 13.9268C46.0394 13.9944 46.107 13.9944 46.1746 14.062Z" fill="white"/>
<path d="M68.8225 8.31551C68.7549 8.2479 68.6873 8.2479 68.5521 8.1803C68.6197 8.2479 68.7549 8.2479 68.8225 8.31551Z" fill="white"/>
</g>
<defs>
<clipPath id="clip0">
<rect width="120" height="84.507" fill="white"/>
</clipPath>
</defs>
</svg>
