<svg width="76" height="76" viewBox="0 0 76 76" fill="none" xmlns="http://www.w3.org/2000/svg">
<path fill-rule="evenodd" clip-rule="evenodd" d="M6.21362 41.1279C9.38804 37.9535 13.7834 36 18.5857 36C23.3881 36 27.7834 37.9535 30.9578 41.1279C34.1322 44.3023 36.0857 48.6977 36.0857 53.5C36.0857 58.3023 34.1322 62.6977 30.9578 65.8721C27.7834 69.0465 23.3881 71 18.5857 71C13.7834 71 9.38804 69.0465 6.21362 65.8721C3.0392 62.6977 1.08572 58.3023 1.08572 53.5C1.08572 48.6977 3.0392 44.3023 6.21362 41.1279ZM19.896 63.2727C21.2658 63.2727 22.3787 62.8687 23.406 61.9798C24.4333 61.0909 25.375 59.798 26.4024 58.101L27.6009 58.9899C27.1728 59.9596 26.7448 60.8485 26.2311 61.6566C25.7175 62.4647 25.1182 63.1111 24.4333 63.6768C23.7485 64.3232 22.8924 64.8081 22.0363 65.1313C21.0946 65.5354 20.0673 65.697 18.8687 65.697C17.4134 65.697 16.0436 65.3738 14.7595 64.8081C13.4753 64.2425 12.3624 63.3536 11.4207 62.3031C10.5646 61.2526 9.79414 59.8788 9.28048 58.3435C8.76683 56.8081 8.50998 55.0303 8.50998 53.1717C8.50998 51.3131 8.76683 49.6162 9.28048 48C9.79414 46.4647 10.5646 45.0101 11.5063 43.8788C12.448 42.7475 13.5609 41.8586 14.9307 41.2121C16.3004 40.5657 17.6702 40.2424 19.2112 40.2424C20.3241 40.2424 21.2658 40.4041 22.2075 40.7273C23.1492 41.0505 23.9197 41.4546 24.5189 41.8586L25.375 40.8889H26.5736L26.6592 49.697H25.4607C24.7758 47.0303 23.9197 45.0909 22.978 43.798C21.9507 42.5859 20.7521 41.9394 19.3824 41.9394C17.5846 41.9394 16.3004 42.9091 15.3587 44.7677C14.417 46.6263 13.989 49.293 13.989 52.6869C13.989 54.6263 14.0746 56.2424 14.417 57.6162C14.6739 58.9091 15.1019 60.0404 15.6156 60.8485C16.1292 61.6566 16.7285 62.3031 17.499 62.7071C18.1838 63.0303 19.0399 63.2727 19.896 63.2727Z" fill="white"/>
<path fill-rule="evenodd" clip-rule="evenodd" d="M70.0435 65.8721C66.8691 69.0465 62.4737 71 57.6714 71C52.8691 71 48.4737 69.0465 45.2993 65.8721C42.1249 62.6977 40.1714 58.3023 40.1714 53.5C40.1714 48.6977 42.1249 44.3023 45.2993 41.1279C48.4737 37.9535 52.8691 36 57.6714 36C62.4737 36 66.8691 37.9535 70.0435 41.1279C73.2179 44.3023 75.1714 48.6977 75.1714 53.5C75.1714 58.3023 73.2179 62.6977 70.0435 65.8721ZM55.0523 65.2023H53.433C53.2147 65.2023 52.9964 65.2689 52.7559 65.3423C52.4615 65.4321 52.134 65.5321 51.7329 65.5321C51.0042 65.5321 50.0326 65.5321 48.6563 65.6145V64.3778C49.7898 64.3778 50.5184 64.2129 50.8423 63.8831C51.1661 63.5533 51.328 62.8112 51.328 61.6569V46.4861C51.328 45.3318 51.1661 44.5898 50.8423 44.26C50.5184 43.9302 49.7898 43.7653 48.6563 43.7653V42.4461C49.3849 42.5285 50.0326 42.5285 50.7613 42.5285H52.8663C53.1452 42.5285 53.454 42.5133 53.8058 42.4959C54.2711 42.4728 54.8116 42.4461 55.4571 42.4461C56.5906 42.3636 57.4002 42.3636 57.9669 42.3636C60.8006 42.3636 62.9866 42.8583 64.363 43.7653C65.7393 44.6722 66.468 46.0739 66.468 47.9702C66.468 49.7841 65.9012 51.1858 64.7678 52.1752C63.6343 53.1646 61.8531 53.6593 59.5052 53.8242C61.6912 53.9891 63.2295 54.4013 64.1201 55.1434C65.0107 55.8854 65.5774 57.1222 65.8203 58.8536C65.9013 59.2659 65.9822 59.9255 65.9822 60.75C66.0632 62.6463 66.5489 63.5533 67.3586 63.5533C67.8443 63.5533 68.1682 63.4708 68.4111 63.141C68.654 62.8937 68.8159 62.399 68.9778 61.7394L69.8684 61.9043C69.6255 63.2235 69.2207 64.2129 68.573 64.79C67.9253 65.3672 67.0347 65.697 65.8203 65.697C64.4439 65.697 63.4724 65.3671 62.9056 64.6251C62.3389 63.8831 62.0151 62.7288 62.0151 61.0798V60.2553V59.3483C62.0151 57.3695 61.6912 56.1328 60.9626 55.4732C60.2339 54.8136 58.8575 54.4838 56.9144 54.4838H55.2952V61.4096C55.2952 62.5639 55.4571 63.3059 55.781 63.6357C56.1048 63.8831 56.8335 64.048 57.9669 64.048V65.2847C57.2081 65.2847 56.5604 65.2564 56.0238 65.233C55.6444 65.2164 55.3206 65.2023 55.0523 65.2023ZM57.238 43.518C56.8332 43.518 56.2665 43.518 55.4571 43.6004C55.3761 43.6004 55.2952 43.6004 55.3762 43.6828V53.1646H56.1048H57.0764C58.9385 53.1646 60.3148 52.8348 61.1245 52.0103C61.9341 51.1858 62.3389 49.949 62.3389 48.2176C62.3389 46.5686 61.9341 45.4143 61.1245 44.6722C60.3148 43.9302 59.0195 43.518 57.2383 43.518H57.238Z" fill="white"/>
<path fill-rule="evenodd" clip-rule="evenodd" d="M38.5 38C48.165 38 56 30.165 56 20.5C56 10.835 48.165 3 38.5 3C28.835 3 21 10.835 21 20.5C21 30.165 28.835 38 38.5 38ZM27.4527 17.5024C27.766 17.0562 28.0794 16.7586 28.3405 16.7586C28.4132 16.7586 28.4972 16.748 28.5871 16.7365L28.5872 16.7365C28.6911 16.7233 28.803 16.7091 28.915 16.7091H29.4894H29.8028V24.3454C29.8028 24.4942 29.7505 24.6429 29.6983 24.7917C29.6461 24.8909 29.4894 24.99 29.3327 25.0892C29.2682 25.1199 29.1837 25.1316 29.0669 25.1478L29.0669 25.1478L29.0669 25.1478C28.9947 25.1578 28.9102 25.1695 28.8105 25.1884C28.5494 25.238 28.3405 25.238 28.236 25.238V25.7834H33.8763V25.1388C33.7196 25.1388 33.5108 25.0892 33.3019 25.0397L33.3018 25.0396L33.3016 25.0396L33.3015 25.0396C33.0927 24.99 32.884 24.9404 32.7795 24.8909C32.6229 24.8413 32.4662 24.7421 32.414 24.5934C32.405 24.5679 32.3961 24.5439 32.3874 24.5205L32.3874 24.5204C32.3454 24.4076 32.3095 24.3114 32.3095 24.1471V16.6099H32.6229H33.1973C33.3093 16.6099 33.4212 16.6241 33.5251 16.6373C33.6151 16.6488 33.6991 16.6595 33.7718 16.6595C34.0329 16.7091 34.3463 16.957 34.6596 17.4033C34.973 17.8496 35.2341 18.2958 35.3908 18.7421H35.9652V15.9653H26.1471V18.7421H26.7215C26.8782 18.395 27.1393 17.9487 27.4527 17.5024ZM41.2019 25.1792C41.102 25.1792 40.9022 25.1289 40.6025 25.0282C40.3028 24.9275 40.103 24.8268 40.0031 24.7764C39.8533 24.6254 39.7035 24.424 39.6535 24.1219C39.6035 23.8198 39.5536 23.417 39.5536 22.8128V16.8715L42.0011 23.6184C42.101 23.8701 42.2509 24.2729 42.4008 24.7261L42.7004 25.6324H43.5496L46.8963 17.0226V24.3233C46.8963 24.5247 46.8463 24.6757 46.7964 24.7764C46.7464 24.8771 46.5966 24.9778 46.4468 25.0785L46.4467 25.0785C46.3886 25.1078 46.3137 25.12 46.2219 25.1351L46.2219 25.1351C46.1557 25.1459 46.0808 25.1581 45.9971 25.1792C45.7474 25.2296 45.5975 25.2296 45.4477 25.2296V25.7834H50.6925V25.1792C50.6511 25.1792 50.5926 25.1706 50.5241 25.1605L50.524 25.1605C50.427 25.1462 50.31 25.1289 50.1929 25.1289C50.1093 25.1078 50.0344 25.0955 49.9683 25.0847L49.9682 25.0847C49.8764 25.0697 49.8015 25.0574 49.7434 25.0282C49.5436 24.9275 49.4437 24.8268 49.3938 24.7261C49.3438 24.6254 49.2939 24.4743 49.2939 24.3233V17.375C49.2939 17.224 49.3438 17.0729 49.3938 16.9722C49.4317 16.8574 49.5275 16.8007 49.6371 16.7359C49.6716 16.7155 49.7075 16.6943 49.7434 16.6701L49.7435 16.6701C49.8933 16.6198 50.0431 16.5694 50.1929 16.5694C50.3428 16.5191 50.4927 16.5191 50.6425 16.5191V15.9653H46.3468C46.3468 16.0275 46.3277 16.1089 46.3014 16.2215C46.2851 16.2911 46.266 16.3726 46.2469 16.4687C46.2172 16.6185 46.1698 16.7682 46.1258 16.9074L46.1258 16.9074C46.0958 17.0022 46.0673 17.092 46.0471 17.1736L43.9991 22.41L41.6015 15.9653H37.106V16.5191C37.3058 16.5191 37.5056 16.5694 37.7053 16.6198L37.7054 16.6198C37.9052 16.6701 38.105 16.7708 38.2549 16.8715C38.4047 16.9722 38.5046 17.1233 38.6045 17.3247C38.6545 17.5261 38.7044 17.7778 38.7044 18.0799V22.9135C38.7044 23.4673 38.6545 23.9205 38.6045 24.2226C38.5546 24.5247 38.4047 24.7261 38.2549 24.8771C38.105 24.9778 37.9052 25.0785 37.6055 25.1289C37.5386 25.1424 37.4753 25.1559 37.4164 25.1684C37.2559 25.2026 37.1292 25.2296 37.0561 25.2296V25.7834H41.2519V25.1792H41.2019Z" fill="white"/>
</svg>
